<?xml version="1.0" standalone="no"?>
<!DOCTYPE svg PUBLIC "-//W3C//DTD SVG 20010904//EN"
 "http://www.w3.org/TR/2001/REC-SVG-20010904/DTD/svg10.dtd">
<svg version="1.0" xmlns="http://www.w3.org/2000/svg"
 width="681.000000pt" height="1180.000000pt" viewBox="0 0 681.000000 1180.000000"
 preserveAspectRatio="xMidYMid meet">
<metadata>
Created by potrace 1.16, written by Peter Selinger 2001-2019
</metadata>
<g transform="translate(0.000000,1180.000000) scale(0.100000,-0.100000)"
fill="#000000" stroke="none">
<path d="M3075 11430 c-29 -25 -67 -46 -103 -56 -31 -9 -68 -29 -83 -44 -36
-35 -47 -105 -25 -148 24 -46 47 -55 129 -47 101 10 103 6 111 -165 19 -431
30 -511 73 -523 10 -3 44 -9 76 -13 51 -6 61 -4 81 15 22 20 22 25 19 223 -3
279 -11 529 -18 614 -7 80 -11 85 -105 148 -71 47 -97 46 -155 -4z"/>
<path d="M5352 10585 c-91 -29 -142 -63 -204 -138 -109 -132 -148 -284 -130
-512 7 -94 14 -124 47 -205 34 -80 50 -104 105 -160 36 -36 90 -78 120 -95 51
-28 62 -30 155 -29 137 1 192 22 271 108 69 73 144 189 144 222 0 12 9 53 21
90 18 59 21 86 17 194 -6 148 -18 185 -103 316 -92 143 -137 180 -264 218 -71
21 -91 20 -179 -9z m153 -234 c22 -10 50 -29 62 -42 56 -62 89 -218 81 -382
-6 -114 -31 -175 -89 -217 -110 -80 -239 -25 -288 123 -20 58 -22 81 -17 199
7 201 48 293 144 322 61 19 60 19 107 -3z"/>
<path d="M4681 10470 c-51 -54 -82 -77 -136 -101 -86 -38 -112 -61 -125 -111
-8 -29 -7 -44 4 -67 19 -36 32 -41 115 -41 78 0 115 -20 125 -68 4 -15 8 -147
10 -294 5 -292 9 -314 66 -343 37 -19 113 -19 150 0 36 19 54 69 45 128 -4 24
-8 107 -10 183 -2 76 -9 274 -15 439 -12 298 -12 300 -37 323 -18 17 -36 22
-75 22 -51 0 -52 -1 -117 -70z"/>
<path d="M3112 9942 c-42 -23 -195 -189 -221 -240 -10 -20 -22 -60 -26 -87 -4
-28 -18 -90 -31 -140 -13 -49 -24 -100 -24 -111 0 -12 -8 -48 -19 -80 -10 -33
-30 -122 -45 -199 -24 -126 -37 -183 -66 -295 -5 -19 -10 -50 -10 -68 0 -18
-9 -58 -20 -90 -23 -65 -58 -212 -90 -387 -13 -66 -33 -154 -45 -195 -13 -42
-30 -109 -39 -150 -8 -41 -25 -118 -36 -170 -24 -109 -43 -199 -60 -285 -7
-33 -19 -78 -26 -100 -8 -23 -14 -52 -14 -65 0 -14 -9 -54 -20 -90 -11 -36
-23 -87 -26 -115 -11 -89 -34 -154 -60 -172 -22 -14 -46 -15 -177 -9 -84 4
-177 10 -207 14 -30 4 -108 5 -172 2 -112 -5 -119 -7 -160 -37 -24 -18 -69
-51 -100 -73 -67 -47 -74 -58 -82 -125 -17 -133 -28 -174 -52 -196 l-24 -23
-158 12 c-86 7 -206 15 -267 18 -108 6 -111 6 -150 -22 -22 -15 -58 -40 -80
-55 -78 -53 -125 -121 -143 -204 -18 -80 -26 -295 -12 -329 8 -23 7 -43 -5
-94 -9 -36 -16 -100 -15 -146 1 -90 -6 -217 -21 -411 -5 -71 -14 -186 -18
-255 -5 -69 -14 -170 -21 -225 -6 -55 -9 -140 -7 -190 3 -49 1 -115 -3 -145
-22 -140 -32 -319 -22 -367 33 -151 55 -240 65 -258 5 -11 10 -47 10 -80 -1
-33 5 -74 12 -91 7 -18 16 -67 20 -110 3 -44 13 -99 20 -124 7 -25 16 -76 20
-114 3 -38 14 -94 24 -125 10 -31 21 -82 25 -115 4 -32 11 -66 16 -77 15 -27
41 -153 49 -244 5 -44 18 -109 30 -145 11 -36 21 -73 21 -83 0 -10 7 -31 15
-47 9 -17 20 -76 25 -132 9 -103 16 -138 51 -258 10 -36 22 -101 25 -145 4
-46 15 -96 26 -117 10 -21 21 -66 24 -100 12 -127 48 -183 141 -218 30 -11 74
-33 97 -49 40 -27 161 -97 296 -169 36 -19 81 -48 100 -63 20 -15 67 -43 105
-62 158 -78 181 -91 210 -112 31 -23 176 -100 255 -135 25 -11 77 -38 115 -60
39 -22 115 -63 170 -91 55 -28 147 -77 205 -110 58 -32 152 -83 210 -113 58
-29 139 -71 180 -92 41 -22 101 -48 132 -58 63 -22 27 -27 318 41 58 14 157
40 220 58 63 18 153 41 199 50 46 9 107 25 135 36 28 10 101 28 162 39 61 10
130 26 152 35 39 16 77 27 279 80 99 25 213 59 278 81 23 8 92 59 166 121 120
102 189 160 332 278 33 28 95 82 137 120 41 39 143 129 224 200 295 258 293
256 329 395 48 183 69 256 98 345 16 50 35 126 44 170 13 73 44 196 97 380 10
39 26 97 34 130 9 33 24 83 34 110 22 57 62 218 80 320 11 64 94 400 120 485
5 19 10 44 10 55 0 18 -251 273 -680 689 -80 78 -190 193 -246 256 -131 148
-170 185 -217 205 -35 14 -43 15 -85 1 -26 -8 -65 -18 -87 -22 -22 -3 -50 -16
-63 -27 -23 -21 -63 -138 -117 -342 -29 -107 -62 -221 -94 -325 -12 -36 -21
-72 -21 -80 0 -27 57 -136 116 -221 31 -46 72 -115 91 -154 42 -86 41 -107
-16 -296 -22 -74 -55 -183 -72 -244 -17 -60 -38 -117 -46 -125 -13 -13 -16
-12 -33 7 -14 18 -19 47 -24 140 -3 65 -13 179 -21 253 -9 74 -22 248 -30 385
-8 138 -19 273 -24 300 -29 152 -23 361 15 520 22 96 52 255 59 315 4 30 13
78 20 105 8 28 18 86 24 130 5 44 17 107 25 140 9 32 16 70 16 84 0 13 14 94
30 180 53 270 79 415 83 456 3 22 19 105 36 185 18 80 39 188 47 240 8 52 24
125 34 161 11 36 20 78 20 92 0 15 15 104 34 199 34 171 60 308 140 753 13 72
31 155 39 185 9 30 19 89 22 130 4 41 12 93 20 115 7 22 18 76 25 120 7 44 23
111 36 150 30 88 30 123 1 166 -78 115 -105 150 -151 198 -28 29 -65 59 -83
67 -17 8 -87 19 -155 24 -68 6 -173 18 -234 26 -139 18 -198 18 -232 0 -15 -8
-73 -61 -128 -118 -114 -115 -115 -119 -169 -354 -13 -60 -31 -136 -39 -169
-59 -240 -115 -478 -151 -645 -13 -63 -36 -158 -50 -210 -14 -52 -30 -120 -36
-150 -6 -30 -20 -89 -30 -130 -11 -41 -34 -138 -53 -215 -19 -77 -43 -171 -54
-210 -11 -38 -23 -95 -27 -125 -8 -65 -24 -133 -58 -255 -14 -49 -30 -117 -37
-150 -6 -33 -24 -116 -41 -185 -32 -135 -125 -554 -141 -635 -5 -27 -17 -70
-27 -95 -14 -38 -23 -47 -57 -59 -45 -16 -105 -9 -129 15 -28 28 -28 66 -1
298 14 127 30 274 35 326 5 52 18 163 29 245 12 83 31 240 42 350 12 110 25
225 31 255 5 30 12 102 15 160 3 58 10 122 16 144 10 39 17 97 43 356 8 80 20
174 26 210 11 68 17 118 43 370 9 85 21 175 26 200 5 25 12 81 15 125 3 44 17
150 30 235 13 85 29 216 35 290 23 271 30 337 45 420 9 47 20 141 25 210 l9
125 -61 110 c-102 184 -81 175 -397 186 -135 4 -262 10 -281 14 -24 3 -46 -1
-68 -13z m351 -311 c104 -8 122 -12 144 -32 24 -23 25 -27 19 -109 -4 -47 -13
-125 -21 -175 -8 -49 -20 -144 -25 -210 -6 -66 -19 -178 -30 -250 -11 -71 -25
-173 -30 -225 -5 -52 -17 -144 -25 -205 -8 -60 -15 -130 -15 -154 0 -48 -13
-159 -36 -309 -8 -51 -14 -112 -14 -135 0 -23 -5 -58 -10 -77 -6 -19 -15 -80
-20 -135 -5 -55 -17 -152 -25 -215 -8 -63 -20 -160 -25 -215 -6 -55 -15 -122
-21 -150 -16 -77 -29 -187 -40 -325 -5 -69 -14 -161 -19 -205 -5 -44 -14 -129
-20 -190 -6 -60 -17 -137 -25 -170 -7 -33 -16 -98 -20 -145 -3 -47 -10 -119
-15 -160 -6 -41 -14 -131 -19 -200 -5 -69 -17 -163 -25 -210 -30 -160 -21
-191 86 -327 59 -75 87 -87 256 -108 177 -22 189 -21 258 21 101 61 133 103
152 200 20 100 51 230 60 255 6 14 13 52 17 85 4 32 34 169 66 304 96 397 127
531 139 600 6 36 20 94 30 130 26 92 65 245 95 380 14 63 42 180 62 260 20 80
51 204 68 275 18 72 45 184 60 250 29 127 74 313 99 405 9 30 38 150 66 265
28 116 57 225 65 242 19 42 51 50 135 34 36 -6 117 -16 180 -22 219 -19 223
-24 196 -187 -25 -151 -52 -288 -85 -427 -41 -173 -51 -222 -51 -261 0 -41
-29 -195 -70 -379 -17 -71 -41 -197 -55 -279 -14 -81 -35 -185 -45 -230 -11
-44 -26 -119 -34 -166 -9 -47 -26 -137 -40 -200 -13 -63 -27 -144 -31 -180 -4
-36 -17 -103 -30 -150 -13 -47 -27 -107 -30 -135 -4 -27 -14 -65 -21 -84 -8
-18 -14 -59 -14 -90 0 -59 -20 -186 -44 -286 -9 -33 -24 -114 -36 -180 -44
-260 -52 -303 -72 -395 -12 -52 -25 -122 -30 -155 -5 -33 -16 -91 -24 -130
-36 -161 -42 -252 -28 -395 7 -74 20 -211 28 -305 8 -93 20 -202 25 -241 6
-38 15 -142 21 -230 12 -180 35 -425 50 -529 6 -38 14 -113 17 -165 6 -103 22
-147 70 -192 37 -36 66 -45 184 -63 125 -19 132 -19 158 3 29 23 84 176 116
320 14 64 34 144 45 177 10 33 25 85 33 115 8 30 28 102 45 160 16 58 33 123
37 145 4 22 22 80 41 129 43 110 45 168 8 217 -14 19 -39 61 -56 94 -17 33
-41 74 -53 90 -37 49 -75 132 -75 164 0 30 6 54 64 243 29 92 50 117 84 99 19
-10 629 -623 730 -733 53 -58 62 -73 62 -105 0 -41 -41 -214 -65 -274 -7 -20
-26 -90 -40 -155 -29 -129 -57 -233 -74 -277 -6 -16 -20 -70 -32 -120 -37
-162 -58 -231 -81 -262 -17 -23 -22 -45 -24 -105 -1 -59 -12 -106 -49 -218
-25 -78 -62 -210 -81 -293 -18 -83 -43 -168 -55 -189 -19 -33 -201 -200 -271
-248 -13 -9 -81 -68 -152 -132 -123 -110 -178 -156 -256 -217 -19 -15 -85 -74
-147 -130 -61 -57 -131 -112 -155 -122 -50 -23 -134 -47 -338 -97 -80 -20
-172 -44 -205 -55 -33 -10 -118 -29 -190 -43 -71 -13 -161 -36 -200 -51 -64
-25 -163 -50 -348 -91 -37 -8 -93 -21 -124 -29 -32 -8 -89 -15 -128 -15 -70 0
-71 0 -310 121 -132 66 -271 138 -310 159 -85 48 -86 48 -203 100 -52 22 -124
61 -161 85 -37 25 -85 52 -107 61 -90 36 -264 125 -292 149 -31 26 -117 67
-165 79 -15 4 -72 31 -125 60 -53 29 -108 57 -122 61 -23 7 -52 23 -244 131
-38 22 -75 49 -84 62 -15 24 -54 198 -77 347 -8 50 -23 115 -34 145 -10 30
-22 96 -26 145 -4 54 -21 145 -45 230 -21 77 -41 178 -45 224 -9 113 -41 271
-86 419 -10 34 -19 83 -19 108 0 25 -7 58 -14 73 -14 26 -31 110 -57 281 -5
36 -14 81 -20 100 -34 116 -42 253 -29 500 6 113 15 288 19 390 5 102 13 235
19 295 6 61 10 126 10 145 0 19 5 107 13 195 7 88 14 192 16 230 9 253 14 325
23 401 6 47 8 89 4 95 -13 21 19 138 44 161 23 22 30 23 175 20 84 -2 186 -10
227 -18 41 -8 88 -14 103 -14 36 0 83 -25 98 -51 8 -16 8 -53 -1 -143 -12
-124 -19 -371 -21 -690 -1 -211 -1 -212 98 -222 56 -6 63 -5 85 17 24 24 25
29 36 304 7 154 17 453 22 665 12 479 14 496 50 532 27 26 34 28 114 28 47 0
107 -4 133 -10 26 -5 109 -14 184 -19 75 -6 148 -16 162 -22 51 -23 56 -77 38
-404 -6 -115 -16 -241 -21 -280 -5 -38 -14 -176 -20 -306 -6 -130 -15 -274
-20 -320 -6 -46 -10 -120 -10 -165 0 -91 6 -102 75 -127 93 -35 168 -27 194
21 5 9 14 132 20 272 6 140 14 309 17 375 4 66 8 145 9 175 2 30 6 118 10 195
4 77 9 181 10 230 10 328 17 409 47 520 17 61 34 130 39 155 4 25 24 106 43
180 20 75 40 158 45 185 32 163 72 335 85 367 9 21 16 55 16 76 0 21 7 61 15
88 9 27 25 95 36 152 11 57 25 115 31 130 17 43 37 134 38 168 0 18 11 60 24
95 13 35 29 96 35 134 13 73 22 117 70 325 16 69 32 143 36 165 3 22 13 60 20
85 19 61 52 204 61 265 4 28 11 61 16 75 5 13 15 57 23 97 15 79 36 126 62
143 11 6 44 8 83 5 36 -3 118 -10 183 -14z"/>
</g>
</svg>
