<?xml version="1.0" standalone="no"?>
<!DOCTYPE svg PUBLIC "-//W3C//DTD SVG 20010904//EN"
 "http://www.w3.org/TR/2001/REC-SVG-20010904/DTD/svg10.dtd">
<svg version="1.0" xmlns="http://www.w3.org/2000/svg"
 width="1917.9581pt" height="1299.7191pt" viewBox="0 0 1917.9581 1299.7191"
 preserveAspectRatio="xMidYMid meet">
<g transform="translate(20.9790,32.3596) rotate(358.0000,938.0000,617.5000)">
<metadata>
Created by potrace 1.16, written by Peter Selinger 2001-2019
</metadata>
<g transform="translate(0.000000,1235.000000) scale(0.100000,-0.100000)"
fill="#000000" stroke="none">
<path d="M9188 11802 c-15 -10 -44 -40 -64 -67 -21 -28 -40 -52 -43 -55 -20
-17 -140 -160 -166 -195 -32 -45 -62 -82 -177 -214 -40 -46 -84 -98 -98 -116
-14 -18 -61 -76 -105 -130 -102 -124 -257 -316 -315 -391 -25 -32 -73 -91
-107 -131 -35 -40 -63 -75 -63 -78 0 -4 -25 -34 -54 -68 -143 -162 -334 -396
-422 -517 -27 -36 -52 -67 -56 -68 -8 -4 -141 -160 -188 -221 -14 -18 -32 -40
-41 -49 -9 -10 -45 -53 -80 -97 -36 -44 -74 -91 -86 -105 -11 -14 -58 -72
-104 -130 -46 -58 -92 -114 -102 -125 -10 -11 -33 -37 -50 -59 -18 -21 -54
-64 -81 -95 -26 -31 -72 -87 -101 -126 -51 -67 -103 -130 -203 -244 -26 -29
-56 -68 -67 -86 -11 -18 -37 -52 -58 -76 -21 -24 -41 -49 -45 -54 -8 -11 -128
-152 -197 -232 -25 -28 -64 -79 -86 -112 -44 -66 -64 -74 -95 -40 -10 12 -36
30 -56 40 -20 10 -57 33 -83 51 -93 66 -191 128 -225 143 -19 9 -46 22 -60 31
-24 15 -173 87 -255 123 -119 54 -165 71 -210 81 -27 6 -102 26 -165 45 -63
18 -146 39 -185 45 -38 7 -104 19 -145 26 -158 31 -486 39 -705 19 -174 -16
-477 -84 -649 -144 -33 -12 -66 -21 -74 -21 -8 0 -40 -12 -71 -26 -31 -14 -65
-30 -76 -34 -77 -31 -241 -115 -248 -125 -4 -8 -21 -16 -37 -20 -16 -4 -32
-10 -35 -15 -3 -5 -35 -26 -71 -47 -36 -21 -74 -42 -83 -48 -27 -16 -86 -59
-91 -66 -3 -3 -21 -14 -40 -24 -19 -10 -58 -39 -86 -65 -37 -35 -61 -49 -93
-55 -36 -6 -42 -10 -38 -26 3 -10 1 -19 -4 -19 -5 0 -9 -4 -9 -8 0 -5 -37 -47
-82 -93 -46 -47 -110 -116 -143 -154 -33 -38 -84 -95 -113 -126 -28 -30 -52
-59 -52 -63 0 -7 -10 -20 -59 -82 -5 -6 -16 -25 -26 -43 -9 -18 -36 -62 -61
-99 -24 -36 -44 -69 -44 -73 0 -5 -13 -27 -29 -51 -28 -43 -162 -311 -165
-332 -2 -12 -22 -69 -37 -101 -5 -11 -18 -48 -28 -82 -11 -34 -27 -75 -35 -92
-9 -16 -16 -44 -16 -61 0 -16 -4 -30 -9 -30 -7 0 -23 -70 -36 -160 -2 -14 -11
-52 -20 -85 -12 -45 -15 -108 -15 -255 0 -107 2 -206 5 -220 2 -14 11 -65 20
-114 8 -49 13 -91 10 -94 -2 -3 4 -19 14 -36 19 -30 43 -94 54 -146 7 -28 92
-187 144 -267 18 -28 33 -56 33 -62 0 -6 4 -11 8 -11 4 0 16 -14 26 -30 9 -17
42 -56 72 -87 30 -31 54 -62 54 -68 0 -16 50 -117 70 -140 9 -11 26 -35 36
-54 22 -41 30 -50 137 -158 44 -46 84 -83 89 -83 4 0 24 -16 44 -36 63 -60 96
-81 184 -114 47 -18 91 -37 98 -43 7 -5 29 -13 50 -17 20 -5 93 -20 161 -34
68 -14 138 -26 155 -26 54 0 76 -10 76 -35 0 -16 -10 -27 -34 -39 -19 -9 -40
-16 -48 -16 -29 0 -41 -16 -29 -39 9 -17 8 -26 -6 -48 -10 -16 -20 -30 -23
-33 -20 -18 -210 -252 -210 -258 0 -5 -14 -21 -31 -38 -17 -16 -67 -74 -111
-129 -45 -55 -97 -116 -116 -135 -19 -19 -79 -89 -132 -155 -54 -66 -108 -131
-121 -146 -13 -14 -43 -50 -66 -80 -23 -29 -55 -68 -70 -85 -15 -16 -41 -48
-58 -70 -33 -43 -38 -49 -140 -170 -38 -46 -88 -106 -110 -135 -22 -28 -52
-56 -67 -61 -19 -7 -28 -17 -28 -32 0 -22 -94 -147 -189 -252 -25 -28 -73 -84
-106 -124 -33 -40 -85 -100 -116 -134 -31 -33 -79 -88 -106 -122 -28 -33 -64
-72 -81 -86 -16 -14 -38 -40 -47 -58 -9 -18 -43 -59 -76 -92 -32 -32 -59 -68
-59 -78 0 -11 3 -19 7 -18 5 1 19 -2 33 -5 14 -3 92 -8 173 -10 150 -4 177
-11 160 -41 -13 -24 -114 -126 -124 -126 -12 0 -12 -27 0 -34 5 -3 139 -8 297
-12 159 -3 372 -10 474 -16 102 -5 217 -12 255 -14 63 -3 433 -20 660 -29 228
-10 1030 -34 1300 -40 165 -4 334 -8 375 -10 41 -2 194 -6 340 -10 146 -3 276
-8 290 -10 24 -4 216 -9 665 -20 110 -3 371 -9 580 -15 209 -5 533 -12 720
-15 187 -3 446 -10 575 -15 129 -5 327 -12 440 -15 113 -3 246 -7 295 -10 50
-3 205 -7 345 -10 263 -5 527 -13 710 -20 58 -3 204 -7 325 -10 255 -6 425
-13 510 -19 33 -2 155 -7 270 -10 116 -3 289 -9 385 -12 96 -3 261 -7 365 -9
105 -2 271 -7 370 -10 99 -3 261 -7 360 -10 99 -3 230 -7 290 -10 61 -3 209
-8 330 -10 121 -3 265 -8 320 -10 317 -13 858 -30 1230 -40 99 -2 225 -7 280
-10 128 -6 462 -18 585 -20 231 -4 631 -15 695 -20 39 -3 198 -7 355 -10 157
-3 353 -7 435 -10 416 -15 562 -18 1130 -30 430 -8 617 -15 741 -25 116 -9
154 -6 154 14 0 6 -30 41 -65 78 -36 37 -65 72 -65 77 0 4 -7 14 -16 21 -8 8
-33 44 -54 81 -22 37 -56 86 -77 108 -20 23 -43 52 -52 65 -57 84 -80 117
-116 161 -22 28 -47 63 -55 79 -8 16 -34 51 -57 77 -24 26 -43 51 -43 56 0 4
-22 35 -50 68 -27 33 -50 64 -50 69 0 5 -19 30 -42 57 -62 68 -128 156 -128
168 0 6 -23 34 -50 63 -54 56 -83 104 -74 120 7 11 -24 48 -41 48 -17 0 -85
63 -85 78 0 14 -116 163 -136 175 -8 4 -14 13 -14 20 0 11 -20 38 -97 133 -18
21 -46 58 -63 82 -16 23 -34 42 -39 42 -5 0 -12 8 -15 18 -12 32 -33 63 -77
110 -24 27 -62 74 -84 106 -22 32 -63 84 -92 116 -29 32 -61 76 -72 98 -17 33
-77 112 -167 217 -36 43 -136 175 -157 208 -10 16 -25 36 -33 45 -48 56 -95
116 -106 135 -14 26 -62 91 -99 132 -15 17 -52 64 -81 105 -29 41 -64 86 -76
100 -47 51 -122 149 -122 159 0 6 -16 25 -35 42 -19 18 -35 38 -35 44 0 7 -18
31 -40 53 -22 22 -40 44 -40 50 0 10 -114 149 -133 163 -15 11 9 41 93 119 45
41 90 87 101 102 20 27 20 27 -1 38 -14 8 -53 8 -134 1 -162 -14 -185 -4 -140
63 38 55 74 131 74 155 0 15 -6 21 -22 21 -13 1 -48 3 -78 6 -30 3 -109 6
-175 8 -116 2 -145 7 -145 26 0 4 -14 23 -31 41 -18 19 -42 50 -55 69 -12 19
-39 52 -58 73 -20 21 -36 42 -36 48 0 10 -109 148 -134 168 -33 27 -9 64 87
136 60 45 85 79 68 90 -5 2 -61 7 -126 9 -65 3 -120 8 -123 11 -3 3 23 31 58
63 55 50 62 61 57 84 -8 32 -41 38 -214 39 -75 1 -127 6 -136 13 -27 23 -117
134 -117 145 0 6 -4 11 -10 11 -5 0 -10 4 -10 9 0 5 -16 26 -35 47 -19 21 -35
42 -35 48 0 5 -7 16 -15 25 -47 52 -55 62 -55 68 0 4 -18 28 -40 54 -22 26
-40 52 -40 58 0 5 18 31 41 57 51 59 66 91 52 105 -6 6 -56 11 -114 11 -109 0
-119 4 -119 45 0 17 -11 28 -43 43 -24 11 -50 33 -59 48 -9 15 -29 41 -45 57
-16 17 -37 43 -48 60 -10 16 -37 52 -59 81 -23 28 -57 72 -76 98 -19 26 -60
77 -90 114 -30 36 -66 83 -80 103 -38 57 -111 153 -124 164 -7 6 -31 38 -54
72 -23 34 -56 76 -73 95 -17 18 -41 49 -54 68 -13 19 -55 76 -94 125 -39 50
-94 124 -122 165 -29 41 -61 81 -71 88 -10 7 -18 19 -18 26 0 7 -10 21 -21 32
-12 10 -55 64 -96 119 -40 55 -93 122 -116 148 -23 27 -50 63 -59 80 -10 18
-31 46 -48 63 -16 18 -30 36 -30 41 0 4 -20 33 -45 63 -25 30 -62 78 -84 106
-22 28 -45 57 -53 65 -7 8 -30 39 -51 71 -20 31 -40 58 -44 60 -5 1 -28 30
-53 63 -24 33 -50 66 -58 74 -8 8 -25 33 -39 55 -14 23 -35 51 -47 63 -11 12
-37 45 -56 74 -19 28 -58 78 -87 111 -29 33 -68 84 -88 114 -20 30 -60 82 -88
115 -72 84 -120 144 -167 209 -55 77 -83 114 -174 232 -113 146 -136 175 -181
227 -22 25 -51 62 -65 81 -13 19 -28 40 -32 45 -12 14 -102 131 -138 180 -17
22 -45 59 -63 83 -17 24 -57 74 -87 110 -30 37 -74 92 -98 122 -23 30 -60 78
-82 105 -23 28 -62 77 -87 110 -26 33 -52 65 -58 70 -6 6 -25 31 -42 56 -17
25 -39 52 -49 60 -9 7 -34 36 -55 64 -20 27 -148 163 -284 300 l-247 250 -24
-30 c-64 -81 -74 -92 -89 -92 -19 0 -52 38 -147 167 -39 52 -71 96 -72 97 -1
1 -14 -6 -28 -15z m42 -93 c0 -6 12 -26 28 -44 48 -56 62 -75 62 -81 0 -3 19
-28 43 -56 40 -48 84 -101 145 -177 15 -18 32 -38 38 -45 5 -6 29 -39 52 -73
23 -33 52 -69 65 -80 13 -10 43 -47 68 -83 24 -36 52 -73 62 -82 9 -10 17 -23
17 -28 0 -6 24 -37 53 -69 28 -33 60 -70 69 -83 10 -13 34 -45 55 -73 20 -27
54 -70 76 -95 35 -40 76 -113 91 -162 3 -10 14 -18 25 -18 20 0 111 -95 111
-116 0 -6 6 -14 13 -17 8 -3 31 -31 52 -64 21 -32 58 -79 82 -105 23 -26 43
-51 43 -56 0 -4 8 -17 18 -28 10 -10 37 -44 60 -74 58 -76 115 -148 150 -190
16 -19 35 -45 41 -58 7 -13 19 -31 26 -40 151 -187 207 -254 247 -296 26 -28
67 -77 90 -110 151 -207 143 -197 226 -298 17 -22 32 -44 32 -49 0 -4 8 -16
18 -26 21 -20 185 -237 219 -288 12 -19 29 -37 36 -42 7 -4 30 -34 51 -65 20
-31 49 -68 64 -82 15 -14 41 -39 57 -54 17 -16 37 -42 45 -58 25 -50 87 -138
114 -163 14 -14 26 -30 26 -37 0 -7 16 -32 36 -56 19 -24 75 -95 124 -158 49
-63 102 -130 117 -149 15 -18 40 -54 56 -79 16 -26 35 -51 42 -57 21 -17 95
-121 95 -134 0 -6 24 -35 53 -64 57 -58 87 -93 87 -105 0 -4 19 -30 43 -57 24
-28 55 -70 70 -95 15 -25 51 -74 81 -108 29 -35 59 -78 68 -95 8 -18 21 -44
28 -59 7 -14 21 -28 31 -31 10 -3 33 -26 50 -51 18 -25 36 -46 41 -46 4 0 8
-6 9 -12 0 -13 26 -47 132 -177 31 -38 57 -75 57 -81 0 -7 9 -19 20 -28 12
-10 22 -27 23 -40 2 -37 31 -45 129 -38 107 8 238 -2 238 -18 0 -6 -32 -50
-70 -96 -39 -47 -73 -94 -76 -106 -6 -21 3 -34 83 -122 24 -26 43 -50 43 -54
0 -3 29 -43 65 -87 36 -45 65 -86 65 -91 0 -6 4 -10 9 -10 5 0 30 -34 56 -75
l48 -75 141 -2 c78 -2 207 -3 288 -3 102 0 151 -4 159 -12 10 -10 -20 -44
-139 -160 -106 -104 -152 -155 -152 -171 0 -12 5 -22 10 -22 6 0 10 -7 10 -15
0 -8 24 -43 53 -77 60 -72 127 -163 127 -172 0 -4 16 -21 36 -38 20 -18 40
-41 45 -52 19 -42 94 -140 203 -266 7 -8 16 -23 19 -32 15 -41 93 -5 182 83
l61 59 129 0 c146 0 164 -5 144 -41 -36 -68 -99 -145 -198 -243 -61 -59 -111
-115 -111 -123 0 -7 20 -36 45 -62 43 -46 56 -83 35 -96 -20 -13 -9 -25 23
-25 38 0 44 -4 78 -50 15 -19 38 -46 51 -60 14 -14 32 -38 41 -55 8 -16 27
-43 41 -58 14 -15 33 -41 41 -57 9 -17 34 -52 58 -78 23 -27 49 -58 57 -68 8
-11 32 -39 53 -63 20 -25 37 -54 37 -65 0 -12 9 -32 20 -46 11 -14 20 -31 20
-37 0 -7 8 -13 17 -13 19 0 63 -38 63 -55 0 -6 22 -34 50 -61 27 -27 50 -55
50 -62 0 -7 6 -15 14 -18 22 -8 96 -112 96 -134 0 -16 7 -20 30 -20 30 0 39
-17 20 -36 -10 -10 13 -39 202 -263 35 -41 62 -80 60 -88 -2 -7 4 -16 13 -19
9 -4 24 -23 34 -43 11 -20 29 -45 41 -56 19 -17 73 -110 73 -125 0 -3 21 -23
46 -45 25 -22 48 -44 50 -48 6 -16 91 -97 101 -97 14 0 50 -42 44 -51 -8 -13
30 -80 88 -156 29 -38 66 -87 83 -109 16 -21 47 -60 67 -85 21 -25 38 -49 39
-55 0 -5 16 -29 35 -54 19 -25 42 -58 52 -74 14 -24 46 -67 91 -122 5 -6 20
-28 34 -50 13 -21 39 -52 56 -68 17 -17 31 -34 31 -38 0 -13 110 -148 120
-148 5 0 11 -8 14 -17 3 -10 21 -36 41 -58 19 -22 35 -45 35 -51 0 -6 18 -32
40 -57 22 -25 40 -48 40 -51 0 -4 21 -33 48 -66 26 -32 63 -80 82 -105 19 -26
44 -58 54 -71 35 -42 15 -47 -195 -45 -106 1 -195 4 -198 6 -4 2 -233 6 -511
10 -278 3 -548 8 -600 10 -52 2 -205 6 -340 9 -135 4 -301 9 -370 11 -69 3
-215 7 -325 10 -110 2 -254 7 -320 10 -66 2 -239 7 -385 10 -292 6 -523 12
-975 24 -165 5 -367 10 -449 11 -83 0 -153 3 -156 5 -4 2 -132 6 -286 9 -443
9 -747 16 -914 21 -85 3 -247 7 -360 10 -113 2 -259 7 -325 10 -66 2 -221 7
-345 10 -124 3 -295 8 -380 10 -85 2 -249 7 -365 10 -115 3 -336 10 -490 15
-533 18 -591 20 -850 25 -143 3 -294 8 -335 10 -85 5 -655 19 -1360 35 -426 9
-899 22 -1295 35 -77 2 -266 7 -420 10 -154 3 -309 8 -345 10 -36 3 -279 9
-540 15 -261 5 -518 13 -570 16 -52 3 -111 6 -130 6 -50 -1 -734 17 -865 23
-60 3 -195 7 -300 10 -104 3 -354 13 -555 22 -201 8 -376 15 -390 14 -14 0
-97 4 -185 9 -88 6 -216 13 -285 15 -162 7 -173 15 -101 82 28 26 51 51 51 55
0 4 21 29 46 55 25 27 60 69 77 94 37 54 127 159 175 202 17 17 32 36 32 42 0
7 10 20 21 31 23 20 170 192 277 322 34 42 76 93 92 112 17 19 54 65 83 102
36 46 65 72 96 86 39 17 44 24 47 56 2 21 12 47 23 59 11 12 43 51 71 87 28
36 68 85 90 110 22 25 56 66 77 91 87 104 134 159 238 279 61 70 139 162 175
205 96 115 193 227 213 247 9 10 17 21 17 26 0 4 19 28 43 53 23 25 56 63 72
83 60 76 81 100 112 133 18 19 33 37 33 42 0 4 15 24 32 44 18 19 62 70 98
112 36 43 75 89 88 103 20 23 21 27 8 41 -14 13 -29 13 -123 2 -214 -27 -525
-10 -646 35 -23 8 -60 20 -81 25 -69 17 -200 72 -229 96 -16 13 -33 23 -39 23
-24 0 -207 132 -265 192 -113 115 -163 172 -200 228 -20 30 -41 57 -45 59 -5
1 -20 28 -34 59 -14 31 -28 59 -32 62 -22 16 -90 192 -123 315 -47 178 -57
475 -23 682 11 67 23 125 27 129 4 4 7 17 7 28 0 11 11 50 24 86 13 36 43 124
66 195 23 72 55 155 70 185 14 30 33 71 40 90 17 44 124 241 162 297 15 23 28
44 28 47 0 11 81 126 90 126 5 0 11 8 15 19 3 10 15 29 26 42 12 13 33 40 48
59 14 19 39 51 56 70 48 57 307 314 343 340 19 14 41 32 50 41 10 8 33 26 52
39 19 13 39 30 43 37 4 7 21 20 38 28 16 9 52 33 79 53 27 21 75 51 105 67 72
38 84 45 121 72 17 12 68 38 115 59 46 20 108 47 137 60 29 13 55 24 58 24 3
0 20 6 37 14 88 38 138 54 337 110 88 25 193 44 370 67 145 19 194 21 400 16
225 -6 285 -13 510 -56 144 -28 438 -111 465 -131 6 -4 64 -31 130 -60 128
-56 218 -102 303 -156 29 -19 55 -34 59 -34 3 0 29 -17 57 -38 28 -21 67 -48
87 -60 20 -12 61 -49 91 -82 31 -33 62 -60 70 -60 8 0 28 19 46 43 72 95 124
162 132 167 4 3 20 23 34 45 27 39 68 90 154 187 23 27 54 66 68 87 13 21 36
44 49 51 14 7 25 18 25 24 0 14 139 190 340 430 19 24 69 84 110 136 41 51
102 125 135 164 84 100 85 101 164 201 39 50 84 104 99 120 15 17 63 75 107
130 43 55 104 129 135 165 31 36 83 99 115 140 33 41 75 94 95 116 46 54 68
81 143 173 34 42 89 108 122 146 33 39 89 108 125 154 36 46 83 105 105 131
97 113 131 154 145 175 8 12 26 32 39 46 12 13 35 40 49 59 48 62 254 313 322
390 36 41 73 87 82 101 9 14 51 66 93 115 41 49 79 94 83 99 68 94 152 162
152 124z"/>
<path d="M9226 11249 c-28 -22 -134 -148 -203 -241 -24 -31 -59 -69 -78 -84
-19 -14 -35 -32 -35 -40 0 -13 -36 -60 -137 -176 -35 -39 -63 -75 -63 -79 0
-10 -55 -72 -117 -132 -29 -28 -53 -54 -53 -58 0 -13 -201 -276 -265 -345 -19
-22 -73 -88 -137 -169 -35 -44 -71 -89 -80 -100 -82 -98 -281 -343 -358 -440
-25 -32 -63 -78 -85 -104 -22 -26 -56 -67 -75 -91 -35 -44 -111 -136 -201
-245 -27 -33 -90 -108 -139 -167 -50 -59 -90 -110 -90 -113 0 -4 -19 -26 -42
-51 -23 -24 -48 -52 -55 -62 -43 -57 -111 -141 -124 -154 -8 -9 -31 -35 -50
-58 -18 -24 -45 -57 -59 -74 -14 -17 -46 -58 -70 -91 -25 -33 -51 -64 -58 -70
-18 -14 -155 -181 -199 -242 -21 -29 -46 -55 -56 -58 -9 -4 -24 -23 -32 -43
-15 -35 -127 -152 -146 -152 -5 0 -9 -8 -9 -18 0 -22 25 -47 56 -56 12 -4 27
-20 34 -36 7 -17 17 -30 22 -30 13 0 90 -80 153 -158 28 -34 53 -62 58 -62 4
0 7 -5 7 -11 0 -6 35 -54 78 -107 113 -141 279 -399 316 -492 10 -25 24 -52
31 -60 31 -36 173 -368 208 -486 8 -28 20 -60 25 -70 14 -25 52 -178 52 -207
0 -12 7 -51 15 -87 21 -91 63 -343 70 -415 3 -33 1 -67 -4 -75 -6 -9 -6 -19 0
-27 7 -7 11 -81 11 -185 0 -135 -3 -181 -15 -209 -10 -21 -12 -40 -7 -45 9 -9
14 -76 10 -148 -1 -21 3 -43 8 -48 15 -15 88 6 198 57 50 23 117 50 150 60 90
26 89 24 135 193 11 40 31 91 44 113 14 21 25 42 25 46 0 15 86 152 132 208
239 297 518 456 868 496 185 21 286 15 413 -26 59 -19 114 -35 122 -35 20 0
95 -72 115 -109 8 -16 23 -40 34 -54 50 -72 38 -196 -30 -299 -25 -36 -60 -79
-79 -95 -20 -15 -53 -43 -74 -60 -21 -18 -43 -33 -49 -33 -6 0 -21 -11 -34
-24 -13 -14 -45 -36 -72 -50 -27 -14 -54 -30 -60 -35 -6 -4 -45 -21 -86 -36
-41 -15 -84 -33 -95 -40 -18 -11 -186 -50 -314 -73 -69 -12 -285 -7 -342 8
-24 6 -74 23 -112 37 -37 14 -74 22 -82 19 -19 -7 -20 -65 -2 -122 19 -64 123
-141 214 -160 12 -2 37 -13 55 -23 18 -10 51 -24 73 -31 22 -7 47 -18 55 -25
44 -37 410 -44 550 -11 359 84 534 213 854 630 22 28 47 58 56 66 9 8 42 47
73 85 31 39 82 99 113 134 47 53 55 67 49 89 -4 15 -12 30 -18 34 -10 7 -111
13 -143 9 -7 -1 -14 5 -17 12 -6 15 83 136 111 151 9 5 130 8 281 7 319 -3
327 -6 259 -102 -100 -140 -316 -407 -367 -453 -11 -11 -21 -25 -21 -32 0 -7
-11 -26 -25 -42 -14 -17 -25 -33 -25 -36 0 -4 -21 -33 -47 -64 -27 -32 -61
-75 -78 -96 -16 -22 -49 -61 -72 -89 -42 -50 -73 -119 -73 -164 0 -14 13 -37
33 -54 32 -30 33 -30 112 -24 44 4 92 13 107 21 15 8 35 14 45 14 10 1 36 9
58 20 22 11 50 19 63 20 45 0 174 75 345 198 112 80 339 307 409 407 108 155
138 204 138 227 0 48 -11 53 -130 51 -60 0 -113 3 -116 8 -8 14 12 44 85 126
l68 76 314 4 c305 4 359 1 359 -15 0 -8 -98 -137 -232 -305 -35 -44 -76 -98
-93 -122 -16 -24 -50 -67 -75 -95 -108 -121 -142 -163 -237 -290 -121 -163
-148 -214 -139 -263 8 -43 17 -51 97 -84 108 -44 288 -41 439 9 49 15 157 67
205 97 95 60 236 187 262 235 17 33 201 284 266 363 23 28 53 68 67 88 14 20
35 49 48 65 12 15 22 37 22 48 0 24 -16 28 -155 37 -55 4 -108 11 -117 16 -16
9 -16 12 3 44 11 19 51 66 88 105 l68 72 164 -2 c90 -1 169 -2 175 -1 14 1
124 134 124 149 0 5 7 12 15 16 8 3 36 34 62 69 27 35 79 103 116 151 38 47
70 98 72 113 3 28 -55 108 -236 326 -15 18 -36 51 -48 74 -11 23 -25 45 -31
48 -6 4 -28 30 -49 59 -22 29 -46 59 -53 67 -8 8 -30 37 -50 64 -19 28 -58 75
-86 105 -29 30 -52 61 -52 68 0 6 -8 20 -17 30 -10 10 -45 54 -78 97 -76 103
-70 94 -105 136 -16 20 -30 41 -30 47 0 6 -11 23 -25 38 -14 15 -25 30 -25 33
0 3 -18 25 -40 49 -22 24 -40 47 -40 52 0 5 -9 15 -20 23 -20 14 -46 47 -96
122 -15 22 -37 50 -49 62 -12 12 -30 39 -41 60 -10 21 -26 45 -35 53 -9 8 -19
24 -23 36 -3 12 -23 37 -44 56 -20 19 -59 61 -87 93 -27 32 -72 83 -100 113
-71 79 -71 79 -127 167 -28 44 -54 82 -59 83 -5 2 -9 8 -9 13 0 9 -108 155
-164 221 -17 20 -47 58 -66 84 -43 60 -56 76 -97 122 -18 20 -33 40 -33 45 0
5 -18 29 -40 54 -22 25 -40 50 -40 56 0 5 -17 28 -37 51 -21 23 -54 64 -73 90
-89 123 -104 143 -139 181 -20 22 -50 62 -66 88 -17 27 -43 63 -59 80 -15 18
-66 82 -112 142 -46 61 -106 137 -134 170 -27 33 -58 71 -67 85 -10 14 -36 48
-58 75 -22 28 -53 68 -70 89 -32 41 -81 102 -103 126 -7 8 -27 36 -45 62 -48
70 -121 167 -223 291 -83 103 -155 198 -267 350 -23 32 -63 82 -88 110 -25 29
-50 59 -55 69 -5 9 -27 36 -49 59 -43 46 -52 58 -103 137 -19 29 -35 52 -37
52 -1 0 -14 -9 -29 -21z m222 -327 c29 -42 97 -131 152 -197 55 -66 105 -130
112 -141 11 -18 64 -87 108 -141 6 -7 10 -16 10 -20 0 -4 23 -35 51 -68 28
-33 59 -70 69 -82 11 -12 26 -35 34 -50 8 -15 32 -46 54 -68 21 -22 58 -68 82
-103 23 -35 64 -87 89 -115 26 -29 58 -68 71 -87 13 -19 29 -39 36 -45 6 -5
31 -37 55 -70 42 -58 85 -113 113 -145 7 -8 28 -37 46 -65 33 -48 53 -73 96
-120 12 -13 32 -40 45 -61 13 -22 32 -48 42 -59 11 -11 31 -36 45 -55 15 -19
34 -42 42 -50 9 -8 24 -28 34 -45 11 -16 40 -55 66 -85 25 -30 54 -66 63 -80
9 -14 36 -50 59 -82 24 -31 78 -103 120 -160 127 -169 142 -188 168 -217 43
-47 60 -71 60 -81 0 -6 4 -10 8 -10 4 0 30 -34 57 -76 27 -42 66 -97 87 -123
21 -25 38 -51 38 -58 0 -7 5 -13 10 -13 6 0 10 -5 10 -12 0 -6 29 -40 65 -75
36 -35 65 -69 65 -77 0 -7 20 -36 45 -62 25 -27 45 -53 45 -59 0 -5 9 -18 20
-30 49 -50 92 -102 106 -127 7 -15 22 -33 33 -40 29 -21 64 -86 63 -120 -1
-25 3 -29 18 -25 14 3 31 -8 57 -37 56 -62 74 -86 66 -86 -4 0 3 -7 15 -16 12
-8 22 -21 22 -28 0 -7 14 -25 30 -41 19 -19 33 -43 37 -68 3 -21 12 -44 19
-50 7 -7 34 -31 59 -54 25 -24 50 -43 56 -43 5 0 9 -5 9 -11 0 -14 86 -122
166 -210 8 -9 14 -19 14 -23 0 -8 107 -154 188 -259 20 -26 45 -62 54 -79 10
-18 31 -43 48 -56 16 -13 30 -29 30 -36 0 -6 9 -18 20 -26 12 -8 30 -28 40
-45 11 -16 25 -39 32 -50 7 -11 25 -35 41 -53 15 -18 27 -39 27 -46 0 -8 -22
-41 -50 -74 -27 -33 -50 -64 -50 -69 0 -5 -19 -29 -42 -54 -24 -25 -74 -81
-112 -124 -38 -44 -76 -84 -84 -89 -9 -5 -86 -11 -171 -13 -198 -5 -211 -7
-236 -43 -64 -92 -167 -219 -190 -234 -22 -14 -26 -24 -23 -54 3 -34 5 -37 31
-34 51 5 44 -24 -22 -93 -33 -35 -61 -70 -61 -78 0 -31 70 -56 168 -59 37 -2
40 -11 11 -41 -11 -12 -72 -90 -134 -172 -63 -83 -138 -172 -167 -199 -126
-114 -327 -204 -477 -214 -78 -5 -91 1 -91 44 0 20 59 117 85 139 7 6 34 39
60 75 77 103 186 239 194 242 4 2 42 48 83 103 42 55 106 134 143 175 37 41
74 85 82 97 8 12 30 38 49 58 25 27 34 45 34 71 0 27 -4 34 -19 34 -11 0 -23
4 -26 10 -3 6 -31 10 -61 10 -46 0 -54 3 -54 18 0 11 9 27 19 36 28 25 32 53
11 79 -18 22 -20 22 -352 25 -183 2 -352 1 -376 -3 -43 -6 -75 -33 -166 -140
l-26 -30 -17 22 c-15 17 -33 23 -95 28 l-78 7 3 46 c2 42 0 46 -27 53 -16 4
-124 8 -240 9 -116 0 -238 4 -271 8 -33 4 -86 5 -117 2 -70 -6 -93 -26 -157
-133 -95 -160 -88 -142 -67 -177 18 -31 18 -32 -5 -58 -13 -15 -37 -38 -53
-53 -42 -38 -33 -62 28 -71 26 -4 50 -9 53 -12 3 -3 -5 -20 -18 -38 -24 -34
-26 -37 -106 -129 -26 -30 -66 -79 -88 -108 -22 -30 -53 -66 -69 -80 -16 -14
-53 -52 -84 -84 -30 -31 -76 -70 -101 -87 -25 -16 -57 -38 -71 -48 -76 -56
-123 -82 -190 -105 -41 -14 -91 -32 -110 -40 -73 -31 -237 -50 -365 -44 -140
7 -187 15 -182 31 2 6 48 17 103 24 199 25 347 72 547 174 131 66 182 103 333
241 35 31 68 57 74 57 12 0 74 95 85 130 4 14 17 39 29 55 46 62 57 102 55
181 -2 42 -8 82 -14 89 -5 7 -32 29 -58 49 -40 30 -57 36 -96 36 -45 0 -50 3
-76 41 -44 63 -125 131 -198 166 -87 43 -191 54 -402 43 -188 -9 -305 -33
-442 -90 -52 -22 -101 -40 -109 -40 -7 0 -18 -9 -24 -19 -5 -11 -25 -24 -44
-31 -19 -6 -40 -18 -47 -26 -7 -8 -28 -21 -46 -29 -69 -29 -343 -307 -385
-390 -9 -16 -36 -69 -60 -116 -25 -47 -61 -132 -81 -190 -25 -71 -44 -110 -61
-123 -39 -30 -50 -13 -42 63 16 158 18 263 7 395 -6 78 -13 166 -16 196 -7 93
-52 355 -64 379 -5 9 -12 36 -16 61 -8 47 -29 120 -45 155 -6 11 -16 46 -24
77 -8 32 -28 86 -44 120 -17 35 -33 74 -37 88 -10 32 -82 179 -120 245 -29 49
-73 110 -108 150 -10 11 -27 36 -37 55 -40 77 -296 362 -402 448 -15 12 -25
27 -22 35 3 8 -9 18 -31 27 -19 7 -35 17 -35 21 0 4 -10 11 -21 14 -27 9 -161
94 -171 109 -17 25 -4 48 80 136 48 51 89 98 92 105 6 16 67 94 133 172 26 31
47 60 47 64 0 5 15 24 33 42 34 36 117 137 155 190 24 34 118 147 188 226 22
25 51 62 64 81 26 37 110 141 197 244 29 33 64 77 77 97 14 20 66 82 115 138
50 55 91 104 91 109 0 4 12 21 28 38 24 27 215 258 312 378 44 54 152 188 162
201 4 6 36 44 70 85 35 42 79 95 98 119 19 24 63 77 98 117 34 40 62 75 62 79
0 6 33 45 157 188 13 15 53 65 88 110 89 113 221 274 273 333 24 27 60 72 80
100 20 28 60 77 87 109 28 32 63 73 79 91 15 19 33 34 40 34 6 0 35 -35 64
-78z m1565 -5486 c34 -8 34 -15 -3 -61 -61 -77 -47 -105 52 -105 43 0 60 -4
64 -15 8 -20 -81 -124 -206 -242 -89 -83 -134 -119 -286 -228 -64 -45 -180
-105 -205 -105 -10 0 -28 -5 -38 -12 -27 -17 -51 -4 -43 24 5 22 40 88 52 98
3 3 18 25 35 50 16 25 37 54 47 65 40 44 205 249 233 288 16 23 65 85 108 137
43 52 88 107 100 122 21 25 23 25 42 8 11 -9 32 -20 48 -24z"/>
<path d="M6501 8394 c-26 -30 27 -46 63 -19 23 18 19 23 -20 30 -19 4 -34 0
-43 -11z"/>
<path d="M3915 8190 c-16 -4 -58 -8 -93 -9 -99 -2 -520 -101 -574 -134 -13 -8
-38 -18 -57 -22 -29 -6 -66 -20 -146 -55 -114 -50 -162 -73 -170 -83 -11 -14
-97 -57 -112 -57 -6 0 -16 -6 -22 -14 -7 -8 -26 -21 -44 -30 -18 -9 -52 -32
-77 -51 -25 -19 -61 -46 -81 -59 -63 -42 -172 -138 -257 -226 -214 -219 -230
-238 -307 -346 -11 -15 -32 -42 -46 -59 -26 -30 -53 -75 -65 -107 -3 -10 -10
-18 -14 -18 -4 0 -20 -26 -36 -57 -16 -32 -43 -81 -61 -110 -18 -29 -33 -56
-33 -60 0 -5 -9 -25 -20 -46 -11 -20 -21 -45 -23 -55 -2 -9 -14 -42 -29 -72
-14 -30 -34 -80 -43 -110 -10 -30 -21 -64 -25 -75 -86 -238 -123 -555 -89
-760 11 -63 11 -80 0 -97 -11 -18 -11 -23 1 -32 8 -6 18 -21 22 -34 4 -12 12
-22 17 -22 5 0 9 -9 9 -20 0 -11 34 -87 75 -168 41 -82 75 -152 75 -158 0 -5
12 -18 28 -28 28 -20 86 -93 104 -131 6 -13 22 -26 37 -29 14 -3 46 -24 70
-47 133 -124 347 -220 621 -277 148 -30 416 -1 584 65 33 13 65 23 71 23 14 0
188 97 245 136 59 42 113 95 180 179 30 37 63 76 73 87 9 10 17 23 17 28 0 6
4 10 8 10 5 0 23 19 40 43 17 23 45 57 62 76 16 18 30 36 30 40 0 3 17 25 38
47 56 62 123 143 153 183 15 20 35 45 46 56 10 11 54 67 98 125 43 58 110 141
149 186 39 44 99 114 133 155 33 41 70 83 80 94 10 11 69 81 130 155 62 74
124 149 138 165 14 17 58 68 97 115 39 47 85 99 101 115 17 17 37 42 46 56 9
14 37 50 63 80 26 30 59 71 75 91 15 20 66 81 113 135 47 54 121 143 164 198
43 55 87 109 97 120 11 11 43 49 71 85 29 36 55 67 58 70 43 41 80 95 80 115
0 14 -3 25 -7 25 -5 0 -35 25 -68 56 -33 30 -71 63 -85 72 -14 9 -41 29 -61
45 -71 55 -329 197 -359 197 -5 0 -24 9 -43 20 -106 63 -460 169 -637 191 -36
4 -94 13 -130 18 -74 12 -440 13 -485 1z m474 -326 c30 -9 62 -13 72 -11 23 6
105 -10 147 -29 18 -8 37 -12 42 -9 12 7 236 -55 300 -83 25 -11 54 -29 64
-41 12 -13 31 -21 53 -21 38 0 142 -45 209 -90 25 -16 49 -30 55 -30 5 0 9 -4
9 -8 0 -5 12 -15 28 -23 15 -8 29 -16 32 -20 11 -12 106 -72 127 -80 40 -15
38 -36 -8 -92 -24 -29 -47 -53 -51 -55 -5 -2 -8 -8 -8 -14 0 -10 -26 -43 -145
-181 -39 -45 -88 -104 -110 -132 -21 -27 -58 -68 -81 -90 -23 -22 -53 -57 -67
-77 -13 -20 -43 -58 -65 -85 -66 -77 -125 -148 -152 -183 -29 -38 -96 -117
-114 -135 -6 -7 -28 -32 -47 -55 -18 -24 -50 -62 -70 -84 -19 -23 -51 -61 -69
-86 -19 -25 -44 -55 -55 -67 -11 -11 -37 -41 -57 -65 -20 -23 -58 -65 -83 -93
-25 -27 -45 -52 -45 -55 0 -4 -26 -34 -57 -67 -72 -76 -105 -116 -163 -200
-21 -30 -242 -293 -371 -442 -35 -40 -84 -99 -107 -130 -24 -31 -53 -66 -64
-77 -10 -12 -27 -35 -36 -51 -27 -48 -54 -77 -102 -109 -203 -137 -455 -214
-701 -214 -116 0 -117 0 -309 88 -107 49 -301 214 -381 324 -27 37 -49 72 -49
78 0 5 -4 10 -10 10 -5 0 -10 6 -10 14 0 7 -9 25 -20 39 -11 14 -20 30 -20 36
0 6 -9 33 -21 59 -41 94 -46 108 -68 207 -13 55 -28 117 -33 137 -16 57 -1
347 22 428 34 118 44 155 46 171 0 8 11 47 24 85 12 38 23 74 25 79 5 23 19
51 32 66 8 9 13 20 12 25 -4 15 97 224 161 334 99 168 318 426 471 552 24 20
62 53 83 72 22 20 44 36 50 36 6 0 23 11 38 25 32 29 147 105 160 105 5 0 24
11 42 25 18 14 40 25 49 25 9 0 19 5 22 10 4 6 28 20 53 32 26 12 53 26 60 31
7 6 39 19 70 29 31 10 77 27 102 37 61 26 285 91 313 91 13 0 27 4 32 9 10 9
218 38 315 45 112 7 375 -5 429 -20z"/>
<path d="M6008 7308 c-22 -24 -59 -68 -81 -98 -23 -30 -57 -72 -77 -93 -19
-21 -39 -46 -44 -54 -8 -14 -32 -45 -61 -77 -6 -6 -39 -45 -75 -86 -36 -41
-68 -77 -71 -80 -3 -3 -23 -27 -44 -55 -20 -27 -48 -61 -61 -75 -27 -29 -149
-179 -179 -220 -22 -30 -74 -92 -145 -174 -25 -28 -68 -78 -95 -111 -28 -33
-56 -66 -63 -75 -7 -8 -29 -35 -48 -60 -20 -25 -53 -65 -75 -90 -21 -25 -90
-106 -151 -181 -322 -388 -407 -487 -440 -511 -16 -10 -28 -26 -28 -34 0 -19
-43 -72 -144 -178 -42 -44 -76 -86 -76 -93 0 -8 -7 -16 -15 -19 -13 -5 -59
-70 -93 -131 -7 -12 -17 -23 -22 -23 -5 0 -30 -28 -56 -62 -26 -35 -68 -86
-93 -114 -25 -28 -129 -154 -229 -282 -101 -127 -191 -237 -199 -244 -9 -7
-41 -44 -71 -83 -30 -38 -69 -84 -86 -101 -17 -18 -38 -40 -46 -50 -8 -11 -28
-26 -44 -34 -16 -8 -38 -30 -49 -48 -10 -17 -23 -32 -28 -32 -5 0 -12 -18 -15
-39 -3 -22 -16 -48 -28 -59 -11 -10 -59 -65 -106 -122 -47 -56 -107 -128 -133
-159 -26 -31 -51 -60 -55 -66 -4 -5 -36 -46 -72 -90 -36 -44 -69 -86 -75 -94
-5 -7 -21 -25 -35 -40 -14 -14 -34 -39 -44 -56 -11 -16 -43 -55 -71 -85 -28
-30 -77 -89 -110 -130 -32 -41 -68 -85 -79 -96 -52 -54 -84 -91 -102 -119 -10
-16 -46 -66 -80 -110 -33 -44 -63 -87 -67 -96 -3 -10 -23 -27 -45 -39 -21 -12
-51 -41 -65 -63 -27 -42 -60 -82 -152 -180 -27 -30 -81 -94 -120 -142 -38 -48
-85 -103 -102 -124 -18 -20 -33 -39 -33 -42 0 -4 -27 -35 -60 -69 -33 -34 -60
-66 -60 -70 0 -4 9 -15 19 -25 14 -12 41 -18 93 -21 339 -18 507 -26 793 -38
385 -16 333 -14 515 -20 80 -2 267 -9 415 -14 278 -11 456 -10 605 3 131 10
417 55 500 77 41 11 93 24 115 29 72 14 281 77 313 93 17 9 36 16 42 16 22 0
211 79 379 157 64 29 216 116 331 188 19 12 53 33 75 46 79 47 370 286 479
395 135 135 404 461 424 514 5 15 61 90 73 100 3 3 21 32 38 65 17 33 38 65
45 70 17 13 192 360 246 489 41 94 100 264 104 296 1 9 4 20 8 25 3 6 15 44
27 85 12 41 28 98 36 125 8 28 17 66 20 85 8 54 25 141 35 180 47 184 35 795
-20 1030 -6 25 -14 68 -19 95 -12 71 -62 258 -71 270 -4 6 -13 30 -20 55 -7
25 -21 63 -31 84 -10 22 -19 47 -19 56 0 20 -96 236 -120 270 -9 14 -21 36
-25 50 -16 52 -84 175 -130 235 -9 11 -21 36 -27 57 -6 21 -40 69 -82 115 -39
43 -82 94 -95 113 -14 19 -36 46 -50 60 -14 14 -55 59 -91 99 -36 40 -83 93
-105 117 -22 24 -46 51 -53 59 -19 23 -29 19 -74 -27z m185 -359 c40 -22 81
-49 93 -60 11 -10 25 -19 31 -19 14 0 149 -108 190 -151 77 -83 312 -543 289
-567 -3 -3 1 -16 9 -29 19 -28 85 -230 85 -258 0 -12 9 -38 20 -60 11 -22 20
-51 20 -66 0 -15 6 -45 14 -67 8 -23 19 -76 25 -119 6 -43 18 -133 27 -200 16
-121 16 -122 -5 -144 l-21 -23 20 -18 c18 -17 20 -31 20 -136 -1 -168 -19
-360 -35 -393 -8 -15 -12 -34 -9 -43 14 -37 -58 -372 -106 -491 -12 -29 -40
-126 -40 -137 0 -10 -150 -332 -209 -448 -69 -137 -120 -228 -151 -272 -35
-49 -50 -72 -98 -148 -20 -30 -56 -80 -81 -109 -25 -30 -51 -65 -58 -78 -18
-36 -105 -132 -243 -272 -173 -176 -269 -262 -357 -321 -12 -8 -64 -47 -115
-86 -51 -39 -108 -79 -127 -89 -19 -9 -65 -37 -103 -61 -114 -73 -400 -214
-563 -277 -133 -51 -367 -119 -520 -150 -172 -36 -496 -72 -625 -71 -30 0
-143 5 -250 12 -183 10 -287 14 -785 27 -435 11 -820 28 -829 36 -5 5 -3 18 6
31 16 24 159 201 203 252 14 16 25 31 25 35 0 4 37 49 83 100 45 52 91 105
101 120 11 14 36 44 56 66 20 22 55 65 77 95 23 30 50 64 60 75 19 22 98 117
123 149 8 11 31 38 50 60 20 23 49 59 65 81 16 22 38 49 48 60 10 11 25 32 33
47 8 15 20 31 27 35 15 9 91 101 197 238 41 53 79 100 85 103 6 4 24 25 40 47
28 38 54 71 130 160 19 22 63 74 97 116 102 123 161 192 191 221 15 15 27 32
27 38 0 6 15 25 33 43 18 17 43 48 56 67 13 19 34 45 45 57 12 12 26 28 31 35
6 8 28 36 50 63 22 28 54 68 70 90 16 22 64 79 105 126 101 116 153 179 165
200 18 29 129 162 178 214 27 27 53 57 58 66 4 9 34 48 66 86 32 39 94 114
138 168 44 54 105 125 135 157 30 32 64 74 75 92 11 19 54 73 95 120 98 113
166 194 193 230 12 16 38 48 58 70 20 23 56 64 81 91 24 28 60 70 79 95 30 40
145 178 262 314 23 27 54 66 69 87 16 22 37 44 48 51 11 7 20 16 20 20 0 8
135 173 199 243 20 22 59 69 87 105 28 36 74 90 103 120 29 30 78 85 108 123
29 37 61 67 69 67 8 0 47 -18 87 -41z"/>
<path d="M13272 5940 c-20 -19 -120 -139 -151 -181 -11 -15 -11 -22 -1 -34 11
-13 38 -15 176 -11 89 2 168 7 173 11 17 10 13 51 -6 66 -20 17 -93 112 -111
145 -16 30 -50 31 -80 4z"/>
<path d="M8994 5510 c-138 -12 -164 -17 -256 -48 -109 -38 -185 -78 -273 -145
-77 -58 -218 -220 -213 -245 2 -8 16 -24 31 -36 38 -28 132 -35 310 -24 145 9
229 30 388 98 129 55 299 223 299 295 -1 59 -36 80 -180 109 -8 2 -56 0 -106
-4z"/>
<path d="M12837 5418 c-17 -9 -176 -190 -190 -216 -23 -41 -73 -108 -147 -197
-42 -49 -101 -122 -133 -162 -31 -39 -81 -98 -110 -130 -69 -75 -92 -120 -74
-142 8 -9 17 -24 20 -33 7 -21 79 -58 115 -60 15 -1 60 2 100 7 61 6 72 5 72
-7 0 -20 -31 -59 -91 -115 -132 -124 -213 -160 -399 -177 -112 -11 -116 -11
-160 12 -68 36 -91 63 -97 113 -8 66 -25 74 -87 40 -28 -15 -63 -35 -77 -44
-27 -18 -141 -60 -214 -79 -22 -6 -62 -17 -89 -25 -30 -9 -111 -16 -201 -19
-151 -5 -152 -5 -236 27 -46 18 -100 44 -120 58 -41 30 -103 100 -125 143 -11
20 -22 28 -42 28 -35 0 -44 -6 -163 -106 -27 -22 -95 -61 -151 -86 -88 -40
-118 -48 -203 -56 -59 -6 -125 -6 -161 -1 -116 16 -247 79 -322 155 -29 30
-56 54 -61 54 -17 0 -151 -63 -151 -71 0 -5 -8 -9 -17 -9 -10 0 -49 -12 -88
-26 -136 -50 -242 -69 -475 -83 -196 -13 -459 35 -638 115 -29 13 -57 24 -63
24 -14 0 -181 100 -236 141 l-42 32 -80 -42 c-44 -22 -84 -41 -90 -41 -10 0
-196 -78 -265 -111 -22 -10 -45 -19 -51 -19 -7 0 -20 -9 -30 -20 -12 -13 -25
-18 -41 -14 -19 5 -26 1 -34 -22 -11 -28 -1 -44 28 -44 15 0 8 -48 -13 -90 -7
-14 -23 -63 -35 -110 -28 -104 -66 -188 -88 -192 -9 -2 -17 -14 -17 -28 -3
-78 -7 -92 -25 -107 -11 -10 -20 -29 -20 -43 0 -14 -7 -36 -16 -48 -8 -12 -12
-26 -9 -32 3 -5 1 -17 -4 -27 -6 -10 -41 -81 -79 -158 -38 -77 -87 -167 -109
-200 -57 -88 -80 -125 -103 -170 -11 -22 -39 -66 -63 -97 -64 -86 -180 -237
-224 -290 -21 -26 -51 -64 -68 -85 -88 -111 -547 -533 -579 -533 -3 0 -33 -21
-67 -48 -99 -77 -190 -140 -249 -170 -30 -16 -95 -52 -144 -80 -49 -29 -91
-52 -94 -52 -3 0 -46 -20 -96 -44 -50 -25 -108 -51 -128 -60 -27 -11 -36 -19
-32 -30 3 -9 11 -16 18 -17 6 0 22 -2 36 -3 48 -5 316 -16 555 -22 132 -3 257
-8 277 -9 20 -2 166 -6 325 -9 1028 -22 1352 -30 1838 -47 160 -5 396 -12 525
-15 129 -3 287 -7 350 -9 63 -2 219 -6 345 -9 249 -6 420 -11 845 -26 151 -6
295 -11 320 -11 40 -1 613 -20 985 -33 77 -3 273 -8 435 -11 162 -3 338 -7
390 -10 52 -3 266 -10 475 -15 209 -6 441 -12 515 -15 74 -2 277 -7 450 -10
173 -3 428 -10 565 -15 138 -5 399 -12 580 -15 317 -5 550 -11 830 -20 72 -2
249 -6 395 -9 146 -3 357 -9 470 -12 113 -3 256 -7 318 -9 62 -2 126 -9 142
-15 25 -10 34 -10 55 4 24 16 34 36 17 36 -11 0 -99 111 -133 168 -14 24 -43
61 -64 84 -21 22 -47 56 -57 75 -11 19 -37 57 -59 85 -21 27 -39 54 -39 59 0
5 -18 28 -40 52 -66 69 -170 199 -198 248 -28 48 -85 121 -114 148 -10 8 -18
21 -18 27 0 6 -9 21 -20 34 -11 13 -20 26 -20 29 0 3 -19 26 -43 51 -23 25
-54 63 -70 85 -70 101 -109 151 -151 194 -25 26 -46 52 -46 58 0 6 -7 17 -16
24 -9 7 -20 24 -25 36 -11 29 -35 39 -54 23 -21 -17 -19 -33 9 -63 14 -15 27
-35 30 -45 4 -10 14 -27 24 -38 9 -10 43 -54 75 -97 31 -42 62 -77 67 -77 6 0
10 -6 10 -12 0 -7 27 -44 60 -83 33 -38 60 -75 60 -82 0 -7 10 -23 23 -36 29
-31 71 -84 100 -124 12 -18 55 -76 96 -130 41 -54 91 -120 112 -148 21 -27 46
-59 56 -70 10 -11 31 -40 47 -65 32 -49 109 -148 150 -193 14 -16 26 -32 26
-37 0 -5 6 -13 13 -17 16 -10 67 -89 67 -104 0 -10 -665 -6 -980 6 -63 3 -329
9 -590 14 -261 6 -560 13 -665 16 -104 3 -316 7 -470 10 -154 3 -345 8 -425
11 -80 3 -221 7 -315 9 -590 12 -763 16 -865 20 -191 9 -393 14 -865 25 -247
5 -488 12 -535 15 -47 2 -177 7 -290 10 -113 3 -338 10 -500 15 -162 6 -371
12 -465 15 -93 2 -231 7 -305 9 -74 3 -234 8 -355 12 -121 3 -258 7 -305 9
-47 2 -238 7 -425 10 -187 4 -346 8 -354 11 -13 4 -478 15 -1206 29 -417 8
-1007 24 -1148 31 -81 4 -117 10 -114 18 4 13 56 50 152 108 85 51 112 71 173
123 26 23 61 49 77 60 17 10 39 26 50 36 78 68 154 137 175 159 14 14 43 41
65 59 37 32 208 217 251 271 10 13 49 56 87 95 37 39 67 75 67 80 0 5 21 36
46 69 48 64 117 168 146 219 9 16 28 41 41 56 14 14 34 47 45 74 12 26 28 54
37 63 8 8 18 27 22 42 3 15 9 29 13 32 8 5 51 89 123 240 102 214 157 344 157
369 0 10 4 21 8 27 11 12 58 149 67 194 7 39 42 145 55 170 5 9 48 35 97 58
48 24 115 56 149 72 34 17 67 30 75 30 8 0 49 -25 92 -55 42 -30 82 -55 87
-55 5 0 35 -12 67 -26 186 -83 363 -128 544 -139 42 -2 80 -5 85 -6 8 -3 175
8 264 16 119 11 248 46 398 106 30 13 37 12 70 -9 20 -13 57 -32 82 -43 25
-11 57 -27 71 -34 84 -46 318 -67 445 -41 43 9 87 22 99 29 11 8 49 24 85 37
36 13 102 46 148 72 46 26 86 48 88 48 3 0 18 10 34 21 33 25 56 20 69 -14 13
-33 116 -123 175 -154 27 -14 74 -29 105 -33 31 -5 82 -14 114 -19 32 -6 63
-8 70 -6 7 3 57 11 112 19 120 16 282 64 376 112 l69 34 43 -39 c53 -49 170
-104 258 -121 50 -10 82 -10 140 -2 71 11 109 23 244 79 33 14 66 27 73 30 17
7 16 -28 -2 -53 -22 -32 -9 -71 28 -83 139 -44 362 -33 591 30 195 53 419 75
545 53 63 -11 196 -40 275 -61 11 -3 63 -12 115 -20 98 -15 284 -11 345 7 17
5 79 24 139 42 74 22 128 45 171 74 34 23 71 47 83 53 22 12 52 5 52 -11 0 -5
13 -26 30 -46 63 -78 102 -129 152 -197 20 -27 50 -63 67 -79 17 -17 31 -33
31 -36 0 -16 107 -170 160 -230 31 -36 69 -83 83 -106 14 -22 38 -54 54 -71
15 -17 44 -52 63 -78 59 -81 146 -188 181 -225 19 -19 40 -47 46 -62 7 -16 16
-28 21 -28 5 0 19 -9 31 -20 18 -15 26 -16 36 -7 10 9 9 14 -4 24 -9 6 -13 15
-9 18 6 6 -20 44 -80 115 -7 8 -52 67 -99 130 -47 63 -96 125 -109 136 -12 12
-21 24 -18 27 3 2 -8 17 -23 33 -15 16 -39 46 -53 66 -14 21 -28 38 -32 38 -4
0 -14 15 -23 34 -9 18 -36 58 -60 87 -25 30 -55 67 -67 82 -13 15 -31 36 -40
47 -9 10 -24 33 -33 49 -8 17 -20 31 -25 31 -6 0 -10 4 -10 10 0 12 -90 132
-107 143 -7 4 -24 28 -39 52 -14 25 -31 48 -38 53 -7 4 -23 23 -36 42 -28 41
-26 37 -86 113 -26 31 -53 57 -61 57 -18 0 -43 -13 -109 -56 -28 -19 -78 -43
-110 -54 -33 -11 -72 -27 -89 -34 -77 -37 -408 -35 -489 3 -163 76 -417 109
-608 80 -134 -21 -282 -50 -348 -69 -106 -30 -192 -41 -244 -31 -26 5 -49 11
-53 14 -9 9 20 41 258 288 338 351 376 392 381 414 9 36 -16 46 -117 46 -52 1
-98 5 -101 10 -3 6 3 22 13 36 75 107 161 210 180 217 22 9 240 9 298 1 l47
-8 98 101 c115 117 124 134 81 156 -25 13 -94 16 -446 18 -229 2 -422 0 -428
-4z m230 -260 c16 -13 1 -44 -34 -71 -13 -10 -30 -32 -39 -48 -8 -17 -39 -59
-69 -94 -57 -67 -66 -89 -40 -99 8 -3 15 -13 15 -23 0 -18 -64 -85 -108 -113
-19 -13 -22 -20 -16 -48 5 -26 11 -33 28 -31 62 4 116 -2 116 -14 0 -19 -227
-247 -246 -247 -5 0 -9 17 -9 38 -1 64 -33 148 -61 161 -14 6 -31 11 -38 11
-8 0 -19 6 -25 14 -10 11 -5 22 21 53 18 21 35 40 38 43 22 22 156 189 195
244 80 110 184 224 208 228 39 6 52 5 64 -4z"/>
<path d="M13867 5092 c-118 -112 -148 -145 -175 -187 -14 -22 -83 -97 -154
-167 -146 -144 -200 -206 -195 -221 2 -7 46 -11 118 -12 194 -2 203 -3 245
-31 23 -16 62 -30 94 -35 30 -4 89 -15 130 -23 175 -37 372 2 468 93 33 30 33
33 18 54 -9 12 -23 37 -32 55 -8 18 -21 35 -29 39 -8 3 -15 11 -15 18 0 7 -16
26 -35 42 -19 17 -35 35 -35 41 0 6 -12 24 -26 39 -15 15 -38 45 -52 66 -13
20 -29 37 -33 37 -5 0 -9 5 -9 12 0 6 -22 37 -48 67 -27 31 -66 81 -88 111
-39 55 -52 70 -67 70 -4 0 -40 -31 -80 -68z m257 -234 c15 -18 40 -51 56 -73
16 -22 59 -78 94 -125 36 -47 66 -94 66 -105 0 -13 -15 -28 -43 -44 -36 -20
-60 -24 -170 -29 -133 -5 -130 -5 -305 46 -74 21 -73 22 68 176 116 127 177
186 192 186 8 0 27 -15 42 -32z"/>
<path d="M15695 2860 c-3 -5 -2 -10 4 -10 6 0 19 -9 30 -21 23 -25 38 -9 19
21 -14 21 -43 27 -53 10z"/>
<path d="M15757 2793 c-14 -13 -6 -30 18 -41 34 -15 35 -15 35 6 0 31 -35 54
-53 35z"/>
<path d="M17282 953 c-17 -7 -5 -23 19 -23 10 0 19 7 19 15 0 15 -14 18 -38 8z"/>
<path d="M12247 8659 c-9 -12 -13 -28 -10 -35 7 -19 43 -39 43 -24 0 6 4 9 9
6 14 -9 33 21 29 46 -4 32 -50 37 -71 7z"/>
</g>

</g>
</svg>
