<?xml version="1.0" standalone="no"?>
<!DOCTYPE svg PUBLIC "-//W3C//DTD SVG 20010904//EN"
 "http://www.w3.org/TR/2001/REC-SVG-20010904/DTD/svg10.dtd">
<svg version="1.0" xmlns="http://www.w3.org/2000/svg"
 width="1081.8713pt" height="994.4382pt" viewBox="0 0 1081.8713 994.4382"
 preserveAspectRatio="xMidYMid meet">
<g transform="translate(8.4357,9.2191) rotate(1.0000,532.5000,488.0000)">
<metadata>
Created by potrace 1.16, written by Peter Selinger 2001-2019
</metadata>
<g transform="translate(0.000000,976.000000) scale(0.100000,-0.100000)"
fill="#000000" stroke="none">
<path d="M5122 9451 c-69 -7 -86 -20 -77 -61 6 -24 12 -188 35 -870 13 -413
39 -1001 44 -1009 5 -7 12 -261 26 -921 5 -261 12 -504 15 -540 19 -237 26
-384 40 -765 8 -236 22 -572 30 -745 8 -173 18 -430 21 -570 8 -312 4 -303
123 -294 42 4 82 12 90 19 12 11 12 56 2 292 -6 153 -16 388 -21 523 -5 135
-14 344 -20 465 -6 121 -17 391 -25 600 -9 209 -22 533 -30 720 -8 187 -17
412 -20 500 -3 88 -12 324 -20 525 -8 201 -19 527 -25 725 -6 198 -15 430 -20
515 -5 85 -12 316 -16 513 -7 388 -7 389 -62 385 -15 0 -55 -4 -90 -7z"/>
<path d="M6898 9102 c-12 -15 -95 -138 -183 -272 -226 -345 -516 -784 -565
-855 -23 -33 -118 -177 -213 -321 -95 -143 -187 -279 -205 -301 -60 -76 -62
-88 -52 -304 5 -107 14 -333 20 -504 6 -170 15 -384 20 -475 6 -91 15 -320 20
-510 5 -190 14 -439 20 -555 13 -287 33 -758 35 -825 16 -593 18 -635 33 -652
8 -10 19 -18 24 -18 4 0 110 101 236 223 125 123 280 273 344 333 64 60 228
217 365 349 136 132 270 259 296 281 58 49 81 104 72 178 -5 48 -12 218 -35
846 -20 557 -40 1044 -50 1270 -6 129 -17 395 -26 590 -37 912 -45 1090 -57
1297 -13 227 -19 253 -57 253 -10 0 -29 -13 -42 -28z m-79 -496 c20 -24 35
-291 66 -1136 8 -223 22 -576 31 -785 32 -790 60 -1749 51 -1796 -9 -43 -50
-109 -104 -164 -57 -59 -411 -395 -463 -441 -25 -21 -101 -93 -170 -159 -69
-66 -142 -129 -163 -140 -35 -18 -38 -19 -54 -2 -15 14 -18 48 -25 225 -8 242
-24 621 -38 947 -6 127 -15 347 -20 490 -16 434 -30 734 -40 860 -13 158 -25
680 -16 726 6 35 131 240 284 467 70 102 315 473 505 762 91 139 108 160 127
160 10 0 23 -6 29 -14z"/>
<path d="M3386 9054 c-20 -19 -22 -157 -6 -399 9 -144 20 -434 50 -1310 5
-154 12 -307 15 -340 3 -33 10 -204 15 -380 23 -792 66 -1872 76 -1907 3 -9
44 -48 92 -85 48 -37 151 -121 230 -188 79 -66 164 -137 190 -158 140 -115
366 -302 449 -372 52 -44 127 -108 168 -141 41 -34 113 -96 160 -138 101 -90
127 -105 151 -85 13 11 15 28 11 98 -2 48 -12 246 -20 441 -15 330 -22 495
-47 1065 -6 121 -17 407 -25 635 -18 520 -33 882 -45 1120 -6 102 -10 223 -10
268 0 57 -5 93 -16 115 -18 36 -98 142 -219 292 -44 55 -103 129 -130 165 -27
36 -66 85 -86 110 -98 118 -530 660 -574 719 -27 37 -75 98 -106 137 -30 38
-102 129 -158 202 -90 115 -125 152 -145 152 -2 0 -12 -7 -20 -16z m250 -572
c7 -4 60 -68 119 -142 59 -74 171 -215 248 -314 78 -98 171 -213 207 -255 36
-42 76 -92 89 -111 14 -19 50 -65 80 -101 160 -191 246 -315 260 -376 13 -56
31 -422 76 -1548 8 -203 19 -476 25 -605 10 -219 24 -553 36 -888 6 -144 1
-172 -31 -172 -22 0 -269 189 -404 309 -46 42 -110 96 -141 121 -122 96 -426
363 -446 391 -12 17 -24 47 -27 67 -6 32 -33 722 -67 1642 -6 162 -15 408 -20
545 -6 138 -15 358 -20 490 -29 711 -33 924 -20 940 14 17 20 18 36 7z"/>
<path d="M8527 8008 c-182 -130 -362 -262 -725 -529 -123 -90 -271 -199 -330
-241 -84 -60 -109 -84 -118 -110 -11 -36 -9 -121 25 -858 56 -1214 68 -1627
52 -1660 -13 -26 -123 -135 -506 -502 -121 -116 -223 -217 -228 -224 -4 -7 -3
-111 3 -231 19 -418 31 -818 25 -851 -7 -38 7 -62 37 -62 10 0 45 13 77 29 50
26 232 107 471 211 41 18 114 52 161 76 47 23 153 72 235 107 82 36 221 99
309 140 195 91 376 175 510 234 157 70 263 123 277 140 10 12 12 60 10 197 -2
163 -8 317 -42 1111 -15 336 -27 652 -40 980 -11 290 -42 967 -60 1335 -5 107
-14 303 -20 435 -12 266 -19 305 -55 305 -12 0 -43 -15 -68 -32z m-64 -322
c10 -10 16 -52 20 -138 4 -67 11 -179 16 -248 5 -69 15 -278 20 -465 6 -187
16 -401 21 -475 6 -74 12 -214 15 -310 4 -171 29 -765 40 -945 3 -49 7 -162
10 -250 15 -455 25 -745 31 -876 l7 -145 -29 -32 c-21 -24 -99 -64 -294 -153
-433 -197 -567 -258 -720 -324 -80 -34 -244 -107 -365 -162 -262 -119 -256
-117 -281 -99 -16 12 -20 32 -26 143 -18 341 -25 569 -16 593 5 15 105 118
223 230 117 112 230 223 249 246 20 24 85 87 146 140 60 53 111 103 114 111 3
8 1 69 -4 136 -6 67 -17 311 -25 542 -18 508 -31 834 -50 1265 -19 415 -19
533 -1 568 22 42 95 104 302 256 104 77 239 177 300 222 120 89 262 184 275
184 4 0 14 -6 22 -14z"/>
<path d="M1708 7913 c-13 -16 -14 -64 -7 -353 14 -623 23 -897 49 -1510 5
-118 14 -435 20 -705 5 -269 14 -560 20 -645 5 -85 14 -319 20 -520 19 -643
21 -678 42 -705 14 -18 57 -37 156 -69 182 -59 447 -152 659 -231 94 -36 286
-105 425 -154 139 -49 323 -115 408 -146 85 -31 202 -74 260 -95 58 -21 131
-48 163 -61 92 -35 89 -46 77 296 -24 730 -31 882 -41 918 -7 26 -23 47 -53
70 -70 53 -372 297 -501 406 -82 69 -125 113 -137 139 -14 31 -19 95 -27 352
-6 173 -13 344 -16 380 -3 36 -10 209 -15 385 -14 458 -39 1162 -46 1284 -6
99 -8 105 -38 137 -28 29 -206 141 -601 376 -155 92 -372 222 -493 297 -83 51
-297 171 -305 171 -2 0 -11 -8 -19 -17z m373 -405 c136 -82 227 -136 399 -236
52 -30 120 -72 150 -92 30 -20 110 -69 177 -109 67 -40 133 -85 147 -101 31
-38 34 -66 41 -415 3 -159 10 -355 16 -435 5 -80 17 -372 25 -650 14 -439 38
-1053 43 -1056 0 -1 36 -28 79 -60 42 -32 103 -82 136 -112 32 -29 89 -76 126
-105 260 -201 325 -261 339 -312 5 -22 15 -152 21 -290 6 -137 15 -307 20
-377 5 -70 7 -135 4 -143 -14 -35 -40 -36 -141 -1 -114 39 -409 145 -568 204
-385 144 -526 196 -569 209 -164 49 -445 167 -473 198 -27 31 -29 53 -43 450
-6 176 -15 419 -20 540 -10 217 -16 410 -45 1270 -21 636 -24 737 -35 1170 -6
215 -13 413 -16 442 -4 43 -2 55 15 72 12 12 25 21 30 21 5 0 69 -37 142 -82z"/>
<path d="M10005 6364 c-40 -9 -134 -13 -286 -14 -308 0 -675 -11 -690 -21 -7
-4 -16 -34 -20 -66 -7 -57 -4 -120 25 -678 18 -319 32 -633 46 -980 6 -132 15
-343 20 -470 5 -126 10 -318 10 -426 0 -173 -2 -199 -17 -217 -10 -12 -83 -51
-163 -87 -80 -37 -230 -107 -335 -155 -193 -91 -555 -256 -1085 -496 -185 -84
-303 -144 -317 -159 -25 -29 -25 -20 -2 -560 9 -218 11 -231 31 -248 19 -16
33 -18 88 -13 36 3 202 11 370 16 168 5 370 14 450 20 80 5 305 14 500 20 195
6 425 15 510 20 85 5 268 14 405 20 138 6 304 15 370 21 66 5 183 10 260 11
184 3 175 -8 170 185 -2 81 -9 254 -15 383 -17 390 -30 691 -40 970 -5 146
-14 353 -20 460 -6 107 -15 319 -20 470 -13 338 -33 786 -75 1645 -20 396 -14
385 -170 349z m-53 -211 c21 -24 26 -70 38 -333 6 -124 15 -304 20 -400 6 -96
17 -341 25 -545 8 -203 19 -458 25 -565 5 -107 14 -331 20 -497 5 -166 19
-481 29 -700 31 -622 43 -950 36 -972 -11 -37 -52 -48 -210 -55 -82 -4 -280
-14 -440 -23 -159 -8 -335 -17 -390 -19 -55 -2 -237 -9 -405 -15 -168 -7 -336
-13 -375 -14 -38 -1 -162 -7 -275 -13 -113 -5 -301 -12 -419 -14 l-214 -3 -20
27 c-19 25 -21 46 -25 223 -4 172 -3 198 13 221 20 31 164 102 545 269 205 89
445 196 625 277 110 49 241 108 290 130 50 22 143 65 208 94 65 30 148 64 183
76 95 31 96 36 84 255 -5 98 -17 336 -25 528 -8 193 -19 447 -25 565 -5 118
-17 379 -25 580 -8 201 -20 479 -26 618 l-12 253 23 24 c23 24 28 25 169 26
80 1 171 4 201 9 30 4 118 8 196 9 123 1 143 -1 156 -16z"/>
<path d="M340 6127 c-39 -10 -44 -34 -31 -147 7 -50 9 -96 5 -101 -3 -6 -1
-114 5 -242 6 -128 16 -421 21 -652 6 -231 15 -548 20 -705 6 -157 15 -474 20
-705 6 -231 15 -573 20 -760 6 -187 12 -526 14 -754 4 -365 6 -415 20 -430 20
-19 13 -19 841 -8 659 8 1314 23 1720 38 149 5 372 12 498 16 145 4 230 10
236 17 8 10 -5 724 -15 773 -4 19 -39 34 -277 112 -308 102 -656 225 -907 320
-47 18 -170 62 -275 97 -104 35 -212 73 -240 84 -27 10 -132 49 -233 86 -199
73 -232 95 -232 156 0 39 -26 703 -40 1043 -6 138 -15 401 -21 585 -34 1186
-31 1133 -64 1166 l-23 23 -516 -2 c-284 -1 -529 -5 -546 -10z m909 -195 c27
-26 28 -32 34 -162 4 -74 12 -279 17 -455 6 -176 14 -376 19 -445 4 -69 8
-143 7 -165 0 -22 5 -195 12 -385 7 -190 14 -444 17 -565 2 -121 8 -311 11
-422 8 -227 4 -216 89 -251 145 -59 249 -98 330 -122 50 -15 171 -58 270 -94
99 -37 261 -96 360 -131 99 -35 243 -87 320 -115 77 -29 232 -85 345 -125 308
-109 392 -142 412 -162 15 -16 19 -48 29 -223 l10 -205 -24 -21 c-23 -20 -39
-21 -373 -28 -192 -3 -527 -9 -744 -11 -217 -3 -688 -10 -1046 -16 -491 -9
-655 -9 -672 0 -12 6 -26 28 -31 49 -6 20 -20 359 -31 752 -11 393 -27 909
-35 1145 -8 237 -21 702 -30 1035 -9 333 -19 713 -24 845 -8 221 -8 242 9 265
17 25 19 25 206 30 104 3 256 7 337 8 l149 2 27 -28z"/>
<path d="M5145 3079 c-207 -38 -372 -102 -536 -211 -418 -277 -646 -731 -618
-1233 14 -263 108 -532 258 -740 212 -294 568 -516 931 -581 160 -29 453 -12
629 37 101 27 324 136 425 206 117 81 251 206 318 296 64 86 76 117 60 151
-14 31 -147 109 -172 101 -10 -3 -40 -36 -66 -73 -162 -231 -433 -411 -720
-478 -61 -15 -117 -19 -249 -18 -151 0 -181 3 -270 27 -240 64 -374 141 -556
318 -118 115 -203 242 -259 386 -68 174 -84 260 -84 463 0 159 3 184 27 274
104 376 352 652 717 794 274 107 657 89 925 -45 175 -88 363 -245 454 -381 59
-87 75 -93 148 -52 76 43 103 68 103 96 0 36 -130 199 -232 291 -98 89 -234
186 -328 233 -276 139 -617 192 -905 139z"/>
<path d="M5281 2640 c-153 -16 -296 -71 -442 -171 -293 -201 -436 -550 -374
-915 18 -107 45 -187 93 -274 170 -312 457 -498 798 -517 222 -12 411 39 599
162 106 69 285 265 285 311 0 8 -10 20 -22 27 -20 12 -84 12 -450 -2 -486 -18
-465 -14 -452 -96 12 -80 17 -83 195 -77 138 4 156 3 169 -13 13 -15 11 -20
-13 -41 -51 -44 -211 -68 -347 -52 -357 41 -630 357 -630 728 0 128 21 217 74
325 118 239 362 388 631 387 216 -1 431 -101 555 -257 77 -98 93 -103 180 -49
74 46 94 67 85 93 -10 32 -194 215 -263 260 -200 134 -438 194 -671 171z"/>
<path d="M5378 2173 c-43 -52 -358 -658 -358 -690 0 -11 5 -24 12 -31 15 -15
156 -16 195 -1 15 5 53 37 83 70 53 56 58 59 103 59 57 0 98 -19 122 -57 10
-15 29 -40 43 -55 25 -27 29 -28 127 -28 110 0 135 11 135 58 0 36 -79 182
-215 402 -180 289 -207 319 -247 273z"/>
</g>

</g>
</svg>
