<?xml version="1.0" standalone="no"?>
<!DOCTYPE svg PUBLIC "-//W3C//DTD SVG 20010904//EN"
 "http://www.w3.org/TR/2001/REC-SVG-20010904/DTD/svg10.dtd">
<svg version="1.0" xmlns="http://www.w3.org/2000/svg"
 width="1419.000000pt" height="1585.000000pt" viewBox="0 0 1419.000000 1585.000000"
 preserveAspectRatio="xMidYMid meet">
<metadata>
Created by potrace 1.16, written by Peter Selinger 2001-2019
</metadata>
<g transform="translate(0.000000,1585.000000) scale(0.100000,-0.100000)"
fill="#000000" stroke="none">
<path d="M12848 15404 c-2 -2 -159 -5 -349 -8 -327 -4 -577 -11 -747 -22 -42
-2 -276 -6 -520 -8 -448 -5 -587 -9 -812 -26 -69 -5 -246 -12 -395 -15 -148
-3 -297 -8 -330 -10 -69 -5 -316 -13 -585 -20 -102 -2 -234 -7 -295 -10 -60
-3 -220 -7 -353 -10 -134 -3 -269 -8 -300 -10 -32 -3 -145 -7 -252 -10 -222
-6 -391 -13 -500 -19 -108 -7 -625 -26 -825 -31 -93 -2 -222 -6 -285 -10 -63
-3 -221 -10 -350 -16 -129 -5 -247 -11 -261 -13 -15 -2 -145 -7 -290 -10 -145
-4 -300 -9 -344 -11 -44 -3 -150 -7 -236 -10 -86 -3 -171 -10 -189 -15 -18 -5
-40 -6 -49 -1 -9 5 -49 5 -89 0 -41 -4 -117 -8 -170 -8 -181 -1 -414 -18 -421
-30 -5 -8 -16 -7 -40 5 -30 15 -121 21 -140 10 -4 -3 -142 -8 -306 -11 -164
-3 -302 -8 -308 -12 -6 -3 -89 -8 -184 -9 -96 -2 -209 -8 -252 -14 -66 -9
-483 -24 -1010 -36 -134 -3 -504 -17 -786 -30 -165 -7 -235 -19 -259 -44 -21
-20 -21 -29 -19 -408 1 -213 4 -506 7 -652 3 -146 5 -290 4 -320 -2 -73 -2
-21 7 -725 5 -341 8 -668 6 -727 -1 -58 3 -132 9 -163 9 -42 9 -59 1 -64 -8
-5 -11 -89 -12 -266 -1 -226 1 -260 15 -270 22 -17 20 -35 -5 -35 -17 0 -19
-4 -13 -22 3 -13 11 -24 15 -26 5 -2 3 -13 -5 -24 -9 -13 -12 -29 -7 -46 5
-15 6 -55 3 -90 -4 -51 -1 -66 14 -83 18 -20 18 -22 2 -33 -16 -12 -18 -55
-23 -492 -3 -263 -7 -492 -9 -508 -3 -16 -1 -39 4 -51 5 -13 5 -26 -1 -32 -5
-5 -8 -85 -8 -178 1 -94 1 -183 1 -200 0 -16 -2 -201 -6 -410 -7 -487 -8 -834
-1 -845 3 -5 0 -20 -6 -33 -9 -19 -9 -34 0 -58 7 -19 7 -36 2 -43 -5 -6 -10
-94 -10 -196 -7 -1219 -12 -1834 -17 -2075 -3 -159 -6 -307 -5 -327 1 -21 -3
-172 -9 -335 -9 -260 -8 -299 5 -309 18 -14 20 -25 3 -21 -8 1 -15 -19 -19
-58 -7 -57 -14 -295 -12 -380 1 -22 -5 -80 -12 -130 -8 -49 -17 -137 -21 -195
-8 -124 -8 -685 0 -699 3 -5 2 -20 -3 -33 -8 -22 0 -64 19 -100 7 -13 5 -18
-9 -23 -38 -12 -34 -85 5 -85 8 0 14 -9 14 -20 0 -13 -7 -20 -20 -20 -23 0
-26 -10 -8 -28 8 -8 8 -12 1 -12 -7 0 -11 -22 -10 -57 0 -32 -3 -195 -7 -363
-16 -735 -31 -1680 -30 -1860 0 -69 6 -124 13 -138 21 -39 72 -53 180 -46 53
3 458 5 901 3 726 -2 1834 -2 1885 -1 45 2 711 -8 846 -13 390 -13 531 -16
859 -20 195 -2 402 -7 460 -9 58 -3 339 -8 625 -11 286 -3 572 -8 635 -10 63
-3 189 -5 280 -5 195 -1 164 0 375 -5 94 -2 370 -6 615 -9 245 -4 486 -10 535
-15 50 -5 104 -7 120 -6 17 2 64 4 105 3 41 -1 208 -2 370 -3 506 -5 1041 -15
1050 -20 5 -3 55 -5 112 -4 120 1 92 1 338 -5 197 -4 748 -14 1115 -20 110 -2
213 1 230 5 17 5 53 5 85 -1 42 -7 957 -24 1280 -23 25 0 82 -4 128 -9 71 -8
87 -6 111 8 43 25 56 54 42 95 -7 22 -10 159 -10 387 0 236 -3 364 -11 387 -7
20 -8 41 -3 52 5 10 6 34 3 53 -3 19 -2 51 3 70 5 19 6 57 2 85 -5 41 -13 281
-13 410 0 227 -1 593 -7 1815 -3 795 -6 1454 -5 1465 5 106 -2 299 -10 315 -6
11 -7 26 -3 33 4 6 9 512 10 1122 2 611 4 1180 5 1265 2 140 2 299 -2 1065 0
162 -7 2559 -8 2920 0 11 -1 207 -2 435 -2 228 -2 429 -2 445 3 261 1 1109 -3
1116 -6 9 -7 868 -1 1156 3 149 1 177 -14 205 -24 46 -74 61 -170 53 -98 -9
-284 -10 -487 -3 -89 3 -163 4 -165 2z m341 -139 c259 -3 338 -7 348 -17 9
-10 13 -43 12 -108 -5 -1028 2 -2418 13 -2435 3 -5 2 -50 -3 -100 -7 -77 -6
-92 8 -102 14 -11 14 -15 0 -44 -8 -18 -13 -46 -10 -63 2 -17 4 -47 3 -66 -2
-44 -3 41 5 -735 4 -368 7 -710 6 -760 -3 -203 -3 -3096 1 -3290 2 -188 2
-192 0 -335 -6 -276 -6 -552 -1 -630 1 -19 1 -102 -1 -185 -2 -139 -2 -319 0
-625 0 -69 0 -181 -2 -250 -1 -69 -1 -172 0 -230 1 -58 1 -449 1 -870 0 -421
0 -774 0 -785 0 -11 2 -326 5 -700 3 -374 7 -840 10 -1035 15 -1010 16 -1254
1 -1274 -17 -22 38 -21 -695 -18 -300 2 -556 3 -570 2 -14 0 -74 3 -135 9 -63
5 -167 5 -244 1 -74 -5 -144 -5 -155 0 -36 13 -652 23 -748 11 -68 -8 -98 -7
-135 3 -27 8 -100 14 -163 15 -63 0 -317 3 -565 6 -247 2 -673 7 -945 9 -272
3 -556 7 -630 10 -261 12 -890 17 -890 8 0 -5 -25 -5 -57 -1 -72 9 -433 19
-958 25 -453 6 -964 14 -1135 18 -261 7 -499 8 -508 2 -5 -3 -34 -2 -63 4 -30
5 -164 11 -299 14 -135 3 -371 8 -525 11 -466 10 -1529 12 -1542 2 -7 -5 -16
-6 -21 -3 -5 3 -52 8 -103 11 -51 4 -99 11 -105 16 -8 7 -30 5 -66 -4 -34 -10
-80 -13 -128 -10 -153 9 -505 9 -517 0 -7 -5 -22 -5 -35 -1 -27 8 -136 12
-535 18 -166 2 -314 7 -330 10 -15 3 -41 2 -58 -2 -34 -10 -101 0 -118 17 -7
7 -13 40 -14 74 -5 167 -3 490 3 747 6 247 9 480 6 573 0 15 -1 39 -1 55 -2
54 -9 240 -16 414 -7 158 -6 180 10 210 15 28 19 65 21 247 2 118 6 221 9 229
3 8 3 48 -1 89 -5 52 -11 73 -20 73 -18 0 -18 10 0 35 20 29 27 103 32 315 2
102 11 226 19 275 15 95 13 231 -5 324 -12 66 -13 178 -1 185 5 3 10 48 11 98
0 51 3 119 5 150 2 31 0 82 -4 113 -4 30 -4 81 0 113 5 31 9 107 9 167 1 61 5
160 11 220 5 61 12 378 14 705 3 327 8 672 11 765 4 94 6 217 4 275 -2 58 -4
121 -4 140 1 19 4 285 8 590 3 305 9 715 12 910 8 418 7 319 6 875 0 248 2
698 4 1000 8 1263 8 2362 -1 2850 -11 572 -12 1148 -2 1187 6 23 13 26 74 33
38 4 122 9 188 10 66 2 191 6 278 9 87 4 224 9 305 12 81 3 188 7 237 9 155 7
625 24 730 26 55 1 114 6 130 10 38 10 209 18 875 40 190 6 404 11 475 11 72
0 184 4 250 9 66 5 183 12 260 14 77 3 174 8 215 11 41 3 86 5 100 3 35 -3 66
-2 210 5 69 4 240 11 380 16 254 9 601 26 715 35 33 3 179 7 325 9 252 4 641
19 815 32 83 6 300 12 735 19 140 2 273 7 295 10 22 3 123 7 225 10 230 6 452
14 595 20 61 3 216 7 345 10 129 3 258 7 285 10 28 4 129 8 225 10 163 4 237
7 525 21 61 3 297 7 525 9 228 2 496 9 595 15 317 18 363 20 765 25 217 4 397
8 400 11 2 3 14 2 25 -1 11 -4 170 -8 354 -10z"/>
<path d="M6867 14884 c-23 -13 -141 -25 -262 -28 -144 -4 -164 -7 -179 -21 -8
-8 -28 -15 -44 -15 -39 0 -248 -37 -264 -46 -7 -4 -30 -11 -53 -15 -54 -10
-141 -34 -190 -53 -22 -8 -52 -15 -67 -16 -15 0 -39 -5 -54 -11 -16 -5 -44
-12 -64 -14 -19 -3 -62 -13 -95 -24 -33 -11 -80 -25 -105 -31 -25 -6 -72 -20
-105 -30 -33 -10 -87 -24 -119 -30 -63 -13 -87 -23 -120 -53 -11 -10 -32 -20
-46 -23 -65 -12 -188 -57 -230 -84 -27 -17 -94 -50 -101 -50 -5 0 -30 -13 -57
-29 -27 -16 -64 -32 -83 -36 -48 -10 -231 -99 -268 -131 -18 -15 -34 -24 -38
-21 -6 6 -43 -12 -108 -54 -22 -14 -58 -32 -80 -40 -22 -7 -54 -26 -70 -41
-17 -15 -35 -28 -39 -28 -4 0 -27 -13 -50 -28 -22 -15 -48 -31 -57 -34 -8 -3
-58 -34 -110 -69 -110 -74 -114 -77 -165 -106 -22 -12 -79 -60 -129 -108 -49
-47 -108 -94 -131 -105 -38 -16 -101 -70 -121 -104 -5 -7 -24 -19 -43 -28 -38
-18 -140 -106 -280 -241 -47 -45 -111 -98 -142 -117 -41 -25 -64 -48 -83 -82
-15 -27 -29 -48 -33 -48 -16 0 -241 -238 -324 -342 -29 -37 -64 -89 -78 -115
-29 -58 -63 -103 -150 -203 -57 -66 -123 -155 -155 -208 -5 -9 -22 -33 -37
-53 -16 -20 -28 -41 -28 -47 0 -5 -7 -15 -15 -22 -9 -7 -31 -45 -49 -84 -18
-39 -46 -87 -63 -106 -34 -39 -63 -92 -63 -114 0 -8 -6 -19 -14 -23 -7 -4 -23
-28 -35 -53 -39 -80 -79 -155 -90 -167 -6 -6 -13 -24 -17 -40 -3 -15 -26 -62
-50 -104 -24 -42 -44 -78 -44 -82 0 -3 -13 -35 -30 -70 -16 -36 -30 -70 -30
-77 0 -6 -20 -52 -44 -103 -46 -95 -116 -269 -116 -287 0 -13 -48 -156 -66
-197 -8 -17 -17 -46 -20 -65 -3 -18 -9 -42 -14 -53 -19 -45 -29 -89 -36 -148
-3 -34 -17 -97 -30 -140 -13 -43 -24 -90 -24 -106 0 -15 -4 -31 -10 -37 -5 -5
-10 -41 -11 -79 -1 -39 -5 -74 -9 -80 -4 -5 -15 -57 -24 -115 -10 -58 -22
-121 -27 -141 -5 -20 -8 -54 -7 -75 0 -22 -4 -62 -10 -89 -33 -148 -45 -323
-44 -670 1 -154 1 -325 1 -380 0 -55 5 -143 11 -195 6 -52 17 -156 26 -230 8
-74 21 -166 29 -205 7 -38 19 -99 25 -135 26 -153 50 -272 71 -350 6 -25 18
-67 25 -95 26 -99 55 -201 75 -260 11 -33 25 -78 30 -100 6 -22 14 -49 19 -60
4 -11 17 -51 29 -88 12 -38 35 -97 51 -132 17 -36 30 -69 30 -74 0 -22 34
-110 75 -196 24 -49 60 -124 79 -165 20 -41 43 -86 51 -100 8 -14 27 -50 43
-80 52 -106 119 -245 131 -270 6 -14 31 -52 56 -85 25 -33 52 -74 60 -92 8
-17 20 -37 27 -45 14 -14 46 -60 64 -93 29 -53 118 -186 146 -220 42 -50 144
-180 158 -199 24 -36 145 -178 209 -246 33 -36 61 -68 61 -71 0 -4 30 -36 67
-70 37 -35 113 -109 168 -164 122 -122 206 -197 350 -312 60 -48 117 -95 126
-103 36 -34 394 -300 404 -300 4 0 28 -15 54 -33 25 -19 53 -37 61 -41 19 -9
74 -43 130 -80 23 -15 57 -33 74 -38 17 -6 45 -23 61 -39 17 -15 55 -41 85
-57 30 -16 98 -52 151 -80 53 -28 128 -63 165 -77 38 -14 87 -38 109 -54 41
-28 79 -45 126 -55 15 -3 59 -24 98 -46 39 -22 84 -40 101 -40 17 0 38 -4 48
-10 42 -23 112 -49 172 -64 80 -20 168 -46 195 -58 25 -10 106 -33 210 -59 44
-11 98 -24 120 -30 22 -6 58 -14 80 -18 22 -5 69 -16 105 -24 36 -9 76 -18 90
-21 14 -2 37 -7 51 -11 14 -3 68 -12 120 -20 52 -8 119 -19 149 -25 74 -15
182 -28 318 -40 62 -5 117 -12 122 -15 5 -3 105 -8 222 -9 117 -2 220 -7 229
-10 14 -6 15 -77 15 -664 -1 -636 0 -658 19 -697 33 -66 57 -60 144 32 74 79
243 278 316 373 46 59 131 161 172 205 15 17 63 75 107 130 45 55 96 117 116
138 19 21 39 46 44 55 5 10 12 19 16 22 3 3 32 37 64 75 32 39 67 79 77 90 10
11 37 43 59 70 22 28 58 68 79 90 21 22 49 55 61 74 13 18 37 48 54 65 18 17
51 58 75 91 51 69 145 182 174 208 22 20 117 23 208 8 138 -24 721 -40 979
-27 58 3 152 8 210 10 58 2 128 6 155 10 28 3 95 11 150 16 55 5 134 15 175
20 41 6 113 14 160 19 83 9 196 27 350 57 41 8 109 21 150 28 95 18 130 31
130 51 0 16 17 19 38 7 17 -11 166 18 264 51 42 14 104 31 139 38 41 8 72 21
92 39 28 25 29 29 19 61 -16 49 -31 199 -37 379 -9 240 -11 274 -24 443 -10
124 -10 168 -1 208 7 28 13 62 13 75 0 24 62 85 114 112 12 7 26 27 33 46 6
19 17 37 24 39 8 3 21 25 29 49 36 104 40 128 31 176 -5 26 -6 84 -1 132 5 54
4 101 -3 127 -15 61 -14 62 36 85 26 11 78 51 121 94 41 41 78 74 81 74 16 0
62 52 62 70 0 34 -21 66 -56 85 -18 10 -36 25 -39 34 -3 9 -30 31 -59 48 -40
24 -55 40 -59 62 -3 15 -20 49 -37 74 -36 53 -36 60 -10 135 34 96 181 222
260 222 17 0 38 4 48 10 9 5 58 23 107 41 50 17 94 35 100 40 5 5 16 9 25 9 9
0 33 9 54 20 22 11 60 26 86 35 111 37 123 107 42 254 -27 48 -54 101 -60 117
-6 16 -22 58 -35 94 -13 36 -38 88 -55 115 -17 28 -34 62 -37 78 -4 15 -11 30
-16 33 -5 3 -9 15 -9 28 0 12 -11 38 -25 56 -14 19 -32 56 -40 82 -7 26 -25
64 -39 85 -14 21 -26 43 -26 51 0 7 -10 29 -23 50 -13 20 -31 55 -41 77 -10
22 -34 74 -53 115 -19 41 -43 93 -53 115 -10 22 -29 63 -43 90 -14 28 -28 61
-32 75 -4 14 -19 39 -32 56 -13 17 -31 53 -40 80 -9 27 -31 74 -49 104 -17 30
-44 84 -59 120 -15 36 -44 100 -66 143 -46 91 -47 110 -22 302 10 72 17 162
16 200 -4 197 -25 456 -58 710 -3 22 -10 81 -16 130 -6 50 -17 108 -24 130
-33 98 -55 185 -55 221 0 21 -6 56 -14 79 -8 22 -19 69 -25 103 -12 63 -34
123 -57 152 -6 8 -14 41 -17 72 -3 35 -17 80 -35 115 -17 32 -35 83 -42 113
-7 30 -23 71 -37 91 -13 20 -32 58 -43 85 -30 78 -77 170 -114 222 -18 26 -37
59 -41 73 -8 28 -68 122 -101 159 -13 14 -30 43 -39 65 -9 22 -27 51 -39 65
-21 22 -43 60 -107 180 -22 40 -78 112 -96 123 -7 4 -19 20 -27 35 -8 15 -30
45 -50 67 -20 21 -36 42 -36 46 0 4 -6 14 -14 21 -7 7 -58 56 -113 108 -55 53
-108 109 -116 125 -9 17 -30 41 -46 55 -16 14 -95 88 -175 165 -80 77 -166
158 -191 180 -26 22 -59 52 -73 66 -32 30 -133 107 -172 131 -16 9 -57 37 -92
62 -34 25 -82 54 -105 65 -24 11 -43 25 -43 31 0 6 -12 15 -26 20 -15 6 -38
19 -53 29 -14 10 -63 37 -109 61 -45 23 -89 49 -97 57 -21 21 -310 163 -332
163 -10 0 -39 11 -65 25 -26 14 -52 25 -59 25 -6 0 -44 16 -85 35 -40 19 -78
35 -85 35 -6 0 -23 6 -37 14 -45 24 -105 45 -152 55 -25 6 -79 21 -120 35 -41
13 -99 29 -128 35 -29 6 -65 17 -80 25 -15 7 -71 21 -125 31 -53 10 -100 21
-103 26 -3 5 -31 9 -63 9 -32 0 -80 7 -107 15 -27 8 -77 15 -111 15 -34 0 -64
4 -67 9 -6 9 -63 19 -151 26 -27 3 -90 9 -140 15 -49 6 -148 12 -219 14 -70 2
-132 8 -137 13 -5 5 -11 135 -14 289 -2 153 -7 389 -11 524 -4 135 -8 304 -10
375 -6 224 -12 243 -84 251 -25 2 -57 6 -71 8 -15 1 -38 -3 -52 -10z m142
-1592 c11 -20 18 -230 26 -792 3 -201 8 -509 11 -685 9 -540 9 -1371 0 -1540
-6 -122 -5 -171 4 -205 12 -43 15 -181 19 -1200 1 -178 1 -1266 0 -1750 0
-129 0 -242 1 -250 4 -64 5 -2811 1 -2843 -6 -37 -9 -42 -41 -48 -20 -4 -105
-4 -190 1 -269 16 -256 15 -555 60 -38 6 -86 15 -105 20 -19 5 -51 11 -70 14
-101 13 -420 93 -524 131 -38 14 -76 25 -85 25 -9 0 -32 8 -51 19 -19 10 -73
30 -120 45 -74 24 -219 89 -355 158 -22 11 -67 34 -100 50 -102 52 -259 141
-289 165 -16 13 -50 35 -76 48 -46 23 -158 95 -189 121 -9 8 -35 26 -58 41
-99 66 -338 270 -458 393 -71 73 -143 144 -159 159 -30 28 -185 204 -251 286
-45 55 -104 137 -194 268 -34 49 -72 103 -86 121 -61 80 -326 590 -375 721
-12 33 -35 92 -51 130 -16 39 -29 77 -29 85 0 8 -16 60 -36 115 -20 55 -51
161 -70 235 -19 74 -39 149 -44 165 -5 17 -14 64 -20 105 -6 41 -20 116 -30
165 -34 160 -53 410 -45 600 3 94 5 195 3 225 -8 132 2 384 17 460 3 14 9 68
15 120 6 52 17 124 24 160 8 36 20 95 26 132 12 69 31 133 43 144 4 4 7 23 7
43 0 33 35 161 68 246 8 22 18 56 23 75 4 19 12 53 17 75 5 22 26 76 47 120
66 140 75 161 75 172 0 21 148 314 186 368 11 17 26 49 32 71 7 23 25 57 42
75 16 19 32 46 35 62 4 15 10 27 14 27 5 0 23 26 40 58 44 78 87 145 144 224
26 37 47 70 47 75 0 4 17 24 38 45 51 51 71 75 141 165 33 43 83 103 112 133
28 30 72 81 96 113 24 31 48 57 53 57 4 0 32 25 61 55 29 30 58 55 64 55 6 0
17 11 25 24 18 29 195 189 255 231 24 17 67 51 97 76 29 25 76 61 103 79 28
19 52 37 55 40 3 3 32 22 65 42 33 20 71 48 84 62 14 14 30 26 36 26 6 0 29
15 51 34 21 18 50 37 64 41 14 4 43 20 66 36 23 15 65 40 95 54 30 14 74 37
99 52 77 44 234 123 247 123 6 0 28 8 50 19 21 10 63 29 93 41 30 12 73 31 96
41 23 11 46 19 53 19 6 0 41 13 78 29 38 16 115 43 173 60 58 17 125 39 150
47 25 9 88 25 140 36 181 36 225 46 270 56 50 12 205 32 290 38 30 2 93 8 140
12 47 5 120 10 162 11 66 1 79 -2 87 -17z"/>
<path d="M5910 9359 c0 -6 15 -34 33 -62 27 -43 32 -47 35 -28 2 13 -8 40 -22
62 -26 38 -46 50 -46 28z"/>
<path d="M2266 1918 c-20 -39 -9 -52 33 -41 41 10 44 26 6 33 -20 4 -26 8 -17
13 14 9 16 27 3 27 -5 0 -17 -14 -25 -32z"/>
</g>
</svg>
