<?xml version="1.0" standalone="no"?>
<!DOCTYPE svg PUBLIC "-//W3C//DTD SVG 20010904//EN"
 "http://www.w3.org/TR/2001/REC-SVG-20010904/DTD/svg10.dtd">
<svg version="1.0" xmlns="http://www.w3.org/2000/svg"
 width="1373.000000pt" height="841.000000pt" viewBox="0 0 1373.000000 841.000000"
 preserveAspectRatio="xMidYMid meet">
<metadata>
Created by potrace 1.16, written by Peter Selinger 2001-2019
</metadata>
<g transform="translate(0.000000,841.000000) scale(0.100000,-0.100000)"
fill="#000000" stroke="none">
<path d="M7995 8020 c-16 -4 -42 -11 -57 -14 -35 -8 -46 -41 -22 -67 17 -18
17 -23 4 -46 -8 -15 -20 -28 -26 -30 -17 -6 -54 32 -54 55 0 11 -4 23 -9 26
-5 3 -7 14 -4 24 7 27 -21 44 -77 49 -66 5 -90 -9 -90 -50 0 -25 7 -36 29 -49
17 -9 42 -36 57 -60 15 -23 31 -45 36 -46 13 -6 50 -93 55 -132 3 -22 -2 -48
-14 -70 -10 -19 -17 -42 -15 -52 8 -41 131 -48 152 -8 14 26 13 34 -12 65 -14
18 -23 46 -25 82 -4 47 0 62 32 121 21 37 52 81 70 97 40 37 49 68 25 95 -9
11 -19 20 -21 19 -2 0 -17 -4 -34 -9z"/>
<path d="M10413 8010 c-33 -20 -42 -43 -22 -55 20 -13 30 -58 28 -129 0 -39 0
-94 0 -122 1 -29 -6 -71 -15 -94 -16 -40 -16 -42 3 -62 17 -16 28 -19 61 -13
22 3 48 15 57 25 15 16 15 22 0 67 -13 40 -15 80 -12 209 3 87 1 167 -5 177
-12 23 -55 22 -95 -3z"/>
<path d="M10774 8020 c-29 -11 -38 -39 -19 -60 29 -32 19 -54 -33 -70 -43 -14
-50 -20 -81 -81 -31 -62 -33 -71 -26 -128 4 -36 16 -74 29 -93 25 -38 81 -61
110 -46 10 6 42 7 71 3 49 -6 55 -4 79 22 31 33 33 56 6 83 -25 25 -43 165
-34 273 5 61 3 77 -11 91 -18 17 -57 20 -91 6z"/>
<path d="M11284 8000 c-31 -12 -47 -38 -55 -88 -4 -26 -10 -56 -14 -68 -4 -13
-1 -27 9 -37 20 -19 24 -148 6 -201 -10 -32 -10 -40 6 -57 20 -22 102 -27 122
-7 9 9 13 7 18 -8 12 -31 24 -33 68 -13 22 10 58 19 78 19 25 0 47 9 68 27 29
24 32 31 27 66 -3 22 -12 46 -20 54 -12 12 -11 20 10 60 25 51 30 92 11 111
-7 7 -40 12 -79 12 -58 0 -72 -4 -99 -26 -60 -51 -76 -111 -39 -150 l20 -22
-28 -26 c-25 -23 -29 -25 -40 -10 -6 9 -10 30 -8 47 2 18 7 69 9 115 4 67 3
84 -9 88 -10 4 -15 21 -15 51 0 51 -16 74 -46 63z"/>
<path d="M9695 7884 c-72 -18 -85 -19 -106 -10 -21 9 -58 -28 -66 -66 -5 -26
-29 -56 -37 -47 -2 2 2 27 9 54 17 66 9 74 -68 68 -108 -8 -136 -39 -77 -85
31 -24 60 -106 60 -168 0 -43 16 -77 40 -85 27 -9 40 4 61 58 21 53 50 58 60
9 15 -74 78 -98 103 -39 13 31 33 101 40 142 6 33 29 79 53 104 13 13 23 31
23 40 0 17 -19 42 -29 40 -4 0 -33 -7 -66 -15z"/>
<path d="M9928 7892 c-66 -17 -128 -117 -128 -209 0 -94 47 -153 130 -161 65
-6 91 12 130 88 30 59 30 63 21 137 -7 53 -15 81 -27 90 -9 7 -22 23 -28 35
-12 24 -48 32 -98 20z"/>
<path d="M8429 7868 c-16 -10 -29 -20 -29 -24 0 -10 23 -49 32 -55 13 -8 28
-126 21 -160 -15 -75 30 -106 136 -94 39 4 61 3 65 -4 13 -20 35 -11 51 20 12
21 16 56 16 112 -1 45 -1 107 -2 137 0 43 -4 59 -20 73 -24 20 -79 23 -97 5
-18 -18 -14 -55 7 -70 24 -17 38 -108 21 -148 -13 -31 -56 -48 -74 -30 -6 6
-11 57 -12 120 -1 60 -5 113 -8 118 -11 19 -76 19 -107 0z"/>
<path d="M8929 7880 c-8 -5 -41 -8 -73 -7 -46 2 -60 -2 -71 -17 -11 -14 -12
-24 -4 -39 6 -11 13 -55 15 -99 2 -44 6 -84 9 -88 2 -4 -2 -16 -10 -26 -21
-27 -19 -61 4 -67 27 -7 113 4 129 16 19 15 14 46 -13 79 -19 23 -25 41 -25
79 0 54 17 72 51 51 29 -18 47 -14 65 13 16 25 12 77 -8 103 -12 14 -46 15
-69 2z"/>
<path d="M10107 7869 c-33 -25 -33 -65 -1 -73 14 -4 24 -16 28 -37 11 -55 6
-123 -10 -154 -18 -34 -11 -72 14 -77 29 -6 93 9 110 25 14 15 14 22 -1 76
-17 60 -22 123 -11 133 3 3 18 1 34 -5 41 -15 70 12 70 64 0 48 -21 61 -83 53
-28 -4 -47 -2 -51 5 -12 18 -71 13 -99 -10z"/>
<path d="M8118 7860 c-62 -33 -82 -93 -67 -198 11 -77 27 -105 70 -128 74 -38
162 -12 201 61 31 56 32 171 2 211 -52 70 -136 92 -206 54z"/>
<path d="M12878 7162 c-38 -5 -74 -52 -94 -123 -22 -79 -46 -93 -83 -49 -36
42 -117 53 -177 22 -42 -21 -50 -34 -78 -121 -16 -48 -16 -57 -3 -85 8 -17 21
-43 28 -59 21 -47 102 -72 148 -47 31 16 73 81 95 144 27 79 51 84 51 10 -1
-28 -7 -69 -14 -92 -19 -57 -11 -72 41 -72 70 0 118 18 129 47 13 35 5 53 -25
53 -39 0 -49 61 -20 119 15 29 14 34 -1 57 -21 32 -17 109 5 109 9 0 16 -11
18 -30 5 -38 29 -65 50 -58 34 12 52 36 52 71 0 64 -56 112 -122 104z"/>
<path d="M7990 7153 c-83 -12 -89 -15 -95 -34 -4 -13 0 -28 11 -40 16 -18 16
-21 -1 -60 -16 -34 -51 -69 -59 -57 -22 30 -37 85 -31 118 8 46 -3 54 -83 63
-97 11 -137 -30 -69 -71 28 -16 40 -36 74 -124 34 -84 40 -113 36 -146 -3 -23
-11 -46 -18 -52 -7 -6 -10 -21 -8 -35 6 -30 40 -39 106 -26 26 4 47 6 47 3 0
-2 7 1 15 8 21 17 19 54 -5 75 -13 12 -20 31 -20 55 0 37 19 90 33 90 4 0 7 5
7 11 0 17 89 149 100 149 5 0 14 9 20 20 12 23 -3 61 -23 59 -7 -1 -23 -3 -37
-6z"/>
<path d="M10320 7153 c-101 -14 -129 -42 -83 -79 27 -22 28 -25 31 -141 3 -97
1 -128 -16 -176 -19 -58 -19 -58 1 -69 27 -14 115 -3 138 18 25 22 24 39 -3
64 -22 20 -23 27 -23 202 0 113 -4 182 -10 183 -5 1 -21 0 -35 -2z"/>
<path d="M10025 7136 c-49 -22 -68 -52 -78 -119 -9 -69 -9 -63 -1 -168 5 -59
2 -83 -10 -107 -12 -23 -13 -32 -3 -39 22 -17 41 -20 87 -14 55 8 66 35 37 99
-21 49 -17 81 14 120 24 32 24 57 -1 82 -11 11 -20 28 -19 38 0 13 2 14 6 2 4
-8 13 -20 22 -27 20 -15 67 8 76 37 8 26 -2 75 -20 90 -22 18 -78 21 -110 6z"/>
<path d="M11473 7124 c-10 -16 -16 -43 -16 -65 2 -29 -3 -41 -18 -49 -19 -10
-27 -50 -11 -50 31 0 43 -144 17 -190 -36 -62 -6 -96 73 -84 70 10 89 44 52
92 -18 22 -21 41 -21 131 -1 150 -4 220 -13 228 -17 18 -47 11 -63 -13z"/>
<path d="M11225 7084 c-14 -15 -25 -31 -25 -35 0 -4 -13 -16 -29 -25 -46 -27
-45 -71 0 -86 7 -2 14 -41 18 -95 5 -81 9 -94 33 -118 31 -31 51 -28 98 12 43
36 42 77 -2 89 -32 9 -33 12 -36 64 -2 46 1 61 22 89 l25 33 -27 49 c-15 27
-33 49 -40 49 -7 0 -24 -12 -37 -26z"/>
<path d="M8532 7019 c-26 -23 -26 -27 -8 -48 20 -23 30 -117 16 -151 -14 -34
-37 -45 -57 -28 -12 10 -14 31 -10 103 2 49 2 96 0 103 -7 20 -87 15 -114 -7
-24 -20 -24 -20 -6 -51 11 -21 17 -53 17 -96 0 -74 19 -121 53 -128 59 -12 82
-13 109 -4 20 7 37 7 59 -2 24 -10 35 -10 55 0 23 13 32 44 16 54 -5 3 -12 56
-16 118 -7 122 -15 140 -67 152 -18 4 -32 0 -47 -15z"/>
<path d="M10930 7033 c-55 -18 -120 -89 -120 -132 0 -11 -5 -23 -11 -26 -14
-9 -3 -56 27 -116 20 -39 32 -50 62 -59 66 -18 105 -13 141 20 49 43 37 62
-36 58 -52 -3 -58 -1 -70 22 -8 15 -12 50 -11 85 3 56 5 60 29 63 22 3 27 -2
32 -27 12 -59 87 -32 87 31 0 57 -71 101 -130 81z"/>
<path d="M11750 7029 c-76 -31 -129 -107 -130 -185 0 -51 48 -131 85 -140 93
-23 174 59 194 196 9 67 33 60 48 -15 12 -55 11 -64 -9 -109 -22 -47 -22 -48
-3 -62 22 -16 98 -19 124 -4 12 6 32 5 57 -1 32 -9 44 -8 71 6 36 20 45 58 17
69 -12 5 -15 19 -13 68 2 68 -13 139 -35 157 -7 6 -40 11 -72 11 -33 -1 -79 0
-103 0 -31 1 -52 -5 -73 -20 l-30 -22 -26 25 c-32 31 -68 40 -102 26z"/>
<path d="M9348 7015 c-35 -19 -35 -43 -3 -81 21 -25 24 -36 21 -89 -2 -33 -10
-73 -17 -88 -10 -23 -10 -30 2 -42 21 -21 92 -22 123 -2 30 20 30 21 12 55
-28 51 -36 91 -24 117 10 22 13 23 32 10 44 -32 86 -4 86 57 0 45 -16 58 -77
64 -26 2 -66 6 -88 9 -26 3 -50 0 -67 -10z"/>
<path d="M10563 7005 c-48 -21 -80 -59 -97 -117 -28 -96 -19 -145 32 -183 33
-25 121 -24 159 0 35 23 28 59 -12 63 -39 5 -57 20 -53 46 3 18 9 20 54 17 55
-3 67 5 78 52 8 33 -25 112 -53 127 -23 12 -73 10 -108 -5z"/>
<path d="M8078 6975 c-26 -19 -54 -48 -63 -64 -32 -63 -11 -150 46 -194 52
-38 71 -40 117 -14 91 51 126 151 82 236 -29 58 -46 71 -93 71 -32 0 -53 -9
-89 -35z"/>
<path d="M8746 6994 c-15 -14 -15 -19 -2 -38 19 -30 23 -162 6 -199 -19 -39 1
-57 73 -64 54 -5 57 -5 69 21 9 22 9 31 0 44 -27 37 -34 62 -28 94 6 32 8 33
44 30 35 -3 40 -1 54 29 9 18 13 39 10 48 -13 36 -33 43 -121 48 -73 3 -92 1
-105 -13z"/>
<path d="M9718 6991 c-106 -68 -129 -186 -51 -262 33 -33 44 -38 86 -39 54 0
90 27 85 63 -3 19 -8 22 -40 19 -33 -3 -39 0 -48 23 -7 19 -7 31 0 40 11 14
58 17 65 5 6 -9 44 -1 63 13 19 15 15 54 -10 97 -35 61 -94 77 -150 41z"/>
<path d="M3449 6634 c-124 -6 -230 -14 -236 -17 -5 -3 -50 -11 -99 -17 -49 -6
-111 -15 -139 -20 -27 -5 -90 -16 -140 -26 -49 -9 -115 -23 -145 -31 -30 -8
-73 -19 -95 -25 -22 -6 -56 -16 -75 -24 -19 -7 -74 -22 -123 -34 -48 -11 -113
-32 -144 -45 -30 -14 -64 -25 -75 -25 -11 0 -32 -8 -46 -19 -15 -10 -45 -24
-67 -31 -64 -20 -202 -79 -258 -109 -29 -15 -88 -47 -132 -71 -44 -23 -103
-56 -131 -74 -28 -17 -66 -40 -84 -51 -41 -25 -201 -144 -215 -161 -5 -6 -18
-15 -27 -20 -25 -13 -278 -263 -318 -314 -19 -24 -46 -57 -59 -72 -38 -43
-118 -157 -146 -208 -14 -25 -44 -74 -65 -110 -44 -72 -80 -146 -80 -164 0 -6
-6 -20 -14 -31 -18 -26 -85 -234 -98 -305 -5 -30 -13 -59 -18 -65 -35 -44 -47
-658 -15 -840 12 -72 16 -101 16 -115 1 -24 100 -342 114 -364 7 -12 16 -32
20 -46 13 -43 85 -188 100 -200 8 -7 15 -16 15 -21 0 -5 11 -27 25 -49 14 -22
25 -46 25 -54 0 -8 8 -21 18 -28 16 -12 39 -42 67 -87 6 -9 23 -33 39 -54 16
-22 39 -54 52 -72 42 -62 327 -355 345 -355 3 0 30 -23 60 -51 30 -28 65 -59
79 -68 14 -8 31 -24 38 -33 7 -10 22 -18 33 -18 10 0 19 -4 19 -8 0 -8 63 -51
125 -86 17 -10 55 -32 85 -50 56 -35 374 -196 385 -196 3 0 67 -24 143 -54
178 -70 450 -151 602 -181 134 -26 177 -34 250 -45 41 -6 91 -15 110 -20 19
-4 87 -13 150 -19 63 -7 176 -18 250 -27 74 -8 171 -14 215 -14 55 -1 86 -5
99 -15 30 -23 63 -18 82 10 9 14 23 25 30 25 16 0 19 -16 4 -25 -5 -3 -10 -15
-10 -26 0 -16 6 -19 38 -18 20 1 47 -2 59 -6 30 -9 42 19 19 44 -12 13 -13 20
-4 29 18 18 31 14 25 -8 -3 -11 -1 -23 5 -26 5 -3 8 -18 6 -32 -3 -24 0 -27
27 -27 21 0 31 6 35 20 3 12 13 20 25 20 15 0 21 8 25 34 3 19 11 36 18 39 7
2 10 -2 6 -11 -3 -8 2 -21 10 -30 9 -9 16 -22 16 -31 0 -22 15 -27 36 -12 13
10 15 18 9 27 -6 8 -10 27 -10 43 l0 29 134 23 c91 15 140 20 152 13 28 -15
53 -11 72 11 20 24 37 19 30 -9 -6 -23 0 -27 59 -36 40 -6 49 -4 54 9 4 10 -2
26 -14 39 -24 25 -16 51 14 45 18 -3 21 -10 23 -80 1 -34 34 -39 53 -8 17 26
28 26 21 -1 -7 -25 11 -39 50 -39 20 0 27 5 27 20 0 11 7 20 15 20 8 0 15 -8
15 -19 0 -30 23 -41 93 -44 37 -1 67 -5 67 -9 0 -4 12 -6 28 -4 23 1 27 6 24
28 -1 15 1 29 6 32 5 3 6 22 3 43 -5 29 -11 38 -26 38 -11 0 -20 -7 -20 -15 0
-8 -6 -26 -14 -39 -9 -16 -10 -26 -3 -30 7 -4 8 -12 2 -21 -8 -13 -10 -12 -10
2 0 9 -9 20 -20 23 -11 3 -20 13 -20 20 0 8 9 19 20 25 24 13 27 50 5 50 -9 0
-32 -16 -52 -35 -20 -19 -40 -35 -45 -35 -13 0 -9 20 7 37 21 20 15 47 -11 51
-14 2 -24 -6 -35 -29 -18 -42 -46 -60 -59 -39 -15 23 -12 28 17 32 29 3 42 37
15 40 -10 0 -21 2 -27 3 -5 2 -16 3 -22 4 -32 3 -8 20 50 36 64 18 191 64 262
95 22 10 60 23 85 30 40 11 131 53 275 128 28 14 72 41 99 59 26 18 53 33 59
33 16 0 107 59 182 118 6 5 18 13 27 18 10 5 42 31 73 58 30 27 64 54 74 60
40 23 219 186 286 261 39 42 77 85 86 95 19 20 97 123 118 154 8 11 38 57 68
102 29 44 53 85 53 91 0 6 8 21 19 34 10 13 24 42 32 64 7 22 21 51 30 65 18
27 79 185 79 203 0 7 7 25 15 40 14 27 32 100 41 162 2 17 9 50 15 75 18 74
27 184 34 390 7 210 -4 386 -30 491 -40 156 -49 188 -72 254 -14 39 -27 79
-30 90 -5 19 -56 133 -74 165 -5 8 -17 31 -27 50 -17 31 -38 67 -104 176 -26
43 -42 68 -48 74 -3 3 -21 27 -40 53 -160 219 -344 402 -605 600 -60 46 -132
96 -160 112 -27 15 -63 38 -80 51 -16 12 -46 29 -65 37 -19 9 -46 23 -60 31
-42 26 -272 136 -284 136 -6 0 -27 10 -46 22 -30 19 -115 50 -305 113 -27 9
-59 21 -70 26 -11 4 -92 26 -180 48 -88 22 -185 46 -215 54 -89 23 -248 51
-360 63 -19 2 -75 8 -125 14 -49 6 -146 15 -215 20 -69 6 -132 12 -140 13 -8
1 -117 -2 -241 -9z m302 -187 c60 -57 226 -239 253 -275 11 -16 43 -57 69 -92
26 -35 44 -66 40 -70 -14 -12 -213 -30 -324 -30 -89 0 -108 3 -113 16 -8 21
-7 480 1 488 14 13 32 4 74 -37z m209 23 c69 -10 140 -43 240 -111 32 -21 61
-39 66 -39 4 0 28 -18 54 -39 25 -21 72 -57 103 -79 73 -51 103 -87 88 -106
-6 -7 -9 -21 -5 -30 3 -9 1 -16 -4 -16 -6 0 -12 12 -14 28 -3 25 -6 27 -48 27
-52 1 -70 -9 -70 -39 0 -19 -9 -24 -58 -34 -32 -7 -65 -12 -74 -12 -9 0 -46
39 -82 88 -91 119 -133 172 -164 207 -15 17 -45 54 -67 83 -21 29 -43 52 -47
52 -4 0 -8 7 -8 15 0 17 4 18 90 5z m-550 -12 c0 -20 -4 -25 -122 -169 -35
-42 -76 -93 -93 -113 -16 -20 -35 -49 -41 -64 -7 -15 -25 -42 -41 -60 -37 -42
-30 -42 -302 33 -30 8 -65 22 -78 31 l-24 15 36 27 c43 32 155 122 173 139 30
29 184 125 214 134 26 8 178 30 266 38 6 0 12 -5 12 -11z m173 -231 c-1 -127
-2 -238 -2 -244 -1 -17 -119 -17 -261 -1 -122 13 -139 21 -112 52 11 12 25 32
32 45 7 13 31 48 54 76 22 29 52 67 66 86 14 18 30 37 35 43 6 6 32 38 59 71
59 71 95 104 116 105 13 0 15 -32 13 -233z m-1282 -7 c31 -17 22 -33 -42 -75
-34 -22 -73 -48 -88 -57 -14 -10 -33 -21 -41 -25 -12 -6 -115 -79 -161 -116
-31 -24 -133 -113 -184 -160 -52 -47 -52 -47 -86 -33 -56 25 -144 91 -147 112
-3 21 -3 21 135 100 129 75 409 214 430 214 5 0 36 11 69 25 66 27 86 30 115
15z m2804 -18 c28 -10 79 -32 115 -49 36 -17 81 -37 100 -44 49 -20 125 -59
338 -176 85 -47 82 -63 -21 -121 -77 -43 -78 -43 -105 -26 -15 10 -47 37 -72
60 -25 24 -61 54 -80 67 -52 35 -191 133 -221 156 -14 10 -45 29 -70 42 -24
12 -57 32 -73 42 l-29 20 27 24 c33 28 29 27 91 5z m-2607 -88 c18 -7 32 -20
32 -30 0 -10 -35 -51 -79 -93 -76 -74 -135 -139 -196 -217 -16 -21 -44 -54
-60 -73 -17 -20 -43 -55 -58 -78 -17 -27 -35 -43 -47 -43 -24 0 -181 64 -228
92 -19 11 -32 27 -30 36 5 23 173 154 372 289 50 34 100 70 111 79 79 63 107
69 183 38z m2451 -20 c46 -27 102 -62 197 -125 28 -19 87 -62 130 -97 199
-158 191 -149 152 -174 -34 -21 -215 -99 -243 -104 -26 -5 -53 18 -85 69 -10
16 -38 50 -62 75 -24 26 -68 76 -98 112 -30 36 -73 81 -95 100 -22 19 -54 51
-72 70 -37 40 -32 52 32 81 56 25 91 23 144 -7z m-2255 -64 c39 -18 68 -27
236 -71 41 -10 80 -21 87 -24 13 -4 -17 -77 -43 -103 -8 -7 -14 -19 -14 -26 0
-8 -7 -19 -15 -26 -8 -7 -53 -90 -98 -184 -46 -94 -91 -177 -100 -185 -13 -11
-29 -11 -79 -3 -185 31 -468 114 -468 137 0 7 20 40 45 72 25 32 53 69 62 83
10 14 51 63 93 110 41 47 84 96 95 110 35 42 133 130 146 130 7 0 31 -9 53
-20z m1498 -137 c34 -37 158 -229 158 -245 0 -7 10 -29 22 -48 12 -19 30 -52
40 -72 16 -37 16 -38 -4 -52 -25 -18 -18 -46 12 -46 23 0 27 -28 5 -36 -24
-10 -19 -44 8 -44 19 0 22 -5 22 -41 0 -29 -5 -45 -18 -53 -23 -14 -37 6 -37
52 0 25 -5 35 -24 42 -32 12 -39 25 -26 50 13 23 -1 50 -26 50 -18 0 -28 -38
-15 -54 14 -16 -3 -62 -25 -70 -16 -6 -18 17 -4 44 7 13 6 21 -5 30 -20 16
-45 5 -45 -20 0 -25 -12 -26 -34 -1 -15 16 -22 17 -59 8 -23 -6 -49 -18 -57
-26 -18 -19 -26 -20 -234 -27 -107 -4 -161 -2 -165 5 -4 6 -8 128 -10 271 -2
209 0 261 11 264 7 3 74 7 148 10 152 7 288 20 297 30 14 13 41 5 65 -21z
m-975 6 c15 -5 88 -14 163 -20 173 -12 193 -17 200 -55 3 -16 5 -132 5 -259
l0 -230 -155 -3 c-156 -4 -372 9 -507 30 -58 9 -73 14 -73 28 0 20 57 162 68
170 10 6 102 179 102 191 0 8 73 115 100 147 13 15 59 16 97 1z m1584 -62 c-6
-6 -11 -21 -11 -34 0 -27 27 -31 45 -7 10 15 19 10 68 -42 31 -33 79 -88 107
-123 l50 -65 -27 -23 c-16 -12 -46 -27 -68 -33 -22 -6 -55 -17 -73 -25 -18 -8
-46 -15 -61 -15 -25 0 -29 -4 -33 -35 -7 -63 33 -91 53 -37 10 26 11 26 21 7
13 -22 15 -76 4 -93 -12 -20 -26 -13 -26 13 0 22 -4 25 -34 25 -25 0 -35 5
-39 20 -5 21 -31 27 -42 9 -4 -5 0 -18 9 -27 11 -13 14 -31 11 -66 -3 -26 0
-56 5 -66 8 -15 5 -22 -11 -34 -17 -11 -20 -21 -15 -43 4 -15 8 -35 10 -44 5
-32 37 -89 51 -89 8 0 19 9 25 21 11 20 12 20 31 3 18 -16 20 -16 37 -1 10 10
28 17 40 17 31 0 30 37 0 42 -47 6 -25 108 22 108 11 0 20 4 20 9 0 22 62 53
107 55 45 1 47 3 55 36 15 61 17 65 30 52 7 -7 26 -12 44 -12 17 0 37 -7 44
-15 11 -13 9 -21 -8 -45 -12 -16 -22 -34 -22 -40 0 -9 4 -11 30 -14 5 -1 20
14 34 33 22 29 26 32 32 17 4 -10 2 -21 -4 -25 -6 -3 -13 -18 -17 -33 -10 -40
-32 -55 -40 -28 -9 27 -39 22 -43 -7 -2 -12 -10 -27 -18 -33 -8 -7 -14 -25
-14 -41 0 -19 -5 -29 -15 -29 -15 0 -19 -17 -9 -43 3 -8 14 -12 28 -10 18 4
26 -2 36 -26 16 -40 36 -40 44 0 7 35 -8 71 -27 64 -6 -3 -19 0 -27 5 -13 8
-12 12 7 25 13 9 19 22 16 34 -3 11 2 21 11 24 12 5 16 0 16 -23 0 -16 4 -31
9 -34 9 -6 35 20 44 46 4 11 12 15 22 12 19 -8 19 -28 0 -48 -9 -8 -22 -31
-30 -50 -12 -28 -12 -36 -1 -45 7 -6 20 -9 28 -6 14 5 28 -15 42 -57 6 -19 46
-25 46 -8 0 6 9 10 19 10 28 0 91 39 91 56 0 27 -30 27 -68 0 -45 -31 -52 -32
-52 -8 0 24 19 42 46 42 27 0 36 12 28 34 -8 21 -29 20 -82 -4 l-43 -19 21 29
c13 19 30 30 45 30 29 0 41 28 21 49 -14 13 -17 13 -34 -2 -10 -9 -26 -17 -35
-17 -15 0 -14 4 3 36 17 29 19 42 11 69 -15 54 -47 94 -71 88 -15 -4 -20 0
-20 14 0 11 -8 31 -18 44 -55 72 -73 129 -40 129 5 0 71 27 148 60 77 33 144
60 149 60 15 0 187 -177 234 -240 23 -30 51 -66 64 -80 13 -14 23 -28 23 -32
0 -3 6 -13 13 -20 18 -18 69 -93 106 -157 30 -51 31 -54 15 -72 -9 -11 -25
-19 -34 -19 -10 0 -29 -9 -43 -20 -14 -11 -29 -20 -34 -20 -16 0 -147 -42
-158 -50 -5 -5 -39 -16 -75 -25 -107 -27 -166 -74 -172 -135 -2 -27 -8 -36
-24 -38 -30 -4 -38 40 -12 63 25 20 18 40 -13 40 -14 0 -27 8 -31 18 -11 25
-42 17 -46 -11 -3 -18 1 -22 22 -22 54 0 35 -52 -21 -54 -25 -1 -28 -4 -26
-34 2 -55 57 -84 69 -37 7 29 21 32 40 8 13 -17 15 -17 29 2 18 22 49 22 93
-1 24 -12 28 -12 40 3 8 12 9 19 2 21 -5 2 -10 10 -10 17 0 14 -22 25 -51 25
-23 0 -24 8 -2 32 20 22 42 23 71 2 19 -13 21 -19 11 -31 -10 -11 -9 -20 4
-42 18 -30 13 -71 -9 -71 -8 0 -31 7 -51 15 -34 14 -38 14 -58 -5 -23 -22 -50
-26 -60 -10 -10 17 -43 11 -47 -7 -6 -29 16 -83 35 -89 10 -3 24 0 32 6 10 8
15 9 15 2 0 -6 -4 -14 -10 -17 -16 -10 -12 -47 8 -69 37 -42 52 -107 61 -271
9 -170 5 -194 -32 -196 -12 -1 -38 -2 -57 -4 -61 -4 -130 7 -130 20 0 18 -24
35 -37 27 -6 -4 -14 -19 -18 -34 -6 -24 -10 -26 -27 -17 -53 29 -104 -16 -57
-51 26 -20 20 -50 -11 -50 -16 0 -20 -7 -20 -30 0 -20 5 -30 15 -30 8 0 15 4
15 9 0 10 52 22 93 21 21 0 30 5 34 20 7 26 55 35 146 26 39 -4 72 -8 74 -10
4 -4 6 -71 4 -144 -1 -29 -9 -92 -17 -140 -8 -48 -19 -114 -25 -147 -6 -33
-12 -80 -15 -104 -2 -25 -8 -49 -13 -55 -4 -6 -11 -23 -15 -38 -7 -30 -17 -33
-62 -18 -16 5 -44 11 -62 14 -19 2 -36 7 -39 10 -5 5 -5 120 0 161 1 15 -4 20
-23 20 -19 0 -24 -5 -23 -20 2 -11 -3 -30 -9 -42 -9 -18 -14 -20 -25 -11 -23
19 -54 -18 -48 -60 5 -46 16 -55 42 -37 15 11 20 23 17 39 -2 14 0 27 5 30 12
8 23 -23 16 -45 -4 -12 -1 -21 10 -25 13 -5 13 -9 3 -21 -23 -28 -38 -86 -26
-100 14 -17 28 -16 47 1 14 12 24 11 71 -3 50 -16 55 -20 53 -45 -1 -15 -11
-46 -23 -67 -11 -22 -20 -49 -20 -60 0 -12 -6 -33 -13 -47 -47 -93 -97 -201
-97 -209 0 -6 -7 -16 -15 -23 -12 -10 -15 -10 -15 0 0 6 -9 19 -21 29 l-21 17
27 27 c20 19 26 33 22 49 -4 12 1 43 10 70 19 61 13 79 -27 75 -40 -5 -46 -12
-30 -42 12 -22 11 -27 -5 -44 -12 -14 -15 -28 -11 -47 4 -15 2 -32 -5 -40 -6
-8 -9 -23 -6 -34 3 -11 1 -23 -4 -26 -5 -3 -9 -16 -9 -30 0 -13 -4 -24 -10
-24 -5 0 -10 6 -10 14 0 8 -15 17 -33 20 -19 3 -44 16 -56 27 -24 22 -51 19
-51 -5 0 -9 11 -18 24 -22 14 -3 27 -12 30 -20 3 -8 12 -14 21 -14 8 0 15 -7
15 -15 0 -8 -6 -15 -14 -15 -20 0 -29 -16 -21 -40 10 -30 43 -26 47 6 2 17 11
30 27 36 23 8 23 7 17 -32 -8 -52 -1 -64 27 -48 20 10 21 10 9 -5 -8 -9 -22
-19 -33 -22 -14 -5 -19 -16 -19 -40 0 -19 -5 -37 -11 -41 -8 -4 -9 0 -4 15 9
28 -21 40 -43 17 -16 -16 -16 -18 5 -36 20 -16 21 -19 8 -30 -8 -7 -18 -30
-21 -51 -4 -21 -13 -44 -20 -50 -8 -6 -14 -19 -14 -28 -1 -9 -9 -32 -20 -51
-15 -29 -20 -32 -25 -17 -4 9 -17 17 -29 17 -11 0 -34 7 -49 15 -56 29 -148
-27 -102 -61 21 -15 19 -23 -4 -17 -25 6 -50 -35 -30 -48 19 -12 26 -11 41 4
15 17 95 4 117 -18 21 -21 6 -31 -23 -15 -24 12 -57 8 -55 -7 5 -31 -3 -43
-28 -42 -27 0 -27 1 -5 9 24 10 30 35 9 43 -26 10 -82 -8 -92 -30 -6 -11 -16
-28 -23 -36 -7 -8 -9 -22 -6 -32 5 -13 14 -15 37 -11 29 6 30 6 13 -13 -22
-24 -14 -38 26 -49 18 -4 33 -13 35 -19 5 -14 -37 -29 -46 -16 -3 5 -14 12
-24 16 -10 4 -17 14 -15 23 2 12 -14 26 -52 45 -30 16 -61 29 -70 29 -15 0
-272 61 -279 67 -3 2 5 17 17 33 12 16 22 33 22 38 0 5 14 28 30 50 16 23 30
45 30 48 0 3 8 18 19 32 23 33 73 124 118 215 38 78 20 75 185 36 81 -20 87
-23 93 -50 8 -35 40 -40 51 -7 6 19 7 19 16 5 5 -10 19 -17 32 -17 13 0 31 -8
40 -19 15 -17 15 -19 1 -25 -9 -3 -27 1 -40 10 -13 9 -29 13 -35 9 -16 -10
-12 -45 5 -45 8 0 25 -10 36 -21 17 -17 19 -23 8 -30 -19 -12 -39 -11 -39 1 0
15 -28 12 -72 -7 -23 -10 -38 -24 -38 -34 0 -25 13 -30 41 -15 44 23 79 28 79
12 0 -31 57 -35 70 -3 6 12 15 30 22 39 10 14 8 21 -10 41 -27 29 -27 32 -1
34 37 3 45 20 25 54 -10 17 -16 31 -14 33 1 1 22 8 46 16 50 16 64 30 52 50
-8 12 -15 13 -41 3 -18 -7 -33 -12 -34 -10 -1 1 -8 13 -17 27 -13 22 -14 27
-1 39 13 12 13 16 -2 30 -15 15 -17 15 -30 -3 -10 -14 -11 -24 -4 -38 8 -14 7
-24 -2 -35 -11 -12 -9 -18 11 -33 35 -27 15 -45 -37 -35 -21 5 -44 7 -51 6 -9
-1 -11 6 -7 22 8 29 -16 57 -48 57 -12 0 -35 7 -52 16 -16 9 -56 20 -89 24
-32 5 -61 12 -64 15 -4 4 5 39 19 78 38 103 55 154 72 217 9 30 23 81 32 112
19 67 21 73 30 156 4 34 11 65 16 68 5 3 7 9 4 14 -3 5 -1 11 5 15 5 3 10 1
10 -4 0 -6 9 -11 20 -11 11 0 20 5 20 10 0 6 7 10 15 10 8 0 15 -9 15 -20 0
-15 7 -20 25 -20 18 0 25 5 25 19 0 11 -5 21 -11 23 -5 2 -7 11 -4 21 5 12 14
15 30 11 14 -3 26 0 32 8 4 7 17 18 28 24 17 10 19 20 17 61 -4 49 -3 50 21
46 16 -3 26 1 31 12 13 34 -25 50 -43 18 -9 -17 -11 -17 -25 2 -8 11 -16 30
-16 43 0 16 -6 22 -21 22 -18 0 -20 -5 -18 -40 2 -29 -2 -45 -19 -63 -33 -35
-28 -49 15 -45 20 1 38 -2 40 -8 4 -12 -65 -48 -88 -45 -9 1 -34 -8 -55 -20
-22 -11 -32 -15 -23 -7 9 7 19 23 23 35 4 12 17 23 29 25 35 5 34 37 -2 44
-21 4 -33 15 -40 34 -9 27 -8 28 23 32 27 3 32 1 29 -13 -3 -11 3 -19 16 -24
26 -8 41 1 41 25 0 22 -18 36 -42 32 -10 -2 -18 2 -18 7 0 6 -11 11 -25 11
-14 0 -25 -6 -25 -13 0 -9 -12 -13 -35 -13 -23 1 -34 5 -31 13 6 14 -10 27
-50 40 -21 8 -49 7 -96 -2 -36 -7 -72 -9 -80 -4 -20 11 -40 -4 -32 -24 4 -12
13 -15 29 -11 13 3 26 1 30 -5 3 -6 17 -8 32 -5 23 6 25 5 18 -17 -4 -13 -8
-24 -9 -24 -12 0 -42 -26 -44 -39 -6 -29 28 -31 55 -2 l25 27 24 -26 c27 -30
44 -25 44 11 0 17 -6 24 -19 24 -10 0 -21 8 -25 18 -3 9 -9 23 -12 30 -8 18
54 16 73 -3 10 -11 13 -25 9 -43 -4 -15 -10 -49 -13 -77 -3 -27 -12 -58 -20
-67 -10 -11 -14 -28 -10 -46 4 -18 0 -37 -10 -51 -12 -18 -13 -28 -4 -48 10
-21 9 -29 -5 -44 -9 -10 -21 -16 -25 -13 -19 11 -49 -8 -49 -31 0 -28 24 -39
41 -19 10 12 14 12 20 2 13 -20 11 -34 -12 -59 -11 -13 -18 -19 -15 -13 8 16
-20 38 -39 30 -8 -3 -15 -14 -15 -25 0 -20 25 -35 41 -25 5 3 8 -9 7 -26 -1
-17 -6 -34 -10 -36 -4 -3 -8 -16 -8 -29 0 -13 -6 -30 -14 -38 -8 -7 -14 -30
-13 -49 0 -20 -5 -43 -12 -52 -13 -15 -15 -15 -32 0 -22 20 -39 11 -39 -23 0
-22 4 -25 25 -21 25 5 36 -14 15 -27 -5 -3 -10 -1 -10 5 0 19 -45 6 -48 -14
-4 -16 0 -18 27 -13 l31 6 -14 -32 c-9 -22 -19 -31 -32 -29 -36 6 -44 11 -44
32 0 13 -7 20 -20 20 -27 0 -27 -40 0 -47 17 -5 50 -53 50 -74 0 -4 -10 -9
-22 -11 -17 -2 -24 -11 -26 -33 -5 -40 -20 -55 -33 -32 -6 9 -19 17 -29 17
-15 0 -19 6 -17 23 2 17 -3 22 -23 22 -20 0 -25 -5 -25 -25 0 -18 6 -26 22
-28 21 -3 39 -29 28 -40 -3 -4 -21 -5 -39 -4 -23 2 -36 -3 -40 -14 -9 -22 3
-37 25 -31 10 3 22 1 25 -4 3 -5 11 -9 19 -9 18 0 47 29 40 41 -4 5 -1 9 4 9
16 0 13 -28 -6 -63 -23 -41 -33 -47 -60 -40 -20 4 -23 1 -23 -21 0 -26 -22
-36 -35 -16 -10 16 -35 -8 -35 -31 0 -14 7 -19 26 -19 21 0 25 -4 22 -22 -2
-19 -8 -22 -35 -20 -17 2 -34 -1 -37 -6 -3 -6 -24 -6 -53 -1 -30 6 -50 6 -57
-1 -18 -18 9 -32 69 -35 68 -4 77 -10 40 -27 -22 -10 -29 -10 -32 -1 -3 9 -10
9 -29 1 -16 -8 -23 -17 -19 -28 3 -10 -1 -23 -10 -30 -21 -17 -20 -52 1 -48 9
2 20 10 24 18 20 42 27 54 38 58 17 5 15 -24 -3 -42 -8 -8 -15 -18 -15 -21 0
-14 -64 -95 -75 -95 -7 0 -17 -11 -23 -25 -15 -33 -54 -48 -87 -33 -32 14 -23
28 20 28 53 0 52 26 -2 34 -52 7 -63 3 -63 -25 0 -18 -1 -19 -25 -3 -13 8 -29
13 -35 9 -16 -10 -12 -35 8 -42 9 -3 24 -14 32 -23 23 -27 55 -33 74 -15 13
14 16 14 16 2 0 -8 -6 -19 -12 -24 -19 -14 -58 -23 -58 -12 0 13 -60 41 -76
35 -19 -7 -18 -25 4 -33 9 -4 21 -12 25 -20 4 -7 15 -13 22 -13 8 0 15 -9 15
-20 0 -11 -6 -20 -14 -20 -28 0 -46 12 -46 32 0 29 -44 20 -48 -10 -2 -12 -12
-28 -22 -34 -14 -9 -16 -16 -8 -25 17 -21 37 -15 44 12 3 14 12 25 19 25 16 0
4 -52 -16 -76 -10 -13 -14 -12 -30 2 -10 9 -25 14 -34 11 -18 -8 -20 -53 -2
-60 7 -3 0 -9 -15 -16 -16 -6 -28 -17 -28 -25 0 -7 -8 -24 -18 -36 -17 -21
-18 -15 -15 211 2 129 5 240 8 247 3 8 29 12 84 12 74 0 82 -2 105 -27 21 -22
27 -24 40 -14 9 8 16 22 16 32 0 10 5 21 10 24 6 3 10 17 10 31 0 35 -26 42
-153 42 -60 0 -110 2 -112 4 -3 3 -8 471 -5 524 0 14 52 15 243 7 124 -5 140
-8 158 -26 16 -18 23 -19 37 -9 9 7 29 17 45 23 15 6 27 14 27 17 0 4 26 8 57
9 31 2 60 8 63 14 5 8 14 7 29 -3 18 -11 23 -11 31 2 5 8 7 17 5 20 -6 10
-153 11 -159 1 -8 -12 -59 0 -72 17 -8 11 -54 15 -234 19 -159 3 -227 8 -233
16 -6 10 -2 530 6 607 2 24 4 25 77 25 139 0 423 -26 513 -48 39 -9 47 -15 47
-33 0 -13 -6 -27 -14 -31 -7 -4 -18 -18 -25 -31 -10 -18 -16 -20 -31 -12 -10
5 -26 7 -34 4 -25 -10 0 -47 27 -40 11 3 27 0 34 -6 7 -6 22 -8 33 -5 14 3 30
-3 47 -19 20 -18 29 -21 39 -13 10 8 11 16 3 30 -13 25 -2 41 22 34 12 -4 21
-1 25 9 3 9 14 16 24 16 28 0 43 25 25 40 -12 10 -19 10 -27 2 -7 -7 -20 -12
-30 -12 -10 0 -26 -8 -36 -18 -26 -26 -66 -23 -70 6 -2 13 3 25 12 28 20 8 21
30 1 38 -20 7 -19 53 2 64 20 12 25 49 7 56 -7 3 -22 -7 -34 -21 l-20 -26 0
37 c0 33 2 36 28 36 15 0 34 -6 41 -12 10 -11 16 -8 30 11 12 16 20 20 23 11
2 -7 16 -12 31 -12 46 0 40 -16 -17 -43 -59 -28 -75 -49 -48 -65 16 -9 16 -11
0 -20 -23 -14 -24 -43 -1 -38 11 2 20 18 26 46 7 37 11 42 35 42 15 0 40 11
56 23 26 21 28 28 22 60 -4 20 -10 38 -14 38 -4 1 -53 3 -110 4 -70 1 -105 -2
-110 -10 -4 -6 -15 -14 -24 -18 -10 -3 -18 -13 -18 -22 0 -18 -12 -18 -135 -5
-89 10 -136 13 -328 26 -80 5 -99 9 -107 24 -5 10 -9 93 -9 183 1 155 3 166
21 170 30 8 21 59 -12 67 -23 5 -26 11 -21 40 2 16 28 12 35 -5 3 -8 13 -15
22 -15 10 0 25 -7 35 -16 15 -14 53 -17 236 -20 120 -2 221 -4 226 -4 4 0 7
-9 7 -20 0 -25 35 -27 49 -3 7 14 12 15 24 5 15 -12 47 -7 47 8 0 4 14 13 30
19 33 11 40 35 13 45 -11 5 -33 -4 -61 -24 -30 -21 -50 -29 -64 -24 -20 6 -20
6 1 28 12 12 21 27 21 32 0 20 -119 32 -315 33 -110 0 -203 0 -206 1 -3 0 -11
11 -17 25 -9 20 -9 25 2 25 8 0 24 8 37 19 l23 18 -22 12 c-12 7 -27 9 -32 6
-13 -8 -90 18 -90 31 0 6 7 17 15 24 10 9 15 9 15 1 0 -6 7 -11 15 -11 9 0 34
-9 56 -20 43 -22 59 -20 59 10 0 14 -12 23 -47 33 -36 10 -49 19 -51 35 -4 23
21 31 33 12 3 -5 23 -9 43 -9 20 1 42 0 47 -1 24 -6 35 2 35 25 0 14 -7 28
-16 32 -8 3 -13 11 -10 19 7 17 -12 31 -55 39 -27 5 -39 3 -45 -8 -10 -17 -72
-28 -81 -14 -8 14 -8 191 1 205 4 6 25 12 46 12 32 0 39 -4 42 -22 2 -13 13
-27 26 -33 12 -5 22 -16 22 -24 0 -13 -14 -12 -51 3 -19 8 -32 -15 -23 -39 4
-10 13 -13 26 -9 11 3 27 -1 36 -9 9 -8 26 -17 37 -19 15 -2 20 -11 20 -33 1
-20 6 -31 18 -33 23 -5 47 15 47 40 0 28 -30 68 -51 68 -10 0 -21 5 -24 10
-11 18 22 22 59 6 32 -13 37 -13 51 0 23 23 30 65 14 78 -8 6 -19 20 -25 31
-6 11 -14 18 -17 15 -3 -3 -17 6 -31 19 -18 17 -23 27 -15 32 17 10 39 0 39
-17 0 -8 5 -14 11 -14 6 0 25 -12 42 -26 29 -25 35 -26 116 -20 107 6 161 16
161 27 0 5 1 12 3 17 1 4 -14 9 -33 12 -22 3 -35 10 -35 20 0 8 6 14 13 13 6
-2 17 -4 23 -5 26 -6 17 20 -11 32 -34 14 -41 40 -11 40 11 0 22 4 25 8 10 17
-7 152 -19 152 -6 0 -17 11 -23 25 -6 14 -18 25 -26 25 -18 0 -29 16 -21 31 5
7 13 5 25 -6 21 -19 40 -12 40 14 0 10 7 24 15 31 25 20 15 56 -14 52 -13 -1
-30 3 -37 9 -7 6 -18 8 -24 4 -13 -8 -13 -45 0 -45 6 0 10 -3 10 -7 0 -5 -26
-8 -57 -8 -54 0 -58 -1 -55 -22 2 -14 -2 -23 -10 -24 -7 -1 -29 -3 -48 -5 -19
-2 -50 -3 -67 -3 -28 0 -33 -4 -33 -25 0 -26 27 -43 44 -26 5 5 23 10 38 10
21 0 31 -6 38 -25 8 -20 14 -24 33 -19 17 4 26 1 30 -10 4 -9 16 -16 28 -16
21 0 69 -42 69 -61 0 -11 -37 -12 -42 -1 -7 16 -61 51 -70 46 -5 -3 -18 2 -29
12 -17 16 -22 16 -30 4 -5 -8 -7 -20 -5 -27 6 -14 -21 -26 -29 -13 -10 16 -43
11 -54 -7 -9 -16 -10 -16 -11 3 0 11 7 29 15 40 12 15 16 16 24 5 5 -8 16 -11
30 -6 24 7 27 27 7 44 -15 12 -46 5 -46 -11 0 -6 -11 -7 -25 -4 -31 8 -52 -23
-35 -54 9 -16 8 -20 -5 -20 -27 0 -14 -44 13 -48 13 -2 26 -10 29 -18 9 -23
22 -16 38 22 13 33 16 34 31 20 19 -20 31 -20 41 -2 7 12 14 11 47 -5 22 -11
48 -16 59 -13 11 4 17 2 14 -3 -4 -6 0 -19 8 -29 15 -20 20 -53 8 -55 -5 0
-19 -2 -33 -3 -37 -5 -51 4 -44 26 3 10 0 25 -6 33 -16 20 -84 19 -104 -1 -22
-21 -21 -23 14 -35 30 -11 39 -32 20 -44 -5 -3 -10 -16 -10 -27 0 -12 -3 -18
-7 -14 -5 4 -8 22 -8 39 0 27 -4 33 -25 35 -14 2 -29 9 -35 15 -5 7 -22 18
-37 24 -23 10 -30 10 -43 -3 -8 -9 -15 -21 -15 -28 0 -27 -121 -29 -137 -2
-11 16 -9 547 1 553 5 3 66 8 136 10 103 3 129 1 139 -11 10 -11 9 -19 -1 -36
-11 -18 -10 -23 6 -35 10 -8 22 -16 26 -17 4 -2 11 -13 14 -26 7 -20 5 -21
-16 -13 -29 11 -48 4 -48 -18 0 -10 13 -22 32 -29 39 -14 32 -23 -19 -25 -31
-2 -39 -6 -41 -25 -4 -28 26 -42 43 -19 8 12 15 13 23 5 19 -19 45 -1 38 27
-5 18 -2 27 10 32 9 3 14 13 11 25 -5 18 2 41 38 123 7 17 13 48 14 69 1 61
33 72 45 16 3 -17 14 -33 23 -37 34 -13 71 -46 67 -58 -7 -17 10 -27 30 -19
20 8 21 33 1 40 -9 4 -15 19 -15 39 0 18 7 38 15 45 13 10 15 9 15 -8 0 -12 5
-24 10 -27 13 -8 40 -72 40 -96 0 -20 15 -26 25 -9 11 17 8 84 -3 88 -7 2 -12
22 -12 44 0 27 4 38 13 35 7 -2 12 -21 12 -43 0 -32 3 -39 20 -39 21 0 22 -3
10 -95 -3 -25 -1 -54 4 -65 5 -11 12 -28 15 -37 8 -27 53 -23 62 4 4 12 3 24
-2 25 -27 10 -34 24 -39 75 -6 60 2 73 44 80 15 2 26 11 27 23 18 119 23 135
39 135 15 0 19 -19 15 -73 -1 -25 2 -28 22 -25 17 2 22 9 21 25 -1 11 4 26 11
32 11 9 15 6 20 -15 5 -20 3 -30 -8 -36 -22 -13 -20 -45 4 -53 30 -9 43 4 36
37 -5 24 -3 29 12 26 14 -3 16 -13 14 -51 -3 -41 0 -47 16 -47 32 0 42 21 34
75 -6 41 -11 50 -32 56 -22 5 -23 7 -7 14 10 4 16 13 14 20 -3 6 4 17 14 23
10 7 19 19 19 26 0 8 9 18 20 21 13 4 20 15 20 31 0 19 -5 24 -25 24 -14 0
-28 7 -31 15 -4 8 -15 15 -25 15 -12 0 -23 10 -29 25 -5 14 -16 25 -25 25 -21
0 -19 33 5 63 11 14 20 37 20 51 0 14 2 26 4 26 2 0 11 3 20 6 21 8 21 -19 1
-36 -19 -16 -21 -110 -2 -110 6 1 27 14 46 29 29 26 32 33 26 63 -5 18 -9 43
-11 55 -3 30 -12 43 -27 38 -19 -7 -38 10 -31 28 5 13 10 15 27 6 16 -9 23 -8
34 7 7 10 13 23 13 29 0 16 22 35 32 28 6 -3 5 -10 -1 -16z m1086 -55 c26 -21
56 -43 65 -48 9 -5 49 -38 89 -74 40 -36 86 -75 103 -88 65 -48 276 -286 276
-311 0 -15 -34 -38 -137 -95 -76 -42 -148 -76 -160 -76 -16 0 -31 13 -49 43
-27 42 -107 164 -147 221 -56 79 -140 178 -224 263 -35 35 -63 70 -63 77 0 15
164 126 186 126 7 0 34 -17 61 -38z m-4299 -64 c24 -12 47 -28 53 -34 15 -18
-10 -60 -70 -118 -28 -27 -65 -71 -82 -97 -17 -27 -34 -49 -38 -49 -4 0 -15
-15 -26 -32 -10 -18 -27 -42 -37 -52 -10 -11 -18 -26 -18 -33 0 -7 -4 -13 -9
-13 -4 0 -20 -21 -33 -47 -69 -128 -91 -163 -103 -163 -8 0 -52 19 -97 42 -46
23 -117 56 -158 73 -45 20 -76 39 -78 49 -2 9 11 34 30 55 18 21 71 84 117
140 47 55 98 113 115 128 17 15 75 67 130 116 54 48 115 96 135 106 l36 18 45
-34 c25 -18 64 -43 88 -55z m226 -122 c28 -13 90 -41 139 -61 95 -42 100 -49
65 -105 -93 -152 -202 -383 -213 -450 -9 -58 -21 -80 -43 -80 -16 0 -145 36
-217 61 -16 6 -61 20 -100 31 -38 12 -81 31 -94 44 l-24 22 32 51 c17 28 31
55 31 60 0 5 7 14 15 21 8 7 15 19 15 28 0 9 8 25 19 36 10 12 39 51 64 87 25
36 56 78 69 94 48 58 172 185 181 185 6 0 33 -11 61 -24z m372 -152 c71 -30
455 -133 497 -134 16 0 18 -5 12 -42 -4 -24 -13 -50 -20 -58 -7 -8 -20 -42
-30 -75 -9 -33 -23 -76 -30 -95 -30 -84 -36 -108 -41 -149 -2 -25 -9 -50 -15
-57 -5 -6 -11 -30 -14 -53 -5 -56 -11 -62 -53 -56 -127 20 -177 29 -257 46
-174 38 -230 51 -260 60 -16 5 -49 14 -72 19 -28 7 -43 16 -43 27 0 22 43 138
74 199 14 29 26 59 26 67 0 9 4 19 10 22 5 3 33 54 61 113 43 89 101 182 114
182 1 0 20 -7 41 -16z m2649 -165 c0 -21 5 -24 37 -24 48 0 56 -10 21 -27 -22
-10 -30 -23 -36 -58 -10 -62 -10 -63 -3 -80 7 -16 -28 -45 -44 -35 -16 10 -40
68 -35 86 3 9 15 19 25 22 15 4 20 14 20 41 0 20 -5 45 -12 55 -13 21 -4 55
14 49 7 -3 13 -15 13 -29z m-1905 -9 c182 -24 267 -30 453 -34 109 -2 200 -6
202 -8 3 -2 4 -101 4 -219 -1 -118 0 -240 1 -272 3 -109 27 -100 -279 -92
-150 3 -299 12 -341 20 -41 8 -124 17 -184 20 -60 4 -120 11 -133 16 -22 8
-24 13 -19 57 6 61 87 346 115 407 6 11 13 31 16 45 18 71 27 82 59 76 17 -3
65 -10 106 -16z m3586 -127 c55 -60 236 -393 249 -457 4 -17 15 -57 26 -90 39
-115 69 -253 80 -366 12 -125 12 -125 3 -187 l-6 -43 -243 0 c-184 0 -246 3
-252 13 -4 6 -8 53 -10 102 -1 50 -6 110 -12 135 -6 25 -11 70 -11 100 0 77
-33 222 -80 359 -69 201 -76 218 -94 247 -26 39 -14 52 90 97 105 45 137 60
184 87 43 25 55 25 76 3z m-5606 -23 c27 -16 76 -38 108 -49 31 -10 83 -31
115 -46 56 -26 58 -28 51 -58 -4 -18 -15 -50 -24 -72 -38 -86 -76 -220 -100
-345 -5 -25 -13 -65 -18 -90 -5 -25 -10 -99 -12 -165 -1 -66 -3 -131 -4 -145
-2 -14 -4 -33 -4 -43 -2 -17 -16 -18 -244 -14 -221 4 -242 6 -255 23 -7 10
-11 24 -9 31 3 7 8 50 11 95 15 226 63 429 141 596 13 29 24 56 24 61 0 42
126 251 151 251 10 0 41 -13 69 -30z m520 -214 c69 -24 143 -51 165 -59 22 -8
59 -18 82 -21 23 -4 48 -15 57 -25 14 -15 13 -23 -5 -81 -11 -35 -24 -95 -30
-134 -24 -166 -28 -211 -31 -363 l-3 -133 -30 -5 c-24 -4 -372 -1 -478 4 -22
1 -31 8 -41 34 -19 46 -3 271 29 407 35 147 62 245 74 266 5 11 17 43 26 72
16 49 37 82 53 82 4 0 63 -20 132 -44z m4675 -41 c19 -44 40 -96 46 -115 7
-19 15 -39 19 -45 4 -5 12 -32 19 -60 7 -27 16 -66 21 -85 21 -84 30 -131 30
-160 0 -17 4 -39 10 -49 15 -29 24 -327 10 -336 -7 -4 -59 -7 -115 -6 -101 2
-104 1 -121 -24 -13 -20 -19 -23 -30 -14 -8 6 -14 20 -14 29 0 52 -18 59 -85
35 -21 -8 -41 -12 -44 -9 -8 7 33 34 46 29 18 -6 38 34 24 48 -8 8 -18 7 -35
-2 -13 -8 -29 -10 -35 -7 -15 9 -3 33 20 39 18 5 27 41 12 50 -11 6 -91 -36
-89 -47 0 -5 -9 -15 -22 -24 -23 -15 -23 -15 -20 24 3 38 5 40 61 59 40 14 57
24 54 35 -2 12 -15 14 -57 12 -30 -2 -62 -8 -70 -12 -19 -10 -51 11 -54 37 -2
10 -13 19 -24 21 -31 5 -29 40 4 52 35 14 29 46 -9 42 -30 -3 -35 9 -12 28 9
8 13 21 9 36 -5 19 -1 26 17 33 35 13 71 50 67 69 -2 9 -14 19 -28 22 -22 5
-23 7 -7 13 12 4 17 15 15 29 -4 32 -40 31 -49 -2 -6 -21 -7 -19 -8 13 -1 22
5 45 14 53 17 17 20 44 5 44 -5 0 -10 11 -10 24 0 14 -7 31 -15 39 -13 14 -9
17 33 32 81 29 206 77 237 91 58 26 110 43 128 41 12 -1 29 -28 52 -82z
m-4135 -124 c105 -30 128 -35 398 -87 l143 -28 -7 -90 c-3 -50 -11 -99 -16
-110 -6 -10 -10 -92 -10 -183 -1 -90 -4 -166 -9 -169 -27 -16 -700 2 -711 20
-12 17 -9 251 3 341 13 98 35 211 57 288 12 43 20 56 31 53 9 -3 63 -18 121
-35z m781 -145 c238 -28 374 -39 603 -45 l231 -6 1 -140 c1 -77 3 -179 5 -227
3 -81 1 -89 -21 -113 -17 -18 -31 -24 -45 -21 -11 3 -207 8 -435 11 -448 6
-520 10 -521 28 -3 57 1 340 6 346 3 5 8 42 11 83 6 74 19 113 33 104 4 -3 63
-12 132 -20z m-1737 -606 c5 -5 10 -55 11 -112 3 -123 34 -352 51 -380 4 -7
11 -30 15 -53 13 -70 36 -149 53 -180 9 -16 16 -34 16 -39 0 -5 16 -44 36 -88
20 -44 33 -85 30 -93 -4 -12 -73 -49 -253 -139 -13 -6 -23 -14 -23 -18 0 -16
-57 -8 -72 10 -8 9 -30 43 -48 75 -19 31 -38 57 -42 57 -4 0 -8 7 -8 16 0 9
-11 37 -25 63 -36 68 -109 237 -133 307 -53 154 -111 511 -94 576 5 21 8 21
241 14 130 -4 240 -11 245 -16z m657 -11 c16 -8 17 -24 33 -284 5 -77 27 -231
47 -333 21 -100 21 -103 3 -117 -11 -8 -32 -17 -49 -20 -16 -3 -41 -11 -55
-17 -14 -6 -34 -14 -45 -18 -40 -15 -111 -42 -135 -52 -156 -65 -160 -64 -194
20 -41 101 -96 259 -100 290 -3 15 -14 59 -25 97 -26 86 -28 102 -41 289 -6
91 -7 152 -1 155 14 9 544 0 562 -10z m709 -7 l105 -7 2 -120 c1 -105 11 -221
30 -372 4 -31 1 -44 -8 -47 -30 -8 -221 -47 -329 -67 -63 -12 -135 -29 -160
-39 -25 -9 -67 -23 -94 -29 -61 -15 -69 -8 -86 74 -58 286 -90 596 -63 613 13
8 453 3 603 -6z m1105 -23 c6 -6 4 -21 -4 -42 -23 -56 -43 -159 -32 -170 17
-17 40 1 43 35 2 25 10 36 32 47 16 7 31 22 34 33 2 10 11 18 20 16 13 -3 15
-29 16 -176 1 -94 -1 -172 -4 -173 -3 0 -81 -2 -175 -4 -93 -3 -224 -9 -290
-15 -182 -16 -314 -29 -375 -36 -30 -4 -73 -7 -95 -8 l-39 -1 -18 85 c-19 93
-32 398 -17 416 11 13 889 7 904 -7z m2493 -27 c2 -14 10 -22 23 -22 10 0 19
4 19 9 0 11 126 21 179 14 24 -3 45 -13 50 -22 9 -17 -11 -301 -28 -391 -15
-83 -66 -260 -90 -314 -11 -27 -21 -55 -21 -63 0 -24 -42 -93 -57 -93 -7 0
-32 8 -56 19 -62 27 -113 46 -196 72 -41 13 -95 34 -120 46 -24 13 -52 23 -60
23 -9 0 -33 5 -53 11 -41 11 -48 31 -28 84 21 55 50 227 71 415 11 107 23 198
25 202 7 11 98 10 127 -1 41 -16 58 -39 45 -61 -10 -15 -9 -22 4 -37 10 -12
14 -29 11 -50 -5 -29 -3 -33 18 -33 45 0 51 10 63 100 11 78 18 105 29 112 20
13 42 4 45 -20z m689 -11 l193 -1 6 -26 c7 -26 -20 -259 -36 -319 -4 -16 -15
-66 -23 -111 -8 -44 -27 -106 -41 -138 -14 -31 -26 -62 -26 -69 0 -15 -39
-103 -70 -157 -10 -19 -30 -58 -44 -87 -14 -28 -29 -54 -35 -57 -6 -4 -22 -29
-37 -56 -15 -27 -33 -51 -41 -54 -8 -3 -83 27 -166 68 -84 40 -160 76 -170 80
-29 10 -30 34 -4 89 49 101 93 216 103 267 2 14 14 72 25 130 28 146 38 230
38 337 1 107 7 114 86 108 28 -2 137 -4 242 -4z m-3074 -508 c8 -42 3 -606 -5
-619 -5 -8 -63 -15 -155 -19 -148 -7 -340 -26 -443 -44 -30 -5 -76 -12 -102
-16 l-48 -6 -30 62 c-16 34 -30 70 -30 79 0 10 -8 28 -19 41 -10 13 -22 40
-26 59 -3 19 -22 86 -42 148 -19 63 -37 123 -39 135 -2 12 -8 44 -14 71 -5 28
-7 53 -3 57 15 13 324 48 583 65 52 3 96 7 97 7 1 1 62 3 136 5 l135 4 5 -29z
m-1047 -75 c4 -6 8 -21 10 -32 7 -63 27 -154 40 -178 8 -15 14 -36 14 -47 0
-11 6 -35 14 -53 8 -18 20 -53 26 -78 7 -25 23 -68 36 -97 13 -28 24 -55 24
-59 0 -4 7 -15 15 -24 18 -20 37 -78 27 -84 -4 -2 -79 -23 -167 -46 -88 -23
-185 -51 -215 -62 -30 -11 -72 -27 -94 -34 -29 -11 -42 -12 -52 -3 -17 14
-111 151 -124 182 -6 12 -23 42 -39 67 -16 25 -30 52 -30 61 -1 9 -10 26 -21
39 -11 13 -20 27 -20 32 0 5 -16 43 -35 84 -19 41 -35 80 -35 87 -1 6 -9 30
-20 52 -23 47 -24 55 -9 55 6 0 25 6 42 14 18 8 46 16 62 19 38 6 373 83 440
102 63 17 102 18 111 3z m-740 -185 c15 -49 88 -239 95 -248 4 -5 20 -35 37
-65 57 -108 84 -155 103 -181 10 -15 19 -31 19 -37 0 -5 19 -33 41 -61 24 -30
38 -56 33 -61 -19 -18 -245 -130 -263 -130 -32 0 -208 182 -313 325 -4 5 -25
33 -46 60 -59 77 -153 235 -146 246 6 10 97 54 144 69 14 5 81 29 150 53 149
53 139 51 146 30z m3749 -29 c72 -16 342 -109 367 -125 14 -11 34 -19 45 -19
10 0 25 -5 33 -10 13 -8 10 -19 -19 -72 -19 -35 -38 -65 -41 -68 -4 -3 -13
-16 -20 -30 -55 -106 -308 -412 -356 -430 -17 -7 -43 2 -108 36 -47 24 -90 44
-97 44 -7 0 -20 6 -28 13 -9 8 -38 22 -64 31 -27 10 -51 24 -54 32 -3 7 10 39
29 71 19 32 41 72 49 88 7 17 24 45 37 64 12 19 22 40 22 47 0 7 20 55 44 106
24 51 47 107 50 123 11 51 49 115 66 110 8 -2 29 -7 45 -11z m-4250 -196 c21
-44 39 -74 57 -95 8 -10 24 -35 36 -56 12 -20 26 -43 32 -50 6 -6 21 -26 33
-43 44 -62 119 -159 135 -175 86 -85 182 -190 182 -199 0 -6 -19 -19 -42 -30
-24 -11 -62 -31 -86 -45 -52 -30 -63 -31 -88 -4 -10 12 -39 33 -64 47 -42 25
-84 55 -155 112 -60 49 -278 270 -330 336 -29 36 -51 72 -48 79 2 8 50 36 106
64 56 28 116 60 132 71 46 31 82 27 100 -12z m4890 -42 c39 -19 109 -52 157
-75 47 -22 89 -45 93 -51 9 -15 -11 -43 -89 -124 -37 -38 -70 -75 -74 -82 -18
-31 -240 -221 -374 -319 -50 -37 -88 -44 -111 -21 -7 8 -29 23 -48 33 -89 48
-118 82 -85 100 15 9 168 173 199 214 10 13 26 35 37 49 43 53 91 127 106 163
9 20 20 37 25 37 5 0 9 4 9 10 0 15 63 100 74 100 6 0 43 -15 81 -34z m-2609
-197 c8 -13 13 -505 5 -517 -3 -5 -60 -12 -126 -16 -166 -9 -193 -12 -247 -21
-46 -7 -46 -7 -77 35 -17 24 -31 47 -31 52 0 5 -14 26 -31 47 -32 37 -81 121
-141 241 -18 36 -36 67 -40 68 -13 6 -9 42 5 46 74 22 351 54 526 61 62 2 116
7 119 10 9 9 30 6 38 -6z m-747 -173 c23 -47 41 -87 41 -90 0 -4 14 -25 30
-48 17 -22 30 -45 30 -51 0 -5 11 -22 25 -39 14 -16 25 -35 25 -42 0 -7 18
-37 40 -66 22 -29 40 -57 40 -61 0 -4 -24 -15 -52 -24 -29 -9 -73 -25 -98 -35
-25 -10 -72 -27 -105 -37 l-60 -19 -40 28 c-22 16 -42 32 -45 37 -3 4 -32 29
-65 57 -97 79 -305 300 -305 323 0 14 52 37 125 57 28 7 111 31 185 53 191 56
180 58 229 -43z m2400 -115 c32 -15 75 -34 97 -41 50 -16 134 -58 134 -67 0
-11 -43 -53 -55 -53 -6 0 -33 -23 -60 -51 -28 -28 -59 -54 -71 -59 -11 -4 -57
-35 -101 -69 -45 -34 -83 -61 -87 -61 -3 0 -31 -16 -63 -35 -82 -50 -126 -46
-142 11 -6 23 -3 32 13 46 17 13 19 21 10 34 -5 10 -20 18 -32 19 -24 2 -39
12 -30 20 3 3 18 1 33 -5 35 -13 55 -7 55 19 0 10 7 21 15 25 8 3 15 14 15 24
0 11 7 25 15 32 8 7 15 22 15 34 0 13 12 28 30 38 16 9 50 48 75 87 38 59 53
75 73 80 2 1 29 -12 61 -28z m-2998 -26 c33 -45 189 -205 274 -280 103 -90
135 -121 135 -131 0 -13 -87 -64 -110 -64 -26 0 -104 35 -153 69 -23 15 -82
54 -131 87 -50 32 -98 66 -108 76 -10 10 -24 18 -30 18 -15 0 -90 61 -128 103
-13 15 -30 27 -37 27 -66 0 177 127 248 129 9 1 27 -15 40 -34z m-323 -171
c28 -25 75 -63 104 -84 29 -22 58 -44 65 -49 6 -6 35 -24 65 -42 29 -18 60
-38 68 -45 15 -12 38 -25 158 -92 70 -38 83 -56 59 -80 -15 -14 -23 -14 -69
-3 -29 8 -60 19 -68 25 -8 7 -46 25 -85 40 -105 41 -225 99 -225 108 0 4 -6 8
-14 8 -21 0 -251 118 -270 139 -16 17 -13 21 60 70 42 28 81 51 88 51 6 0 35
-21 64 -46z m3719 2 c26 -18 58 -36 70 -40 50 -16 47 -33 -12 -70 -30 -20 -57
-36 -59 -36 -2 0 -27 -16 -56 -35 -29 -19 -56 -35 -61 -35 -4 0 -50 -20 -101
-44 -99 -46 -160 -71 -168 -69 -3 0 -31 -12 -63 -28 l-58 -30 -26 21 c-14 11
-32 20 -39 20 -27 0 -13 20 29 41 23 12 61 35 84 50 23 16 45 29 48 29 9 0
211 156 258 200 41 37 75 59 93 60 7 0 34 -15 61 -34z m-2040 -166 c8 -101 4
-405 -5 -408 -6 -2 -32 21 -59 50 -26 29 -65 70 -85 91 -21 21 -46 53 -57 71
-11 17 -32 43 -46 56 -33 31 -109 140 -98 141 4 1 37 7 73 14 36 7 112 12 170
11 104 -1 105 -1 107 -26z m771 -25 c57 -14 114 -25 127 -25 35 0 106 -31 102
-44 -3 -11 -135 -104 -149 -105 -3 -1 -30 -17 -59 -36 -30 -19 -57 -35 -62
-35 -5 0 -41 -15 -80 -34 -145 -68 -212 -98 -261 -118 -28 -11 -56 -24 -62
-29 -18 -14 -110 -23 -118 -11 -3 5 7 18 22 28 30 19 156 145 212 211 126 150
195 223 209 223 9 0 62 -11 119 -25z m-1149 -87 c40 -51 79 -101 87 -111 8 -9
14 -20 14 -24 0 -3 17 -22 38 -42 20 -20 66 -67 100 -104 50 -53 60 -68 48
-73 -14 -5 -85 22 -151 58 -11 6 -65 35 -120 63 -55 29 -136 75 -180 104 -84
53 -172 108 -207 127 -19 11 -19 13 13 28 50 23 208 64 250 65 34 1 40 -4 108
-91z"/>
<path d="M5165 5300 c-3 -5 -3 -15 0 -21 4 -5 0 -18 -9 -28 -20 -22 -11 -51
15 -51 16 0 19 6 17 35 -1 19 3 40 10 47 7 7 12 16 12 20 0 12 -38 10 -45 -2z"/>
<path d="M4502 5209 c2 -15 12 -25 29 -30 33 -8 52 3 47 27 -2 14 -13 20 -41
22 -35 3 -38 1 -35 -19z"/>
<path d="M5056 5221 c-11 -17 6 -41 29 -41 30 0 41 16 25 35 -14 17 -46 20
-54 6z"/>
<path d="M4637 5203 c-10 -9 -9 -53 1 -53 20 0 43 27 36 43 -6 17 -25 23 -37
10z"/>
<path d="M4096 5169 c-3 -17 -6 -38 -6 -45 0 -17 36 -19 46 -2 5 7 10 4 15
-10 6 -15 17 -21 36 -22 55 0 91 -5 99 -12 16 -16 34 -7 34 16 0 29 -17 43
-32 28 -6 -6 -17 -7 -27 -2 -9 5 -24 11 -33 14 -10 3 -18 15 -18 26 0 15 -7
20 -24 20 -14 0 -28 5 -31 10 -3 6 -17 10 -29 10 -18 0 -25 -7 -30 -31z"/>
<path d="M4948 5174 c-12 -11 5 -44 23 -44 14 0 19 7 19 25 0 18 -5 25 -18 25
-10 0 -21 -3 -24 -6z"/>
<path d="M5118 5160 c-7 -11 -19 -20 -26 -20 -7 0 -17 -10 -22 -22 -5 -13 -9
-18 -9 -11 -1 17 -31 44 -42 38 -16 -10 -10 -51 10 -69 19 -18 47 -14 36 5 -4
5 5 9 18 9 14 0 39 14 57 30 27 25 30 33 20 45 -17 20 -27 19 -42 -5z"/>
<path d="M4568 5159 c-12 -7 -15 -18 -11 -42 4 -30 3 -33 -23 -35 -35 -3 -47
-14 -38 -35 7 -19 25 -22 40 -8 5 5 20 11 34 13 18 2 25 9 25 25 0 12 4 25 8
29 23 24 -6 69 -35 53z"/>
<path d="M4460 5140 c0 -11 7 -23 15 -27 19 -7 22 -4 27 22 2 14 -3 21 -19 23
-18 3 -23 -2 -23 -18z"/>
<path d="M4654 5085 c-8 -20 14 -73 35 -85 10 -5 23 -5 30 0 11 6 9 17 -8 54
-23 46 -47 59 -57 31z"/>
<path d="M4068 5072 c-21 -4 -23 -13 -6 -30 16 -16 35 -15 41 2 7 18 -12 34
-35 28z"/>
<path d="M4300 5040 c-6 -11 -17 -20 -24 -20 -18 0 -27 -35 -13 -49 18 -18 36
-12 43 13 3 13 14 26 25 29 11 3 19 14 19 26 0 28 -35 28 -50 1z"/>
<path d="M4950 5035 c-7 -8 -18 -15 -24 -15 -7 0 -13 -10 -13 -22 -1 -13 -7
-33 -14 -45 -16 -29 -6 -53 20 -46 14 4 21 13 21 30 0 15 12 37 31 54 19 17
29 35 25 44 -7 19 -30 19 -46 0z"/>
<path d="M5056 5034 c-4 -10 -2 -22 3 -27 14 -14 43 0 39 20 -4 24 -34 28 -42
7z"/>
<path d="M4614 5005 c-4 -9 -2 -21 5 -28 6 -6 11 -21 11 -33 0 -22 46 -64 69
-64 20 0 11 42 -13 61 -14 11 -26 32 -28 47 -3 31 -34 43 -44 17z"/>
<path d="M4537 5003 c-13 -12 -7 -44 8 -49 22 -9 44 13 38 36 -5 19 -33 27
-46 13z"/>
<path d="M5134 4996 c-7 -19 3 -36 22 -36 10 0 14 8 12 22 -4 26 -26 36 -34
14z"/>
<path d="M4461 4986 c-8 -10 -7 -17 3 -26 17 -13 36 -6 36 15 0 19 -27 26 -39
11z"/>
<path d="M4990 4974 c0 -28 28 -44 41 -23 12 19 7 31 -19 40 -19 7 -22 5 -22
-17z"/>
<path d="M4386 4982 c-8 -14 6 -53 18 -49 18 6 20 57 2 57 -8 0 -17 -4 -20 -8z"/>
<path d="M4724 4965 c-4 -9 -2 -21 4 -27 15 -15 44 -1 40 19 -4 23 -36 29 -44
8z"/>
<path d="M4830 4961 c-5 -11 -10 -29 -10 -40 0 -11 -11 -28 -25 -37 -29 -19
-31 -27 -9 -49 12 -12 19 -13 30 -4 8 6 14 18 14 25 0 8 7 14 15 14 8 0 16 6
17 13 0 6 2 17 2 22 1 6 5 16 9 23 11 17 -1 52 -18 52 -8 0 -19 -9 -25 -19z"/>
<path d="M5307 4973 c-11 -10 -8 -43 3 -43 6 0 10 -4 10 -8 0 -4 -15 -6 -33
-4 -35 4 -65 -18 -52 -38 8 -13 72 -13 80 0 3 6 17 7 31 4 27 -7 34 15 11 38
-8 7 -12 19 -9 27 6 19 -27 39 -41 24z"/>
<path d="M4316 4952 c-3 -5 -16 -7 -30 -5 -18 4 -26 0 -31 -16 -3 -11 -3 -25
0 -31 8 -13 35 -13 35 0 0 5 15 13 33 18 17 4 32 15 32 22 0 17 -30 26 -39 12z"/>
<path d="M5510 4940 c-8 -15 -21 -20 -55 -20 -34 0 -47 -5 -55 -19 -11 -22 -6
-28 30 -31 46 -4 59 0 65 19 3 12 17 21 33 23 19 2 28 10 30 26 4 29 -33 31
-48 2z"/>
<path d="M5076 4934 c-3 -8 -1 -24 5 -35 7 -14 7 -24 0 -33 -12 -15 12 -56 25
-43 14 13 15 110 1 119 -18 11 -24 10 -31 -8z"/>
<path d="M5150 4915 c0 -20 4 -26 18 -23 9 2 17 12 17 23 0 11 -8 21 -17 23
-14 3 -18 -3 -18 -23z"/>
<path d="M4415 4910 c-8 -13 14 -42 26 -34 5 3 9 14 9 25 0 20 -24 26 -35 9z"/>
<path d="M4517 4907 c-6 -16 10 -37 28 -37 27 0 50 -42 50 -91 0 -27 -3 -49
-7 -49 -16 0 -7 -30 11 -39 24 -13 32 -5 21 24 -6 15 -4 29 4 41 18 27 26 63
15 70 -5 3 -9 18 -9 33 0 36 -15 48 -67 57 -30 5 -41 3 -46 -9z"/>
<path d="M4972 4892 c-18 -15 -32 -33 -32 -39 0 -20 80 -57 93 -44 9 9 8 17
-1 31 -8 13 -9 27 -2 44 7 19 5 26 -6 30 -19 7 -14 10 -52 -22z"/>
<path d="M4330 4882 c0 -4 -10 -12 -21 -17 -26 -12 -53 -85 -38 -100 7 -7 16
-3 29 13 15 18 23 21 38 13 31 -17 43 0 36 52 -5 37 -11 47 -25 47 -11 0 -19
-3 -19 -8z"/>
<path d="M4445 4868 c-42 -33 -25 -72 21 -47 13 7 26 10 28 8 3 -2 5 -45 7
-94 3 -117 16 -165 46 -165 26 0 30 12 10 28 -13 11 -14 95 -2 174 6 46 -2 68
-26 68 -12 0 -19 7 -19 19 0 27 -35 32 -65 9z"/>
<path d="M4685 4796 c-4 -47 -3 -82 4 -94 6 -12 8 -27 5 -35 -7 -20 13 -32 30
-18 16 14 39 -9 31 -30 -7 -21 10 -41 31 -37 19 4 22 19 10 48 -9 23 19 58 35
43 7 -7 19 -9 34 -3 17 7 25 5 29 -6 7 -19 45 -18 53 1 7 19 -26 47 -45 40 -8
-3 -20 2 -28 10 -20 20 -31 19 -44 -5 -8 -15 -17 -18 -38 -14 -19 4 -32 0 -41
-10 -21 -25 -28 -11 -23 45 3 37 1 54 -9 61 -11 7 -11 11 -1 15 27 11 8 63
-23 63 -1 0 -6 -33 -10 -74z"/>
<path d="M5172 4851 c-9 -5 -11 -17 -6 -36 7 -30 9 -29 -43 -8 -6 2 -16 -5
-23 -16 -6 -12 -20 -21 -31 -21 -11 0 -23 -9 -27 -21 -8 -20 -9 -20 -33 10
-27 34 -43 38 -65 16 -9 -8 -24 -15 -35 -15 -10 0 -19 7 -19 15 0 8 9 15 20
15 15 0 20 7 20 25 0 14 -3 25 -6 25 -15 0 -44 -22 -44 -34 0 -7 -8 -13 -17
-13 -64 1 -91 -5 -97 -18 -8 -21 21 -31 44 -17 14 9 19 8 24 -3 3 -8 17 -15
31 -15 14 0 25 -4 25 -10 0 -14 37 -13 42 2 6 17 28 0 28 -22 0 -10 9 -21 19
-25 11 -3 22 -12 25 -20 4 -11 -1 -13 -24 -8 -29 5 -30 4 -30 -32 0 -32 -3
-37 -19 -32 -32 8 -47 -8 -34 -36 10 -21 9 -26 -7 -30 -17 -4 -18 -8 -7 -31 8
-19 18 -25 31 -22 11 3 28 0 39 -6 17 -9 24 -7 37 9 20 26 38 19 32 -12 -3
-17 1 -27 13 -31 29 -12 36 8 26 81 -6 43 -6 75 0 86 7 13 5 20 -8 28 -15 8
-16 12 -5 22 6 7 12 23 12 35 0 33 21 41 38 16 19 -29 42 -17 42 22 l0 31 20
-32 c11 -18 26 -33 35 -33 17 0 30 41 22 70 -3 11 -1 23 4 26 15 9 10 40 -9
57 -21 19 -22 20 -40 8z"/>
<path d="M5270 4825 c-18 -22 -3 -55 26 -55 20 0 24 5 24 29 0 17 -6 31 -16
35 -21 8 -20 8 -34 -9z"/>
<path d="M4406 4764 c-3 -8 -1 -24 4 -34 6 -10 10 -27 10 -38 0 -11 6 -25 14
-31 12 -10 18 -8 31 12 14 23 14 28 -1 66 -17 43 -46 56 -58 25z"/>
<path d="M4297 4743 c-5 -11 -8 -103 -3 -103 19 0 36 16 36 34 0 17 6 21 33
21 39 0 45 28 7 33 -14 2 -29 8 -34 13 -12 11 -33 12 -39 2z"/>
<path d="M5240 4695 c-16 -19 -5 -47 16 -43 27 5 42 37 24 48 -20 13 -26 12
-40 -5z"/>
<path d="M5086 4655 c-3 -9 -1 -25 4 -35 6 -10 9 -29 7 -42 -1 -18 3 -23 22
-23 29 0 37 17 19 36 -7 8 -13 27 -13 44 0 33 -28 47 -39 20z"/>
<path d="M4584 4645 c-7 -18 3 -35 22 -35 8 0 14 10 14 25 0 27 -27 35 -36 10z"/>
<path d="M5165 4640 c-8 -25 1 -40 25 -40 25 0 33 15 20 40 -14 26 -37 26 -45
0z"/>
<path d="M4367 4643 c-13 -12 -7 -41 8 -47 18 -6 30 16 21 39 -6 16 -18 19
-29 8z"/>
<path d="M4825 4620 c-4 -12 -2 -27 4 -34 13 -16 4 -26 -24 -26 -25 0 -45 -18
-45 -41 0 -23 22 -30 45 -13 10 8 29 14 42 14 13 0 24 6 24 13 4 37 1 86 -5
96 -11 18 -34 13 -41 -9z"/>
<path d="M4439 4628 c-7 -25 -4 -40 11 -48 19 -10 30 4 30 36 0 11 -38 22 -41
12z"/>
<path d="M5237 4614 c-10 -11 -9 -42 3 -49 20 -12 51 6 48 28 -3 22 -36 35
-51 21z"/>
<path d="M4298 4578 c-7 -19 2 -38 17 -38 16 0 38 34 28 44 -11 11 -41 7 -45
-6z"/>
<path d="M4381 4577 c-14 -18 -11 -85 6 -98 16 -14 43 4 44 30 0 10 2 11 6 4
2 -7 11 -13 19 -13 8 0 14 -9 14 -19 0 -25 17 -36 34 -21 11 8 15 8 18 -1 7
-22 48 0 48 27 0 25 -14 30 -39 15 -21 -14 -41 -2 -41 24 0 31 -11 37 -42 21
-25 -13 -26 -12 -32 15 -6 31 -17 37 -35 16z"/>
<path d="M4594 4575 c-4 -9 -2 -21 4 -27 15 -15 44 -1 40 19 -4 23 -36 29 -44
8z"/>
<path d="M4690 4565 c0 -18 5 -25 19 -25 20 0 31 17 24 38 -3 6 -13 12 -24 12
-14 0 -19 -7 -19 -25z"/>
<path d="M5164 4546 c-9 -24 4 -48 23 -44 12 2 18 12 18 28 0 29 -32 41 -41
16z"/>
<path d="M4181 4532 c-15 -5 -14 -49 1 -54 7 -3 13 -15 13 -29 0 -17 6 -25 23
-27 12 -2 22 -10 22 -18 0 -16 45 -20 55 -4 12 19 -6 50 -29 50 -33 0 -39 12
-13 24 12 7 22 20 22 31 0 16 -9 21 -41 25 -23 3 -46 4 -53 2z"/>
<path d="M4617 4524 c-15 -15 -7 -45 11 -42 9 2 17 12 17 22 0 20 -16 31 -28
20z"/>
<path d="M5248 4518 c0 -7 -2 -20 -2 -28 -1 -10 -10 -14 -26 -12 -14 1 -33 -3
-44 -11 -16 -12 -17 -16 -5 -35 11 -17 11 -24 1 -34 -14 -14 -16 -48 -2 -48
15 0 12 -19 -5 -36 -8 -8 -12 -21 -9 -29 7 -17 40 -20 49 -6 3 6 25 20 50 32
50 25 63 46 41 67 -13 13 -18 13 -40 -1 -31 -21 -46 -21 -46 -2 0 9 17 20 44
27 l44 12 -2 46 c-1 25 -6 51 -10 58 -10 16 -36 15 -38 0z"/>
<path d="M4696 4495 c-19 -19 -10 -45 14 -45 20 0 36 33 25 50 -9 14 -21 12
-39 -5z"/>
<path d="M5087 4491 c-6 -26 7 -44 29 -39 12 2 20 13 22 31 3 23 0 27 -21 27
-16 0 -26 -7 -30 -19z"/>
<path d="M4322 4488 c-7 -7 -12 -18 -12 -25 0 -18 29 -16 37 3 8 21 -10 37
-25 22z"/>
<path d="M4383 4430 c-3 -11 -13 -20 -23 -20 -46 0 -65 -25 -36 -49 17 -14 44
-5 48 16 5 24 68 24 68 0 0 -25 30 -34 46 -13 17 25 7 46 -23 46 -16 0 -27 7
-30 20 -3 11 -14 20 -25 20 -11 0 -22 -9 -25 -20z"/>
<path d="M4612 4437 c-9 -10 -7 -20 5 -37 12 -17 13 -25 5 -28 -27 -9 -5 -42
28 -42 17 0 20 34 5 50 -11 12 -13 20 -6 25 6 3 11 15 11 26 0 22 -32 26 -48
6z"/>
<path d="M4770 4432 c0 -16 9 -21 43 -26 23 -3 60 -2 82 4 31 7 41 6 48 -6 4
-7 16 -14 25 -15 12 0 10 -3 -7 -10 -15 -6 -21 -14 -17 -25 3 -9 6 -18 6 -20
0 -9 39 -4 45 6 15 24 24 7 10 -20 -9 -17 -23 -30 -35 -30 -10 0 -21 -4 -25
-9 -3 -6 -13 -9 -23 -9 -9 0 -24 -2 -33 -6 -11 -5 -19 1 -27 20 -11 24 -16 25
-50 19 -44 -8 -57 -18 -48 -40 5 -13 15 -15 55 -10 44 5 51 3 61 -16 15 -28 7
-33 -44 -30 -28 1 -47 -3 -55 -13 -22 -26 -2 -36 68 -36 74 0 96 12 78 41 -9
15 -8 22 6 36 10 11 17 13 17 5 0 -7 8 -12 18 -12 16 -1 16 -1 0 -14 -23 -17
-23 -42 -1 -50 21 -9 33 11 26 45 -6 30 11 69 31 69 24 0 39 27 27 49 -7 13
-8 22 -1 26 16 10 12 55 -5 61 -19 8 -48 -15 -41 -33 3 -7 1 -13 -4 -13 -5 0
-10 17 -12 38 l-3 37 -107 3 c-101 3 -108 2 -108 -16z"/>
<path d="M4701 4426 c-16 -19 -7 -46 14 -46 22 0 30 29 13 46 -13 13 -16 13
-27 0z"/>
<path d="M5103 4433 c-21 -8 -16 -43 6 -43 20 0 35 25 25 41 -6 10 -12 10 -31
2z"/>
<path d="M3716 4404 c-9 -22 1 -34 30 -34 25 0 28 7 18 34 -8 21 -40 21 -48 0z"/>
<path d="M4547 4407 c-3 -8 -1 -20 3 -27 7 -11 11 -11 24 -1 9 8 16 20 16 27
0 18 -36 18 -43 1z"/>
<path d="M4782 4379 c-13 -5 -22 -17 -22 -29 0 -16 7 -20 33 -22 69 -3 88 -5
93 -11 4 -4 15 -2 26 4 24 13 9 43 -24 45 -13 1 -37 6 -53 12 -17 5 -40 6 -53
1z"/>
<path d="M4206 4371 c-7 -11 3 -41 14 -41 13 0 32 29 25 40 -8 12 -32 13 -39
1z"/>
<path d="M4283 4353 c-21 -8 -16 -43 6 -43 24 0 33 13 25 34 -6 17 -11 18 -31
9z"/>
<path d="M5084 4348 c-12 -19 -10 -69 3 -80 7 -6 19 -8 27 -5 17 7 26 73 12
87 -13 13 -33 13 -42 -2z"/>
<path d="M4347 4333 c-14 -13 -7 -42 8 -37 8 4 15 15 15 25 0 19 -11 25 -23
12z"/>
<path d="M4490 4306 c0 -34 16 -41 34 -15 18 26 13 39 -15 39 -14 0 -19 -7
-19 -24z"/>
<path d="M4555 4320 c-11 -17 6 -32 31 -27 18 3 24 -1 26 -17 5 -32 43 -28 43
4 0 20 -6 26 -27 28 -16 2 -28 8 -28 13 0 12 -37 12 -45 -1z"/>
<path d="M4410 4302 c0 -24 8 -32 26 -25 22 8 17 43 -6 43 -13 0 -20 -7 -20
-18z"/>
<path d="M4690 4301 c0 -24 13 -33 34 -25 27 10 20 44 -9 44 -18 0 -25 -5 -25
-19z"/>
<path d="M4205 4300 c-11 -17 5 -51 23 -48 23 4 23 52 0 56 -9 2 -19 -2 -23
-8z"/>
<path d="M5257 4303 c-8 -14 12 -53 27 -53 20 0 29 16 21 40 -6 19 -39 28 -48
13z"/>
<path d="M4275 4250 c-3 -5 -17 -10 -30 -10 -31 0 -41 -17 -21 -39 11 -12 13
-20 5 -28 -7 -7 -8 -17 -1 -30 6 -10 8 -30 5 -44 -7 -39 26 -48 52 -15 11 14
36 29 55 32 65 13 62 43 -3 45 -63 2 -88 11 -77 29 6 10 26 15 61 15 64 0 75
18 23 40 -42 18 -60 19 -69 5z"/>
<path d="M4484 4245 c-4 -9 -2 -21 4 -27 16 -16 47 -5 47 17 0 26 -42 34 -51
10z"/>
<path d="M4570 4235 c-12 -15 -7 -45 7 -45 4 0 17 7 27 15 16 12 17 17 6 30
-16 19 -24 19 -40 0z"/>
<path d="M5185 4222 c-19 -19 -37 -27 -51 -24 -29 5 -46 -25 -35 -64 5 -19 14
-29 27 -29 15 0 19 7 19 35 0 30 3 35 21 32 12 -2 38 6 57 17 36 20 36 20 42
1 8 -24 30 -26 39 -4 11 29 7 42 -13 37 -10 -2 -25 3 -34 11 -22 23 -38 20
-72 -12z"/>
<path d="M4681 4230 c-25 -3 -46 -11 -49 -17 -2 -7 0 -13 5 -14 87 -11 103 -9
103 10 0 26 -6 28 -59 21z"/>
<path d="M5022 4228 c-8 -8 -9 -15 -1 -25 18 -21 41 -16 37 9 -4 26 -19 33
-36 16z"/>
<path d="M4424 4185 c-8 -20 4 -35 27 -35 14 0 19 7 19 25 0 18 -5 25 -20 25
-11 0 -23 -7 -26 -15z"/>
<path d="M4504 4186 c-7 -19 3 -36 22 -36 10 0 14 8 12 22 -4 26 -26 36 -34
14z"/>
<path d="M4576 4164 c-20 -20 -20 -40 0 -48 22 -9 34 1 34 29 0 31 -14 39 -34
19z"/>
<path d="M5031 4146 c-9 -10 -8 -16 4 -26 19 -16 41 1 32 24 -8 20 -21 20 -36
2z"/>
<path d="M5283 4153 c-7 -2 -13 -17 -13 -32 0 -22 4 -28 20 -27 27 1 41 25 29
48 -10 19 -15 20 -36 11z"/>
<path d="M4700 4140 c-11 -7 -11 -11 -1 -24 18 -22 41 -20 41 3 0 22 -21 33
-40 21z"/>
<path d="M4963 4130 c-4 -14 -14 -20 -34 -20 -34 0 -44 -13 -24 -30 12 -10 18
-10 31 1 9 8 27 12 40 11 25 -4 30 10 18 42 -9 22 -25 20 -31 -4z"/>
<path d="M4494 4106 c-3 -9 -16 -16 -29 -16 -27 0 -49 -24 -41 -45 8 -22 44
-19 51 4 3 12 17 21 33 23 19 2 27 9 27 23 0 24 -33 33 -41 11z"/>
<path d="M4766 4095 c-13 -14 -30 -23 -38 -20 -8 3 -21 -1 -28 -10 -10 -12
-10 -18 1 -31 12 -15 15 -14 32 7 14 18 30 24 58 25 36 0 39 -2 37 -25 -3 -21
2 -27 22 -29 24 -3 25 0 26 53 l2 55 -45 0 c-34 0 -49 -6 -67 -25z"/>
<path d="M5164 4105 c-8 -19 3 -34 32 -45 47 -18 71 11 36 43 -23 21 -61 22
-68 2z"/>
<path d="M4640 4089 c0 -15 5 -20 22 -17 34 5 37 38 4 38 -20 0 -26 -5 -26
-21z"/>
<path d="M4355 4070 c-4 -6 -14 -10 -23 -9 -36 3 -43 -1 -40 -23 4 -28 44 -33
42 -5 -1 13 1 15 10 8 18 -15 58 -2 54 18 -4 19 -33 27 -43 11z"/>
<path d="M5003 4064 c-21 -9 -33 -21 -33 -33 0 -25 15 -34 37 -22 10 5 31 14
46 20 19 7 27 17 25 29 -4 22 -34 25 -75 6z"/>
<path d="M5097 4074 c-13 -13 -7 -42 10 -48 18 -7 46 20 40 39 -4 12 -40 19
-50 9z"/>
<path d="M4564 4056 c-8 -21 3 -36 27 -36 15 0 20 6 17 22 -4 27 -35 37 -44
14z"/>
<path d="M4507 4029 c-3 -12 0 -22 8 -25 20 -8 35 4 35 27 0 26 -36 25 -43 -2z"/>
<path d="M4900 4010 c-7 -4 -11 -17 -8 -27 3 -11 -3 -31 -13 -44 -10 -13 -19
-18 -19 -11 0 18 -37 15 -44 -4 -10 -27 -7 -34 19 -34 14 0 25 5 25 10 0 6 11
8 25 4 14 -3 32 -1 40 6 8 6 18 9 24 6 16 -10 41 5 41 25 0 21 -12 24 -41 8
-19 -10 -20 -8 -14 24 7 36 -9 53 -35 37z"/>
<path d="M4612 3993 c-12 -24 -4 -43 18 -43 25 0 33 15 20 40 -13 25 -26 26
-38 3z"/>
<path d="M4430 3980 c0 -22 1 -23 24 -14 23 9 20 34 -4 34 -13 0 -20 -7 -20
-20z"/>
<path d="M4766 3983 c-10 -25 23 -48 41 -30 8 7 11 21 7 30 -8 22 -40 22 -48
0z"/>
<path d="M5028 3978 c-7 -19 2 -38 17 -38 15 0 28 27 19 41 -8 13 -31 11 -36
-3z"/>
<path d="M4670 3971 c0 -5 7 -14 16 -22 13 -10 17 -10 25 2 14 23 11 29 -16
29 -14 0 -25 -4 -25 -9z"/>
<path d="M5097 3963 c-4 -3 -7 -15 -7 -25 0 -13 7 -18 25 -18 20 0 25 5 25 25
0 18 -5 25 -18 25 -10 0 -22 -3 -25 -7z"/>
<path d="M4527 3933 c-13 -13 -7 -53 8 -53 21 0 37 34 23 48 -14 14 -22 15
-31 5z"/>
<path d="M4717 3913 c-22 -21 27 -83 66 -83 23 0 36 -23 30 -52 -5 -26 -23
-40 -23 -18 0 6 -19 19 -42 30 -70 31 -80 43 -68 75 6 15 8 30 5 33 -3 3 -27
7 -54 8 -53 3 -73 -14 -44 -37 13 -11 17 -10 29 6 16 21 19 20 27 -16 7 -29
-15 -60 -28 -39 -3 5 -17 10 -30 10 -13 0 -27 5 -30 10 -10 16 -45 -8 -45 -30
0 -13 7 -20 20 -20 11 0 20 5 20 11 0 6 8 1 18 -11 15 -19 22 -21 39 -11 24
12 50 6 74 -18 9 -9 36 -23 60 -31 24 -8 49 -21 55 -29 10 -13 14 -13 28 -2 9
7 16 22 16 32 0 11 5 19 10 19 6 0 10 18 10 40 0 38 1 39 29 34 16 -4 32 -1
35 5 5 8 13 7 27 -3 11 -7 28 -12 38 -9 11 3 21 -2 24 -11 8 -20 31 -21 47 -1
10 13 10 19 -4 34 -15 16 -15 19 -1 31 30 25 12 57 -25 45 -13 -4 -20 -15 -20
-31 0 -25 -19 -30 -89 -26 -14 1 -30 -3 -37 -9 -19 -16 -57 -7 -77 19 -10 12
-22 20 -27 17 -5 -3 -11 4 -15 15 -6 19 -35 27 -48 13z"/>
<path d="M4364 3877 c-9 -5 -39 -9 -66 -9 -51 0 -72 -18 -49 -41 9 -9 16 -9
31 1 12 7 21 8 25 2 13 -21 88 -5 107 23 11 18 40 -14 34 -37 -3 -12 -1 -28 4
-36 8 -13 11 -13 24 0 10 11 13 28 9 61 l-5 47 -49 -1 c-26 0 -56 -5 -65 -10z"/>
<path d="M5080 3835 c0 -19 5 -25 23 -25 12 0 41 -11 64 -24 l41 -24 23 24
c12 13 26 21 30 18 15 -9 49 16 43 31 -8 19 -50 19 -58 0 -4 -12 -11 -13 -31
-5 -15 6 -39 10 -55 10 -16 0 -32 5 -35 10 -3 6 -15 10 -26 10 -14 0 -19 -7
-19 -25z"/>
<path d="M4367 3790 c-14 -11 -30 -20 -37 -20 -14 0 -9 -42 6 -47 7 -2 18 2
25 10 8 7 22 16 32 20 10 4 17 17 17 32 0 30 -9 31 -43 5z"/>
<path d="M4253 3769 c-18 -18 2 -48 27 -42 14 4 20 12 18 27 -3 24 -28 32 -45
15z"/>
<path d="M4898 3772 c-10 -2 -18 -12 -18 -23 0 -27 30 -37 46 -14 11 15 15 16
27 3 12 -12 12 -17 1 -33 -16 -21 -10 -35 15 -35 28 0 45 25 28 41 -7 7 -11
25 -9 41 4 27 3 28 -34 25 -22 -1 -47 -3 -56 -5z"/>
<path d="M4613 3763 c-7 -2 -13 -15 -13 -28 0 -13 -10 -31 -21 -39 -25 -17
-19 -46 10 -46 22 0 36 29 22 43 -7 7 -3 14 12 22 36 17 26 63 -10 48z"/>
<path d="M5180 3730 c0 -25 15 -33 38 -21 13 7 22 7 30 -1 15 -15 44 -1 40 19
-2 14 -15 18 -56 19 -45 2 -52 0 -52 -16z"/>
<path d="M5015 3729 c-12 -18 5 -26 57 -25 39 1 53 5 53 16 0 11 -14 15 -52
16 -29 2 -55 -2 -58 -7z"/>
<path d="M4430 3711 c0 -24 19 -32 44 -19 14 8 21 6 27 -5 14 -23 49 -9 49 19
0 23 -3 24 -60 24 -52 0 -60 -2 -60 -19z"/>
<path d="M4375 3711 c-6 -5 -35 -13 -65 -18 -46 -7 -56 -12 -58 -31 -3 -20 1
-22 42 -22 35 0 48 5 56 20 6 11 21 20 34 20 23 0 41 22 29 34 -9 9 -28 7 -38
-3z"/>
<path d="M4657 3713 c-16 -15 -6 -34 15 -31 29 4 38 38 10 38 -10 0 -22 -3
-25 -7z"/>
<path d="M4728 3690 c-18 -11 -14 -50 6 -50 21 0 38 17 34 35 -4 22 -18 27
-40 15z"/>
<path d="M4830 3677 c-38 -17 -46 -32 -31 -56 7 -10 13 -11 31 -1 13 7 41 13
64 14 33 1 41 5 41 20 0 11 -8 20 -19 22 -11 2 -29 5 -40 7 -12 3 -32 0 -46
-6z"/>
<path d="M5027 3674 c-13 -13 -7 -42 10 -48 21 -8 36 6 31 30 -3 19 -29 30
-41 18z"/>
<path d="M5107 3653 c-13 -12 -7 -54 9 -60 8 -3 22 1 31 9 12 12 13 20 4 37
-12 21 -31 27 -44 14z"/>
<path d="M5240 3653 c-60 -10 -83 -37 -60 -73 8 -12 12 -12 36 0 15 8 34 14
43 12 23 -4 46 35 30 54 -6 8 -14 13 -18 13 -3 -1 -17 -4 -31 -6z"/>
<path d="M4286 3603 c-48 -31 -32 -47 32 -32 28 6 49 6 62 -1 13 -7 22 -6 32
3 7 6 27 12 43 12 23 0 30 4 30 20 0 25 -42 34 -51 11 -7 -19 -74 -19 -81 1
-7 19 -22 16 -67 -14z"/>
<path d="M5237 3552 c-16 -18 -16 -20 3 -37 19 -18 22 -18 38 -2 13 13 14 21
6 34 -15 25 -28 26 -47 5z"/>
<path d="M5103 3544 c-4 -11 7 -27 32 -50 21 -19 40 -34 41 -34 1 0 10 7 18
16 14 14 12 18 -19 50 -37 37 -62 43 -72 18z"/>
<path d="M5045 3470 c-4 -7 -3 -16 3 -22 14 -14 45 -2 40 15 -6 16 -34 21 -43
7z"/>
<path d="M5111 3438 c-10 -27 -6 -38 14 -38 17 0 34 30 28 48 -7 20 -33 14
-42 -10z"/>
<path d="M4650 3421 c0 -26 17 -36 35 -21 23 19 18 40 -10 40 -18 0 -25 -5
-25 -19z"/>
<path d="M4592 3418 c-5 -7 -13 -32 -17 -55 -6 -39 -5 -43 14 -43 24 0 55 62
45 92 -6 21 -27 24 -42 6z"/>
<path d="M4501 3381 c-19 -12 -6 -43 16 -39 10 2 18 12 18 22 0 22 -14 29 -34
17z"/>
<path d="M5014 3376 c-7 -18 1 -46 13 -46 4 0 15 5 23 10 11 7 12 14 4 27 -15
24 -33 28 -40 9z"/>
<path d="M5083 3364 c-3 -8 -1 -20 5 -26 16 -16 47 -5 50 20 3 18 -1 22 -23
22 -14 0 -28 -7 -32 -16z"/>
<path d="M4247 3343 c-4 -3 -7 -15 -7 -25 0 -12 7 -18 24 -18 24 0 41 23 30
41 -6 10 -38 12 -47 2z"/>
<path d="M4627 3326 c-3 -8 -3 -24 0 -35 3 -13 1 -21 -7 -21 -6 0 -10 -10 -8
-22 2 -15 10 -23 23 -23 23 0 33 34 13 46 -10 7 -9 9 4 9 18 0 33 33 23 50 -9
15 -42 12 -48 -4z"/>
<path d="M4954 3316 c-8 -21 13 -46 32 -39 20 8 13 47 -9 51 -9 2 -20 -4 -23
-12z"/>
<path d="M4821 3306 c-16 -20 4 -58 27 -54 21 4 29 48 10 59 -18 12 -24 11
-37 -5z"/>
<path d="M4557 3303 c-4 -3 -7 -17 -7 -30 0 -26 21 -31 39 -9 21 25 -10 62
-32 39z"/>
<path d="M5030 3291 c0 -22 23 -34 38 -19 15 15 3 38 -19 38 -12 0 -19 -7 -19
-19z"/>
<path d="M5098 3271 c-7 -12 -23 -21 -35 -21 -12 0 -23 -6 -26 -12 -3 -10 -7
-10 -19 0 -9 7 -29 12 -44 11 -16 0 -39 2 -50 6 -15 5 -23 2 -28 -10 -9 -26 3
-38 34 -32 15 3 32 1 37 -4 8 -8 18 -7 33 1 28 15 57 -5 38 -27 -9 -11 -8 -18
5 -30 15 -15 19 -15 56 2 22 9 42 23 45 30 2 7 18 15 35 18 17 4 31 13 31 21
0 21 -25 27 -47 11 -27 -21 -31 -18 -29 16 1 38 -18 48 -36 20z"/>
<path d="M4454 3228 c-9 -31 12 -45 36 -23 22 20 20 30 -9 38 -14 3 -22 -1
-27 -15z"/>
<path d="M4523 3214 c-3 -8 -1 -20 6 -27 8 -8 6 -16 -6 -29 -19 -22 -6 -42 23
-36 13 3 18 11 16 27 -1 13 3 30 9 37 6 8 9 21 5 29 -7 20 -45 19 -53 -1z"/>
<path d="M4824 3205 c-9 -23 4 -47 23 -43 11 2 19 14 21 31 3 22 -1 27 -18 27
-11 0 -23 -7 -26 -15z"/>
<path d="M4210 3195 c-16 -20 -6 -45 19 -45 24 0 39 39 20 51 -19 12 -25 11
-39 -6z"/>
<path d="M4307 3175 c-9 -9 -17 -18 -17 -20 0 -11 57 -55 70 -55 9 0 21 -5 28
-12 8 -8 15 -8 27 2 14 12 16 11 10 -12 -8 -30 7 -43 32 -30 18 11 31 112 14
112 -21 0 -41 -13 -41 -27 0 -9 -7 -13 -17 -9 -55 15 -63 18 -63 25 0 4 -6 15
-13 25 -13 17 -14 17 -30 1z"/>
<path d="M4923 3163 c-5 -10 -8 -31 -8 -48 0 -26 4 -30 27 -30 15 0 34 -9 43
-20 15 -20 15 -20 30 0 14 18 14 21 -1 32 -12 8 -21 9 -29 3 -13 -11 -25 -3
-25 15 0 7 9 10 24 8 14 -3 25 1 29 10 8 22 -5 33 -45 41 -30 5 -39 3 -45 -11z"/>
<path d="M4840 3140 c-12 -7 -12 -13 -4 -27 22 -35 67 -23 57 15 -6 23 -28 28
-53 12z"/>
<path d="M5162 3138 c-34 -6 -56 -16 -62 -29 -6 -10 -19 -19 -30 -19 -19 0
-36 -32 -25 -50 10 -16 29 -12 48 10 10 12 22 18 26 15 5 -3 30 4 57 15 26 11
49 18 52 15 9 -9 32 17 32 36 0 21 -14 22 -98 7z"/>
<path d="M4276 3121 c-4 -6 -18 -11 -31 -11 -49 0 -69 -22 -44 -47 7 -7 21 -6
47 2 43 15 62 39 45 56 -8 8 -13 8 -17 0z"/>
<path d="M5186 3067 c-16 -12 -17 -16 -5 -35 16 -25 41 -28 59 -7 30 36 -14
71 -54 42z"/>
<path d="M4280 3053 c-44 -19 -43 -18 -36 -41 5 -14 13 -18 26 -15 11 3 20 10
20 15 0 7 20 8 55 3 51 -6 55 -5 55 14 0 20 -5 22 -70 36 -8 2 -31 -4 -50 -12z"/>
<path d="M4853 3063 c-16 -6 -17 -35 -1 -51 8 -8 8 -15 -2 -27 -17 -21 1 -41
27 -30 10 4 31 7 46 6 28 -3 28 -2 25 46 -3 41 -6 48 -25 51 -20 3 -23 -1 -24
-35 0 -21 -3 -32 -6 -25 -2 6 -9 9 -15 6 -5 -3 -4 3 3 14 7 10 9 27 6 36 -7
16 -13 18 -34 9z"/>
<path d="M4485 3050 c-6 -10 15 -50 26 -50 14 0 31 31 25 45 -6 17 -41 20 -51
5z"/>
<path d="M4567 3023 c-4 -3 -7 -15 -7 -26 0 -11 -8 -26 -17 -33 -21 -15 -6
-38 22 -32 14 2 44 64 45 91 0 9 -34 9 -43 0z"/>
<path d="M4992 3011 c-7 -4 -11 -27 -9 -56 2 -43 5 -50 25 -53 29 -4 29 -30 0
-34 -28 -4 -36 -36 -11 -45 10 -3 29 -15 42 -25 45 -35 93 -9 57 31 -15 17
-14 19 10 29 18 9 24 19 22 35 -3 19 -9 22 -48 23 -34 0 -46 5 -48 17 -2 9 -7
17 -11 17 -4 0 -6 13 -3 29 4 31 -6 44 -26 32z"/>
<path d="M4174 2995 c-18 -14 -18 -16 -1 -29 10 -8 26 -12 37 -9 13 3 18 0 17
-14 -2 -15 8 -19 68 -24 72 -7 92 -1 82 24 -6 17 -51 27 -115 27 -25 0 -42 3
-39 7 7 7 -11 33 -22 33 -4 0 -16 -7 -27 -15z"/>
<path d="M5067 3003 c-30 -8 -15 -37 22 -44 19 -4 40 -5 48 -2 14 6 18 29 6
36 -16 9 -59 14 -76 10z"/>
<path d="M4411 2976 c-15 -18 -2 -49 16 -42 8 3 17 6 19 6 2 0 4 9 4 19 0 24
-25 34 -39 17z"/>
<path d="M4480 2970 c-9 -17 -8 -20 13 -20 29 0 37 7 30 26 -8 20 -31 17 -43
-6z"/>
<path d="M4462 2928 c-17 -17 -15 -35 5 -42 21 -8 36 6 31 30 -4 22 -20 28
-36 12z"/>
<path d="M4888 2923 c-36 -11 -48 -19 -48 -34 0 -23 25 -36 43 -21 6 6 23 12
37 14 25 3 40 33 23 47 -4 5 -29 2 -55 -6z"/>
<path d="M4276 2903 c-3 -3 -6 -14 -6 -24 0 -17 51 -32 78 -22 17 7 15 33 -3
33 -23 0 -29 1 -46 11 -9 4 -19 5 -23 2z"/>
<path d="M4532 2901 c-18 -11 -11 -46 8 -46 9 0 16 11 18 28 3 28 -3 33 -26
18z"/>
<path d="M4157 2893 c-4 -3 -7 -14 -7 -23 0 -13 10 -17 45 -17 27 0 46 5 49
13 3 8 2 15 -2 17 -16 9 -79 17 -85 10z"/>
<path d="M4373 2853 c-3 -7 -3 -17 1 -20 3 -4 -1 -14 -10 -24 -19 -21 -11 -39
17 -39 14 0 19 7 19 25 0 14 5 25 10 25 6 0 10 7 10 15 0 8 5 15 11 15 5 0 7
-5 4 -10 -9 -15 23 -24 40 -10 26 21 6 38 -46 38 -35 0 -52 -5 -56 -15z"/>
<path d="M4910 2835 c0 -28 8 -31 35 -12 21 16 12 37 -16 37 -14 0 -19 -7 -19
-25z"/>
<path d="M4846 2834 c-12 -31 -7 -45 16 -42 26 3 37 36 16 49 -19 12 -25 11
-32 -7z"/>
<path d="M4142 2824 c-19 -21 -14 -36 10 -32 25 3 36 33 16 40 -7 3 -19 -1
-26 -8z"/>
<path d="M4210 2806 c0 -22 5 -26 29 -26 16 0 42 -3 60 -6 23 -5 32 -2 37 10
10 25 -4 33 -68 41 -57 6 -58 6 -58 -19z"/>
<path d="M4430 2796 c0 -8 -3 -21 -6 -30 -5 -12 0 -16 20 -16 28 0 36 26 14
48 -16 16 -28 15 -28 -2z"/>
<path d="M4852 2743 c3 -25 7 -27 46 -28 46 -1 66 13 56 39 -5 12 -19 16 -56
16 -48 0 -49 -1 -46 -27z"/>
<path d="M4840 2670 c0 -13 7 -20 18 -20 11 0 27 -9 37 -20 27 -29 55 -26 55
6 0 24 -3 26 -30 21 -25 -6 -30 -3 -30 13 0 15 -7 20 -25 20 -18 0 -25 -5 -25
-20z"/>
<path d="M4196 2661 c-3 -4 0 -16 7 -25 17 -23 47 -11 40 15 -5 19 -37 26 -47
10z"/>
<path d="M4314 2649 c-9 -15 23 -40 42 -32 8 3 14 13 12 22 -4 19 -43 27 -54
10z"/>
<path d="M4262 2628 c-8 -8 -9 -15 -1 -25 15 -17 51 1 43 22 -7 18 -26 19 -42
3z"/>
<path d="M4382 2628 c-16 -16 -15 -33 2 -47 11 -9 18 -8 30 4 9 9 16 20 16 24
0 8 -22 31 -30 31 -3 0 -11 -5 -18 -12z"/>
<path d="M4150 2615 c-15 -18 -6 -45 15 -45 8 0 15 -9 15 -20 0 -12 7 -20 18
-20 10 0 27 -7 39 -15 24 -17 39 -5 41 33 1 18 -4 22 -26 20 -34 -2 -74 11
-67 22 6 10 -4 40 -15 40 -4 0 -13 -7 -20 -15z"/>
<path d="M4077 2603 c-4 -3 -7 -17 -7 -30 0 -13 -6 -32 -12 -43 -11 -17 -10
-22 2 -30 8 -5 20 -8 25 -7 14 5 15 57 1 58 -6 0 -1 4 12 9 27 11 30 50 4 50
-10 0 -22 -3 -25 -7z"/>
<path d="M4116 2514 c-8 -21 2 -36 22 -32 10 2 22 -3 28 -11 14 -18 34 -6 34
20 0 12 -7 19 -20 19 -11 0 -20 5 -20 10 0 16 -37 11 -44 -6z"/>
<path d="M4033 2451 c-9 -14 -9 -21 0 -30 27 -27 61 4 37 34 -16 20 -23 19
-37 -4z"/>
<path d="M4213 2459 c-11 -11 -6 -49 7 -49 14 0 41 32 37 44 -5 15 -30 19 -44
5z"/>
<path d="M4805 2460 c-11 -17 5 -51 23 -48 23 4 23 52 0 56 -9 2 -19 -2 -23
-8z"/>
<path d="M4092 2438 c2 -13 11 -24 21 -26 22 -4 35 27 16 39 -25 16 -41 10
-37 -13z"/>
<path d="M4140 2396 c-25 -31 -6 -43 62 -39 75 4 88 8 88 27 0 11 -13 14 -52
14 -29 -1 -60 2 -69 6 -9 4 -21 1 -29 -8z"/>
<path d="M3995 2375 c-16 -13 -17 -18 -7 -24 12 -7 12 -12 1 -29 -10 -16 -11
-24 -2 -33 18 -18 40 -4 46 30 6 28 9 30 44 28 29 -1 38 2 41 16 4 21 -37 24
-57 5 -10 -11 -12 -10 -9 2 4 20 -32 23 -57 5z"/>
<path d="M4115 2322 c-16 -16 -3 -33 23 -30 15 2 32 -3 37 -10 15 -19 42 -5
40 21 -1 19 -8 22 -48 23 -25 1 -49 -1 -52 -4z"/>
<path d="M4061 2301 c-17 -11 -7 -41 13 -41 22 0 30 20 15 36 -9 8 -19 10 -28
5z"/>
<path d="M3971 2247 c-6 -6 -11 -17 -11 -25 0 -7 -7 -20 -15 -28 -19 -20 -19
-40 1 -48 23 -9 36 3 31 30 -5 26 20 43 29 19 9 -23 44 -19 44 5 0 13 -7 20
-20 20 -11 0 -20 6 -20 14 0 19 -25 27 -39 13z"/>
<path d="M4056 2164 c-13 -33 21 -47 45 -18 10 13 10 17 -2 25 -21 13 -36 11
-43 -7z"/>
<path d="M3994 2145 c-7 -18 3 -35 21 -35 15 0 28 27 19 41 -8 14 -34 11 -40
-6z"/>
<path d="M4031 2091 c-8 -15 -7 -23 4 -35 8 -8 15 -24 15 -35 0 -14 6 -21 19
-21 22 0 36 27 22 44 -5 6 -11 22 -13 36 -4 31 -33 38 -47 11z"/>
<path d="M3972 2068 c-20 -20 -13 -38 12 -38 30 0 42 26 17 39 -12 7 -22 6
-29 -1z"/>
<path d="M5733 4493 c-7 -2 -13 -11 -13 -19 0 -8 -11 -19 -25 -24 -14 -5 -25
-16 -25 -24 0 -24 29 -27 53 -3 21 21 22 21 26 2 2 -12 -7 -27 -22 -40 -21
-16 -24 -24 -15 -38 5 -10 8 -28 5 -39 -6 -23 12 -58 30 -58 6 0 18 9 26 21 9
13 17 16 22 10 3 -6 15 -11 26 -11 14 0 19 7 19 26 0 21 -4 24 -20 19 -11 -3
-28 -2 -37 4 -16 9 -16 10 -1 11 9 0 19 4 23 9 7 13 -15 101 -26 101 -4 0 -9
12 -11 27 -3 27 -14 35 -35 26z"/>
<path d="M7636 6281 c-9 -10 -16 -24 -16 -31 0 -7 35 -47 78 -89 66 -65 80
-84 95 -135 15 -51 16 -69 6 -143 -8 -62 -8 -87 0 -92 19 -12 120 4 138 22 16
16 16 19 -5 46 -25 34 -29 69 -17 156 9 70 42 132 103 191 39 38 42 45 32 64
-10 19 -18 21 -62 17 -27 -3 -56 -11 -64 -18 -17 -14 -18 -36 -2 -41 17 -6 3
-49 -28 -81 l-26 -28 -45 46 c-35 37 -43 52 -40 74 7 45 -6 55 -71 58 -47 2
-63 -2 -76 -16z"/>
<path d="M12304 6269 c-18 -21 -18 -22 -1 -33 52 -32 52 -31 34 -60 -10 -14
-26 -26 -36 -26 -47 0 -117 -95 -127 -174 -4 -25 -13 -54 -20 -63 -12 -17 -14
-17 -29 -2 -15 14 -15 25 -4 98 l12 81 -27 29 c-26 27 -29 28 -147 29 -131 2
-146 -5 -115 -52 23 -36 40 -199 24 -242 -24 -68 43 -92 115 -41 24 16 35 18
62 10 42 -13 83 -6 98 18 16 26 44 24 80 -7 26 -22 38 -25 73 -20 28 3 52 0
70 -9 25 -13 31 -12 65 7 39 22 40 24 13 85 -11 24 -13 69 -11 190 5 192 1
203 -63 203 -35 0 -52 -5 -66 -21z"/>
<path d="M10192 6267 c-27 -12 -28 -31 -2 -57 31 -31 25 -44 -31 -71 -67 -31
-95 -74 -109 -165 -12 -78 -6 -104 33 -146 31 -34 67 -43 107 -29 19 6 40 7
54 1 13 -5 34 -6 47 -3 29 7 79 52 79 70 0 23 16 14 49 -27 29 -36 36 -40 77
-40 74 0 141 40 128 74 -5 12 -16 16 -40 14 -24 -2 -40 4 -59 22 -39 36 -39
36 52 60 34 8 46 18 59 45 17 37 13 77 -11 102 -8 8 -18 20 -22 28 -9 14 -23
18 -65 16 -31 -1 -80 -40 -119 -95 -25 -34 -29 -48 -29 -108 0 -73 -3 -77 -51
-52 l-30 15 2 164 c2 122 -1 168 -10 179 -15 18 -73 19 -109 3z"/>
<path d="M12583 6269 c-29 -11 -44 -41 -37 -76 3 -16 -1 -40 -10 -57 -13 -26
-13 -32 1 -60 24 -46 24 -190 1 -208 -10 -7 -19 -24 -20 -38 -3 -22 2 -26 42
-36 36 -9 51 -8 72 3 32 16 45 52 28 83 -6 12 -11 70 -12 138 0 107 -2 118
-21 134 -20 16 -21 17 -4 36 38 41 9 100 -40 81z"/>
<path d="M11373 6216 c-15 -18 -40 -41 -55 -51 -18 -11 -28 -26 -28 -41 0 -15
9 -27 28 -36 27 -13 27 -14 32 -130 7 -154 28 -182 107 -143 40 20 66 50 61
72 -3 14 -13 18 -43 18 l-40 0 1 50 c1 28 5 105 9 173 l7 122 -25 0 c-17 0
-35 -12 -54 -34z"/>
<path d="M8340 6163 c-14 -3 -31 -10 -37 -15 -20 -16 -15 -49 7 -55 21 -6 21
-8 25 -178 1 -52 29 -103 60 -111 14 -3 44 -3 67 1 24 3 62 7 85 9 24 1 54 11
69 22 27 20 27 20 11 54 -13 24 -17 60 -17 135 0 123 -8 139 -70 137 -24 -1
-49 -7 -56 -13 -20 -17 -17 -40 6 -46 11 -3 20 -10 21 -17 8 -138 6 -169 -12
-187 -21 -21 -58 -25 -60 -6 -1 6 -1 62 1 123 2 105 1 113 -21 133 -23 21 -31
22 -79 14z"/>
<path d="M9318 6156 c-24 -18 -23 -31 7 -54 18 -14 25 -29 25 -54 0 -19 3 -37
6 -40 3 -3 6 -42 7 -86 2 -63 6 -84 21 -101 23 -25 74 -28 134 -7 36 13 45 13
70 0 56 -27 75 4 52 86 -5 20 -6 57 -2 85 13 86 4 142 -28 165 -22 16 -33 18
-61 10 -49 -14 -71 -32 -64 -52 4 -10 15 -20 26 -23 16 -5 19 -16 19 -64 0
-32 -5 -72 -11 -90 -11 -31 -45 -59 -57 -46 -4 4 -7 58 -8 122 -1 124 -12 153
-56 153 -13 0 -32 2 -43 5 -11 3 -28 -1 -37 -9z"/>
<path d="M9721 6156 c-25 -6 -46 -17 -49 -24 -2 -7 9 -25 26 -40 25 -24 30
-36 36 -103 5 -57 3 -84 -9 -112 -24 -57 -20 -74 19 -80 44 -7 107 8 123 28
11 15 13 15 25 -4 8 -14 23 -21 43 -21 59 0 95 48 62 82 -9 9 -16 50 -19 116
-4 72 -11 110 -23 129 -16 23 -21 25 -69 20 -33 -3 -63 0 -85 9 -18 8 -34 14
-35 13 0 -1 -21 -6 -45 -13z"/>
<path d="M10797 6164 c-3 -3 -27 -11 -53 -18 -55 -14 -77 -38 -53 -58 18 -14
41 -136 35 -180 -3 -15 -11 -35 -20 -44 -19 -19 -21 -48 -3 -61 6 -6 38 -11
69 -12 46 -2 61 2 77 18 27 27 26 33 -4 61 -28 27 -34 84 -13 151 13 45 29 50
48 14 16 -31 23 -31 51 -2 30 31 40 63 30 91 -12 30 -31 37 -86 29 -27 -3 -50
-1 -58 6 -8 6 -16 8 -20 5z"/>
<path d="M11096 6149 c-40 -10 -59 -27 -77 -69 -21 -50 -6 -66 110 -120 22
-10 23 -23 6 -45 -15 -20 -16 -19 -38 8 -27 32 -47 34 -72 7 -17 -19 -17 -31
-1 -107 4 -22 15 -26 73 -24 74 1 115 23 136 72 22 51 22 57 -8 113 -19 37
-23 51 -15 72 33 85 -8 118 -114 93z"/>
<path d="M11705 6155 c-5 -2 -22 -6 -38 -9 -34 -8 -107 -72 -107 -95 0 -10 9
-27 21 -40 l21 -22 -25 -49 c-32 -62 -28 -114 12 -134 27 -14 70 -7 96 14 11
9 23 9 49 0 26 -8 41 -8 56 0 24 13 25 29 3 75 -14 30 -15 42 -5 83 26 99 -21
198 -83 177z"/>
<path d="M8705 6139 c-55 -13 -60 -22 -31 -54 24 -26 26 -35 26 -115 0 -48 -5
-102 -11 -120 -9 -25 -9 -34 1 -40 26 -16 80 -21 119 -10 50 13 60 42 25 77
-44 44 -51 134 -14 168 18 16 20 15 45 -9 33 -33 39 -33 64 3 26 37 27 65 1
91 -23 23 -43 25 -90 8 -26 -9 -35 -9 -38 0 -4 14 -40 14 -97 1z"/>
<path d="M12820 6139 c-54 -7 -80 -15 -91 -29 -16 -18 -15 -22 4 -62 24 -48
30 -169 9 -190 -17 -17 -15 -45 4 -52 68 -26 156 28 114 70 -13 13 -24 116
-16 148 8 32 44 54 57 35 12 -18 4 -156 -11 -194 -10 -26 -9 -32 10 -47 30
-24 65 -23 91 3 19 19 21 30 16 80 -3 33 -1 62 4 65 5 3 9 1 9 -4 0 -5 11 -25
24 -44 30 -45 42 -133 30 -228 -5 -40 -3 -48 23 -71 48 -45 125 -61 177 -38
38 18 75 96 72 153 -4 78 -54 112 -156 108 l-45 -2 45 16 c25 9 54 25 66 35
35 33 66 102 71 161 7 76 -5 92 -64 84 -25 -3 -45 -1 -49 5 -16 27 -114 -21
-139 -67 -10 -19 -26 -41 -36 -50 -17 -15 -18 -15 -24 12 -4 16 -8 38 -11 49
-13 58 -54 70 -184 54z"/>
<path d="M8070 6118 c-41 -28 -69 -99 -70 -179 0 -62 8 -76 64 -113 61 -41
107 -36 160 17 79 80 75 204 -11 270 -45 34 -97 36 -143 5z"/>
<path d="M8762 4067 c-12 -19 -22 -38 -22 -43 0 -4 -9 -26 -19 -48 -33 -69
-61 -146 -61 -167 0 -23 16 -42 44 -52 16 -7 18 -14 12 -66 -7 -63 6 -91 44
-91 37 0 50 -12 50 -44 0 -54 -22 -71 -132 -107 -57 -18 -114 -39 -128 -46
-14 -7 -30 -13 -37 -13 -6 0 -15 -15 -19 -32 -3 -18 -13 -42 -20 -53 -7 -12
-28 -66 -45 -120 -17 -55 -35 -104 -39 -110 -4 -5 -15 -34 -24 -62 -10 -29
-21 -55 -25 -58 -5 -2 -14 -26 -21 -52 -7 -27 -22 -60 -32 -75 -10 -14 -18
-33 -18 -41 0 -8 -11 -37 -24 -64 -48 -95 -96 -199 -96 -207 0 -4 -16 -41 -35
-82 -19 -41 -35 -78 -35 -82 0 -5 -8 -17 -19 -28 -10 -11 -30 -38 -44 -60 -13
-21 -36 -50 -51 -63 -14 -14 -26 -33 -26 -43 0 -10 -4 -18 -9 -18 -5 0 -11
-12 -14 -26 -5 -26 15 -56 44 -66 9 -3 12 -19 11 -47 -4 -63 4 -81 38 -81 39
0 55 31 80 157 16 79 27 109 58 153 21 30 43 66 50 80 7 14 20 39 31 55 10 17
27 46 38 65 11 19 37 62 57 95 91 150 126 215 126 237 0 11 5 18 12 16 8 -3
12 -86 15 -304 2 -164 4 -306 4 -314 15 -400 21 -528 29 -585 5 -38 12 -124
15 -190 3 -66 10 -156 15 -200 18 -154 18 -162 4 -162 -8 0 -14 4 -14 7 0 10
-98 22 -110 15 -7 -4 -6 -13 0 -25 8 -15 6 -24 -10 -40 -25 -25 -25 -37 -1
-76 14 -23 29 -33 57 -37 21 -4 43 -2 50 4 6 5 14 36 16 69 4 59 12 80 25 66
4 -3 9 -48 10 -99 2 -51 6 -132 10 -182 5 -82 4 -92 -15 -109 -21 -18 -22 -18
-68 4 -57 28 -101 19 -96 -19 1 -13 -2 -29 -8 -36 -12 -14 -3 -45 12 -45 6 0
5 -7 -2 -15 -7 -9 -22 -14 -34 -13 -15 2 -22 -3 -24 -19 -4 -29 19 -40 109
-52 41 -6 110 -17 154 -26 100 -18 139 -19 154 -1 8 9 13 78 14 205 2 132 6
194 15 203 15 15 52 18 76 6 10 -6 35 -10 55 -10 20 0 50 -8 66 -18 22 -13 59
-21 125 -25 52 -3 102 -8 111 -10 8 -3 23 1 34 9 18 13 18 18 1 182 -9 93 -19
183 -22 199 -3 17 -7 50 -9 75 -2 25 -8 88 -14 140 -5 52 -15 151 -20 219 -6
68 -14 127 -17 132 -13 22 -1 589 15 699 23 162 74 390 86 390 12 0 60 -75 70
-110 4 -14 15 -41 25 -60 41 -79 80 -167 80 -180 0 -12 36 -128 61 -197 12
-33 47 -30 60 5 7 15 13 22 16 15 3 -8 22 -13 48 -13 33 0 44 4 47 18 4 18
-14 61 -30 71 -22 14 -62 86 -62 112 0 15 -4 30 -9 33 -4 3 -14 27 -20 53 -7
27 -19 59 -26 73 -7 14 -18 48 -23 75 -6 28 -13 61 -17 75 -4 14 -10 43 -15
65 -4 22 -12 54 -18 70 -21 61 -41 141 -45 175 -8 73 -86 340 -99 340 -4 0 -8
8 -8 18 0 35 -87 88 -178 107 -18 4 -36 14 -41 24 -19 35 -54 236 -47 266 7
25 -21 184 -34 200 -23 27 -109 64 -166 70 l-61 7 -21 -35z m177 -2517 c7 -25
12 -58 12 -74 -1 -26 17 -91 40 -141 10 -22 26 -81 65 -249 31 -131 27 -141
-49 -121 -26 7 -70 11 -97 9 -27 -2 -52 0 -55 6 -3 5 -15 10 -25 10 -10 0 -21
9 -25 20 -11 36 32 420 51 451 3 5 7 22 10 37 12 81 17 98 27 110 15 19 31 -2
46 -58z"/>
<path d="M5304 1508 c-4 -7 -14 -23 -22 -35 -12 -20 -11 -24 7 -40 12 -9 21
-25 21 -34 0 -18 37 -37 62 -31 9 2 20 12 23 22 3 10 16 20 27 22 18 3 22 10
24 51 1 40 -1 47 -17 47 -22 0 -53 -54 -46 -81 5 -17 3 -17 -23 -4 -21 11 -27
20 -23 35 3 11 9 23 14 25 4 3 6 12 2 20 -6 18 -39 20 -49 3z"/>
<path d="M5514 1483 c-5 -19 -2 -30 11 -40 25 -18 33 -17 40 6 7 22 -14 61
-32 61 -7 0 -16 -12 -19 -27z"/>
<path d="M5601 1463 c-7 -15 -5 -22 8 -30 22 -14 44 -1 39 23 -5 25 -34 30
-47 7z"/>
<path d="M5700 1443 c-19 -46 -34 -73 -42 -73 -25 0 -58 22 -58 40 0 38 -36
24 -50 -20 -7 -22 -10 -43 -7 -46 3 -4 33 -7 66 -9 33 -1 68 -8 76 -15 13 -11
18 -11 30 1 17 16 39 124 30 139 -11 19 -33 10 -45 -17z"/>
<path d="M4374 1442 c-21 -13 -26 -49 -8 -56 22 -8 46 12 42 37 -3 23 -17 30
-34 19z"/>
<path d="M5815 1442 c-17 -12 -45 -60 -45 -77 0 -8 -4 -15 -10 -15 -17 0 -11
-37 6 -44 18 -7 44 10 44 27 0 5 12 25 26 44 14 18 24 41 22 51 -4 18 -27 26
-43 14z"/>
<path d="M5909 1428 c-1 -7 -1 -19 0 -25 1 -7 -7 -13 -18 -13 -25 0 -65 -72
-48 -89 16 -16 37 -13 44 7 4 9 22 33 40 52 38 40 40 73 6 78 -14 2 -23 -2
-24 -10z"/>
<path d="M4458 1423 c-10 -2 -18 -13 -18 -24 0 -12 -7 -19 -20 -19 -24 0 -37
-27 -21 -43 6 -6 11 -21 11 -34 0 -31 29 -42 47 -17 12 16 11 20 -3 31 -16 12
-16 14 1 33 10 11 24 20 32 20 19 0 27 28 13 45 -7 8 -15 14 -19 14 -3 -1 -14
-3 -23 -6z"/>
<path d="M6030 1405 c-6 -8 -9 -19 -5 -25 3 -6 -3 -10 -15 -10 -12 0 -25 -10
-32 -25 -6 -14 -15 -25 -20 -25 -16 0 -7 -29 14 -44 26 -18 48 -6 48 28 1 25
18 50 43 59 21 8 22 43 1 51 -21 8 -20 8 -34 -9z"/>
<path d="M4544 1402 c-17 -12 -44 -81 -34 -87 5 -3 7 -18 4 -34 -5 -22 -2 -29
14 -33 22 -6 42 8 42 29 0 7 -4 13 -10 13 -16 0 -12 46 5 60 28 23 8 73 -21
52z"/>
<path d="M5444 1385 c-4 -9 -2 -21 4 -27 15 -15 54 1 50 20 -4 23 -46 28 -54
7z"/>
<path d="M6130 1374 c0 -14 -4 -23 -9 -20 -19 12 -31 -21 -23 -60 7 -35 11
-39 40 -40 17 0 35 -3 38 -7 19 -18 51 -6 65 26 18 36 14 117 -5 117 -23 0
-34 -22 -29 -55 5 -29 2 -35 -26 -49 l-31 -17 0 41 c0 27 5 43 15 46 8 4 15
15 15 25 0 14 -7 19 -25 19 -20 0 -25 -5 -25 -26z"/>
<path d="M4620 1375 c-10 -12 -10 -19 3 -33 14 -15 14 -21 2 -42 -28 -49 -28
-53 -11 -66 23 -17 37 -10 59 27 21 37 21 53 3 69 -8 6 -12 18 -10 25 9 21
-31 38 -46 20z"/>
<path d="M6300 1334 c-11 -25 -20 -48 -20 -51 0 -3 -8 -11 -17 -18 -14 -11
-15 -16 -5 -28 20 -24 50 -9 63 32 6 20 20 46 31 57 18 20 18 23 3 38 -25 25
-34 20 -55 -30z"/>
<path d="M4240 1357 c0 -9 -3 -23 -6 -32 -6 -13 -1 -16 22 -13 23 2 29 8 29
28 0 18 -6 26 -22 28 -15 2 -23 -2 -23 -11z"/>
<path d="M4695 1360 c-3 -5 0 -18 7 -29 11 -19 14 -19 30 -4 10 9 18 22 18 30
0 15 -46 18 -55 3z"/>
<path d="M6412 1348 c-7 -7 -12 -16 -12 -21 0 -4 -13 -28 -29 -51 -31 -45 -29
-73 5 -62 21 7 55 49 58 71 1 8 5 18 9 21 4 4 7 18 7 31 0 25 -19 30 -38 11z"/>
<path d="M4803 1334 c-3 -10 0 -22 8 -28 8 -6 13 -23 11 -38 -3 -24 0 -28 23
-28 28 0 43 23 27 43 -6 6 -12 23 -14 37 -4 30 -44 41 -55 14z"/>
<path d="M6510 1335 c-7 -8 -10 -21 -7 -29 4 -9 1 -13 -6 -11 -21 8 -45 -20
-52 -58 -6 -30 -4 -38 10 -43 21 -9 65 36 65 66 0 12 9 29 21 38 13 11 18 23
14 35 -9 21 -28 22 -45 2z"/>
<path d="M4323 1333 c-18 -7 -16 -30 3 -37 21 -8 34 1 34 25 0 18 -12 23 -37
12z"/>
<path d="M4932 1303 c3 -31 -29 -73 -56 -73 -23 0 -32 -28 -14 -46 20 -20 48
-7 48 21 0 18 4 22 20 18 19 -5 22 -2 24 30 1 6 7 18 14 25 22 24 15 52 -14
52 -22 0 -25 -4 -22 -27z"/>
<path d="M6586 1314 c-8 -21 1 -34 24 -34 19 0 34 25 24 41 -9 15 -41 10 -48
-7z"/>
<path d="M6663 1309 c-8 -8 -9 -18 -2 -30 10 -20 -11 -49 -45 -62 -15 -6 -18
-3 -14 18 4 17 0 29 -11 34 -20 11 -61 -4 -61 -21 0 -7 -3 -23 -6 -35 -8 -29
32 -48 56 -27 13 11 18 10 29 -7 9 -16 19 -20 40 -16 16 3 33 1 39 -5 15 -15
42 -2 42 21 0 14 -9 23 -25 27 -19 5 -23 10 -15 19 5 6 6 15 2 19 -4 4 2 14
13 22 15 11 17 18 9 32 -14 21 -36 26 -51 11z"/>
<path d="M6762 1303 c-12 -24 -4 -43 18 -43 17 0 34 35 24 52 -9 14 -33 9 -42
-9z"/>
<path d="M4730 1261 c0 -55 10 -67 40 -51 21 11 27 44 10 55 -5 3 -10 15 -10
26 0 12 -7 19 -20 19 -17 0 -20 -7 -20 -49z"/>
<path d="M5035 1289 c-7 -21 7 -39 32 -39 18 0 27 41 12 51 -23 14 -37 10 -44
-12z"/>
<path d="M5114 1275 c-8 -20 4 -35 26 -35 25 0 35 17 20 35 -16 19 -39 19 -46
0z"/>
<path d="M6877 1273 c-14 -24 -15 -73 -3 -107 16 -47 38 -62 57 -40 10 13 10
20 -4 44 -13 21 -16 40 -11 69 6 37 4 41 -14 41 -12 0 -23 -3 -25 -7z"/>
<path d="M6982 1262 c-7 -2 -10 -13 -6 -26 4 -16 0 -25 -10 -29 -20 -8 -21
-33 -2 -44 8 -4 16 -19 18 -33 2 -19 10 -26 31 -28 27 -3 57 12 57 28 0 4 -13
13 -29 20 -21 8 -30 20 -33 41 -5 30 -5 30 37 23 34 -5 43 -3 49 11 11 28 -13
46 -58 44 -23 -2 -47 -4 -54 -7z"/>
<path d="M4985 1244 c-36 -37 -48 -63 -35 -79 21 -26 50 -18 57 15 3 17 9 30
13 30 15 0 18 39 3 44 -20 8 -19 8 -38 -10z"/>
<path d="M5192 1243 c2 -10 10 -17 18 -15 8 2 24 -2 36 -8 16 -9 27 -9 43 0
36 19 19 35 -43 38 -51 3 -57 1 -54 -15z"/>
<path d="M5337 1243 c-12 -11 -7 -43 6 -43 19 0 36 20 30 36 -5 15 -25 19 -36
7z"/>
<path d="M7137 1243 c-4 -3 -7 -17 -7 -30 0 -18 -6 -23 -24 -23 -35 0 -41 -16
-21 -60 20 -44 42 -57 63 -36 12 12 12 20 1 49 -12 34 -11 37 15 58 21 17 24
24 15 35 -12 15 -31 18 -42 7z"/>
<path d="M5073 1233 c-22 -8 -15 -43 7 -43 11 0 20 2 20 4 0 2 3 11 6 19 6 16
-13 27 -33 20z"/>
<path d="M6770 1228 c0 -46 14 -87 31 -91 28 -8 45 19 26 41 -8 9 -17 26 -19
37 -4 22 -38 34 -38 13z"/>
<path d="M7220 1225 c-6 -8 -10 -20 -7 -27 2 -7 -2 -20 -9 -29 -11 -12 -12
-27 -6 -55 7 -33 12 -39 32 -39 24 0 25 3 25 57 0 31 3 60 8 64 12 12 8 23
-12 33 -14 8 -22 7 -31 -4z"/>
<path d="M5392 1213 c-5 -10 -7 -24 -5 -30 3 -7 -2 -13 -11 -13 -19 0 -22 -36
-3 -43 22 -8 57 11 51 28 -4 10 1 22 14 31 12 8 19 21 16 29 -8 21 -51 19 -62
-2z"/>
<path d="M5481 1217 c-6 -8 -8 -16 -5 -20 3 -3 -2 -20 -13 -37 -17 -29 -17
-32 -1 -44 11 -8 14 -17 8 -26 -13 -21 0 -40 26 -40 26 0 32 21 10 39 -18 15
-8 58 15 64 31 8 35 38 10 59 -28 22 -35 22 -50 5z"/>
<path d="M5154 1214 c-7 -3 -10 -14 -7 -25 7 -27 48 -22 48 6 0 19 -19 28 -41
19z"/>
<path d="M7307 1213 c-12 -11 -7 -33 8 -39 20 -8 45 13 38 32 -5 14 -34 19
-46 7z"/>
<path d="M7405 1200 c-8 -13 4 -50 16 -50 6 0 19 5 30 10 15 9 17 15 9 30 -11
21 -45 27 -55 10z"/>
<path d="M5264 1170 c-4 -16 -12 -30 -20 -30 -21 0 -28 -21 -12 -37 13 -13 19
-10 52 20 39 37 46 61 20 71 -28 11 -34 7 -40 -24z"/>
<path d="M5584 1185 c-4 -9 -2 -21 4 -27 6 -6 7 -21 2 -39 -10 -33 0 -44 34
-35 23 6 45 36 26 36 -6 0 -10 3 -10 8 0 4 24 7 52 7 40 0 53 4 56 16 2 11
-11 19 -45 28 -90 23 -112 25 -119 6z"/>
<path d="M7521 1176 c-9 -11 -8 -18 5 -30 23 -24 48 -16 52 17 3 23 0 27 -21
27 -14 0 -30 -6 -36 -14z"/>
<path d="M5092 1168 c-22 -22 -14 -40 16 -36 19 2 27 9 27 23 0 23 -25 31 -43
13z"/>
<path d="M7630 1146 c0 -28 17 -37 43 -24 21 11 22 34 1 42 -30 12 -44 6 -44
-18z"/>
<path d="M5157 1146 c-7 -18 1 -26 25 -26 11 0 18 7 18 20 0 23 -35 28 -43 6z"/>
<path d="M5807 1143 c-12 -12 -7 -31 10 -37 19 -8 48 17 39 33 -8 12 -39 15
-49 4z"/>
<path d="M7317 1121 c-32 -35 -36 -71 -7 -71 11 0 20 5 20 10 0 6 11 20 25 32
29 25 33 58 7 58 -9 0 -29 -13 -45 -29z"/>
<path d="M7744 1139 c-8 -14 21 -43 35 -35 6 4 11 16 11 27 0 21 -34 27 -46 8z"/>
<path d="M5903 1134 c-7 -3 -13 -14 -13 -25 0 -12 -7 -19 -18 -19 -44 0 -55
-44 -16 -62 19 -9 24 -17 20 -34 -7 -27 6 -38 34 -29 24 7 27 40 5 49 -14 5
-14 9 0 35 8 17 22 34 31 39 37 21 -3 62 -43 46z"/>
<path d="M7452 1115 c-12 -14 -26 -25 -31 -25 -18 0 -19 -40 -2 -50 19 -10 41
4 41 27 0 21 29 3 32 -20 2 -14 11 -23 26 -25 29 -4 40 23 18 47 -9 10 -16 22
-16 28 0 10 -32 43 -41 43 -3 0 -15 -11 -27 -25z"/>
<path d="M5310 1107 c0 -31 9 -38 31 -26 29 15 25 49 -6 49 -20 0 -25 -5 -25
-23z"/>
<path d="M7863 1114 c-3 -8 -1 -20 5 -26 15 -15 43 8 35 28 -7 19 -32 18 -40
-2z"/>
<path d="M5987 1101 c-2 -11 0 -25 7 -32 8 -9 8 -10 -2 -5 -22 13 -52 -4 -52
-30 0 -35 47 -34 60 1 7 17 17 25 34 25 14 0 30 8 35 19 8 15 6 20 -15 30 -37
16 -61 14 -67 -8z"/>
<path d="M7962 1108 c-15 -18 1 -41 24 -36 23 4 26 41 3 46 -9 1 -21 -3 -27
-10z"/>
<path d="M5390 1090 c0 -25 25 -36 45 -20 25 21 18 40 -15 40 -23 0 -30 -4
-30 -20z"/>
<path d="M5720 1094 c-11 -12 -11 -18 2 -30 8 -8 22 -12 30 -9 17 7 30 40 20
49 -11 11 -40 6 -52 -10z"/>
<path d="M7570 1091 c0 -23 23 -34 39 -18 19 19 12 37 -14 37 -18 0 -25 -5
-25 -19z"/>
<path d="M8053 1103 c-7 -2 -13 -15 -13 -28 0 -13 -4 -27 -10 -30 -16 -10 -42
-74 -36 -90 9 -26 32 -17 49 20 9 20 17 42 17 49 0 7 9 21 20 31 24 22 26 41
4 49 -9 3 -16 6 -17 5 -1 0 -8 -3 -14 -6z"/>
<path d="M6097 1094 c-12 -12 -8 -42 6 -47 21 -8 39 8 35 29 -3 19 -29 30 -41
18z"/>
<path d="M7677 1094 c-12 -12 -8 -42 6 -47 21 -8 39 8 35 29 -3 19 -29 30 -41
18z"/>
<path d="M8131 1086 c-15 -18 -3 -46 20 -46 25 0 35 26 19 45 -15 19 -24 19
-39 1z"/>
<path d="M5545 1070 c-16 -17 -15 -19 7 -33 33 -21 85 -31 93 -17 5 8 11 6 20
-6 16 -22 45 -11 45 17 0 19 -4 21 -30 16 -17 -4 -30 -2 -30 3 0 6 -11 10 -25
10 -14 0 -25 -5 -25 -11 0 -5 -5 -7 -10 -4 -6 4 -8 9 -6 13 2 4 -2 12 -9 19
-10 9 -17 8 -30 -7z"/>
<path d="M7782 1078 c-7 -7 -12 -17 -12 -24 0 -6 -7 -17 -15 -24 -19 -16 -19
-39 0 -47 10 -3 29 8 52 31 35 35 36 36 18 56 -21 23 -27 24 -43 8z"/>
<path d="M8223 1064 c-3 -8 -1 -20 6 -27 8 -8 7 -15 -5 -28 -16 -18 -15 -27 5
-59 5 -8 12 -23 15 -34 5 -13 12 -17 30 -12 15 4 28 0 36 -9 23 -27 80 -15 80
16 0 10 -4 19 -10 19 -5 0 -16 16 -25 36 -13 31 -17 34 -35 24 -11 -6 -20 -18
-20 -26 0 -22 -19 -7 -31 23 -7 20 -6 30 6 43 19 21 19 36 -1 44 -26 10 -44 7
-51 -10z"/>
<path d="M6190 1046 c0 -13 -6 -24 -12 -23 -39 1 -48 -4 -48 -28 0 -22 4 -25
35 -25 24 0 35 5 35 15 0 8 9 20 20 27 11 7 20 23 20 35 0 18 -6 23 -25 23
-20 0 -25 -5 -25 -24z"/>
<path d="M6292 1048 c-7 -7 -12 -18 -12 -24 0 -7 -10 -14 -22 -16 -31 -4 -34
-32 -7 -57 13 -12 17 -21 11 -21 -16 0 -15 -35 2 -49 7 -6 21 -8 30 -5 10 4
28 1 41 -6 20 -11 27 -11 40 0 8 7 15 18 15 26 0 18 -38 28 -54 15 -10 -9 -15
-7 -20 6 -4 10 -1 20 9 25 15 9 20 39 8 52 -4 4 -7 19 -8 33 0 30 -15 39 -33
21z"/>
<path d="M7914 1035 c-9 -14 -23 -25 -30 -25 -19 0 -18 -39 1 -46 16 -7 85 52
85 72 0 10 -21 24 -36 24 -2 0 -11 -11 -20 -25z"/>
<path d="M8332 1033 c4 -36 52 -46 63 -14 9 29 -1 41 -36 41 -27 0 -30 -3 -27
-27z"/>
<path d="M6070 1042 c-25 -8 -30 -25 -14 -44 9 -9 13 -25 10 -35 -8 -25 8 -46
30 -41 14 3 18 11 16 28 -2 14 -3 37 -3 52 0 30 -17 48 -39 40z"/>
<path d="M7640 1035 c-10 -11 -10 -19 -2 -27 15 -15 44 -2 40 19 -4 23 -22 27
-38 8z"/>
<path d="M6364 1025 c-7 -18 3 -35 21 -35 12 0 25 21 25 41 0 15 -40 10 -46
-6z"/>
<path d="M5792 1018 c-17 -17 -15 -25 8 -31 21 -5 45 16 35 33 -8 13 -28 13
-43 -2z"/>
<path d="M6463 1022 c-8 -5 -12 -27 -10 -57 2 -45 4 -50 26 -50 20 0 23 5 26
45 5 57 -12 81 -42 62z"/>
<path d="M8090 1020 c0 -25 26 -90 38 -95 24 -9 31 4 28 53 -2 45 -4 47 -34
50 -18 2 -32 -1 -32 -8z"/>
<path d="M5992 991 c-18 -11 -11 -45 9 -49 9 -2 19 5 23 14 8 22 -14 46 -32
35z"/>
<path d="M6571 986 c-6 -7 -9 -20 -5 -29 3 -8 1 -18 -5 -22 -23 -14 -11 -43
19 -50 49 -11 88 40 40 52 -15 4 -18 11 -13 34 4 22 2 29 -10 29 -8 0 -20 -6
-26 -14z"/>
<path d="M6639 974 c-11 -14 -10 -18 6 -30 22 -16 25 -17 44 -5 18 12 5 51
-18 51 -10 0 -25 -7 -32 -16z"/>
<path d="M6753 963 c-7 -2 -13 -13 -13 -23 0 -12 -10 -20 -31 -24 -38 -7 -36
-35 3 -54 35 -17 68 -1 68 33 0 13 4 25 9 27 10 4 -5 48 -16 47 -4 0 -14 -3
-20 -6z"/>
<path d="M6160 931 c0 -22 25 -45 40 -36 5 3 10 17 10 31 0 19 -5 24 -25 24
-18 0 -25 -5 -25 -19z"/>
<path d="M6860 928 c0 -7 4 -19 9 -27 12 -19 43 -6 39 16 -4 21 -48 31 -48 11z"/>
<path d="M6998 909 c-10 -6 -18 -16 -18 -23 0 -8 -9 -16 -20 -19 -24 -6 -27
-42 -4 -55 8 -4 29 -6 45 -4 24 3 30 9 28 26 -1 11 2 29 6 39 11 26 -14 49
-37 36z"/>
<path d="M6427 894 c-4 -4 -7 -16 -7 -26 0 -15 6 -19 28 -16 19 2 27 9 27 23
0 20 -33 33 -48 19z"/>
<path d="M6804 875 c-4 -8 -1 -22 6 -30 10 -12 7 -15 -14 -21 -15 -4 -32 -1
-41 6 -21 18 -47 4 -43 -22 2 -17 14 -26 51 -36 60 -17 77 -11 77 28 0 19 5
30 14 30 18 0 29 42 13 52 -20 13 -57 9 -63 -7z"/>
<path d="M7101 860 c-5 -16 -15 -30 -20 -30 -17 0 -13 -25 8 -44 17 -15 20
-15 34 -2 8 9 13 24 10 34 -3 13 2 21 16 25 13 3 21 13 21 26 0 17 -6 21 -29
21 -23 0 -31 -6 -40 -30z"/>
<path d="M6507 873 c-13 -12 -7 -41 9 -47 8 -3 26 -3 39 0 16 4 26 0 33 -12
15 -26 62 -11 62 21 0 31 -34 43 -59 21 -23 -21 -28 -20 -34 4 -5 19 -36 27
-50 13z"/>
<path d="M7193 853 c-4 -9 -15 -25 -25 -35 -15 -15 -16 -23 -8 -39 16 -29 54
-22 58 11 2 14 10 29 18 33 8 4 14 17 14 27 0 26 -48 28 -57 3z"/>
<path d="M7297 854 c-4 -4 -7 -16 -7 -27 0 -11 -8 -29 -17 -39 -19 -21 -11
-32 28 -42 29 -6 62 18 37 27 -10 3 -8 9 5 25 25 27 18 56 -13 60 -14 2 -29 0
-33 -4z"/>
<path d="M7408 795 c-1 -19 -2 -43 -2 -52 -1 -13 7 -18 24 -18 23 0 25 3 22
38 -2 21 2 37 8 37 5 0 10 -9 10 -20 0 -13 7 -20 19 -20 29 0 51 11 51 25 0
21 -22 32 -77 39 l-53 7 -2 -36z"/>
<path d="M6875 779 c-5 -14 -2 -25 6 -30 24 -15 44 -5 44 21 0 34 -40 41 -50
9z"/>
<path d="M7002 778 c-31 -15 -24 -42 12 -46 37 -5 51 10 37 37 -13 24 -17 24
-49 9z"/>
<path d="M7610 766 c0 -16 7 -27 20 -31 16 -5 18 -9 7 -25 -13 -22 -5 -34 30
-44 19 -6 24 -2 29 21 4 15 16 35 27 43 18 15 18 17 3 33 -13 13 -22 15 -37 7
-15 -9 -21 -7 -25 5 -3 8 -17 15 -30 15 -19 0 -24 -5 -24 -24z"/>
<path d="M7764 745 c-3 -13 -12 -29 -20 -36 -31 -26 1 -78 40 -63 17 6 29 32
21 45 -3 5 -1 17 5 28 7 15 6 23 -6 35 -22 22 -33 20 -40 -9z"/>
<path d="M7083 745 c-10 -11 -9 -17 4 -31 16 -15 18 -15 35 6 15 18 16 25 6
31 -18 12 -31 10 -45 -6z"/>
<path d="M7873 743 c-7 -2 -13 -16 -13 -29 0 -18 5 -24 21 -24 18 0 19 -3 9
-15 -16 -20 -3 -55 21 -55 26 0 34 23 18 52 -7 13 -12 29 -10 36 2 14 -17 43
-28 41 -3 0 -12 -3 -18 -6z"/>
<path d="M7212 728 c-31 -31 -2 -56 69 -60 38 -3 44 0 47 18 4 27 -13 40 -63
48 -27 5 -44 3 -53 -6z"/>
<path d="M7546 724 c-9 -25 10 -41 32 -28 24 15 21 38 -4 42 -13 2 -24 -4 -28
-14z"/>
<path d="M8003 713 c-16 -6 -17 -40 -2 -45 9 -3 9 -9 1 -25 -9 -16 -8 -24 3
-33 21 -18 51 -8 47 15 -2 11 -4 33 -3 50 1 36 -16 51 -46 38z"/>
<path d="M7408 675 c-13 -30 -9 -35 28 -38 34 -2 46 29 18 50 -25 18 -33 16
-46 -12z"/>
<path d="M8114 688 c-4 -7 -9 -32 -10 -55 -1 -32 3 -46 15 -53 24 -12 35 -1
47 47 9 36 9 45 -6 58 -20 18 -36 19 -46 3z"/>
<path d="M8193 658 c3 -13 10 -39 14 -58 7 -28 14 -35 33 -35 14 0 33 -8 43
-17 24 -25 36 -22 49 10 7 15 18 35 26 44 12 14 12 21 2 33 -18 22 -44 19 -55
-7 -15 -34 -35 -34 -35 -1 0 37 -16 53 -53 53 -25 0 -29 -3 -24 -22z"/>
<path d="M7517 663 c-4 -3 -7 -17 -7 -30 0 -19 5 -23 29 -23 35 0 61 9 61 20
0 27 -64 53 -83 33z"/>
<path d="M7620 635 c-17 -20 3 -45 36 -45 14 0 33 -6 44 -12 25 -16 55 0 55
28 0 16 -7 19 -42 19 -23 0 -48 6 -54 13 -17 16 -24 15 -39 -3z"/>
<path d="M7812 593 c-5 -10 -7 -24 -5 -30 5 -15 73 -18 73 -3 0 6 5 10 11 10
5 0 8 -4 5 -8 -11 -18 14 -33 73 -43 47 -9 66 -8 74 0 29 29 -26 58 -125 64
-21 2 -43 8 -50 15 -17 17 -46 15 -56 -5z"/>
<path d="M8137 533 c-13 -12 -7 -41 9 -47 16 -6 54 9 54 22 0 23 -47 42 -63
25z"/>
<path d="M8260 502 c-20 -16 -20 -19 -6 -31 19 -16 66 -6 66 14 0 27 -36 37
-60 17z"/>
</g>
</svg>
