<?xml version="1.0" standalone="no"?>
<!DOCTYPE svg PUBLIC "-//W3C//DTD SVG 20010904//EN"
 "http://www.w3.org/TR/2001/REC-SVG-20010904/DTD/svg10.dtd">
<svg version="1.0" xmlns="http://www.w3.org/2000/svg"
 width="1472.3874pt" height="1435.0563pt" viewBox="0 0 1472.3874 1435.0563"
 preserveAspectRatio="xMidYMid meet">
<g transform="translate(31.1937,-6.4718) rotate(269.0000,705.0000,724.0000)">
<metadata>
Created by potrace 1.16, written by Peter Selinger 2001-2019
</metadata>
<g transform="translate(0.000000,1448.000000) scale(0.100000,-0.100000)"
fill="#000000" stroke="none">
<path d="M7423 14043 c-24 -36 -29 -163 -14 -303 13 -120 26 -329 45 -742 8
-157 16 -290 19 -295 3 -4 8 -164 11 -355 3 -190 9 -377 12 -415 10 -112 -33
-166 -104 -129 -16 8 -88 73 -159 143 -72 70 -199 192 -284 270 -151 140 -230
221 -540 553 -85 91 -228 239 -319 330 -91 91 -313 317 -495 501 -334 340
-409 404 -440 379 -8 -7 -15 -23 -15 -36 0 -47 44 -183 127 -394 115 -290 393
-1087 393 -1124 0 -5 20 -54 44 -110 107 -243 261 -694 427 -1246 20 -69 49
-156 63 -195 14 -38 50 -157 80 -262 31 -106 74 -234 95 -285 54 -126 58 -156
30 -192 -20 -26 -26 -28 -68 -23 -54 7 -1211 390 -1256 416 -16 9 -41 33 -53
52 -21 30 -23 42 -19 109 35 487 62 1469 42 1515 -19 46 -51 70 -153 114 -90
39 -229 109 -681 345 -123 65 -263 133 -310 153 -47 19 -142 64 -211 100 -139
71 -199 87 -230 58 -28 -25 -25 -52 14 -116 18 -31 47 -85 64 -121 17 -35 55
-100 85 -144 29 -43 66 -101 82 -129 15 -27 65 -111 110 -185 154 -254 302
-505 350 -595 27 -49 60 -108 75 -130 15 -22 51 -83 80 -135 28 -52 80 -138
115 -190 35 -52 86 -133 114 -180 27 -47 70 -117 95 -155 25 -39 52 -88 61
-109 31 -73 -2 -113 -84 -102 -80 11 -532 173 -739 265 -52 23 -198 77 -325
120 -128 43 -286 101 -352 129 -135 56 -454 175 -500 186 -16 4 -87 32 -156
61 -70 29 -162 65 -205 78 -44 14 -125 44 -181 66 -55 23 -131 49 -166 58 -63
17 -66 17 -86 -1 -12 -11 -21 -25 -21 -32 0 -42 199 -201 589 -470 29 -20 75
-56 102 -80 27 -24 102 -84 166 -133 218 -165 319 -245 469 -371 164 -138 275
-224 374 -290 36 -24 108 -78 160 -120 52 -42 132 -103 176 -136 45 -32 155
-115 244 -184 89 -69 205 -158 259 -198 53 -40 134 -104 181 -142 252 -204
440 -350 813 -628 227 -169 449 -334 495 -367 120 -85 169 -141 178 -201 4
-27 4 -150 -1 -274 -4 -124 -10 -317 -14 -430 -9 -285 -10 -287 -250 -301 -80
-5 -207 -13 -281 -18 -74 -6 -223 -15 -330 -21 -107 -6 -249 -14 -315 -19
-161 -12 -179 -4 -216 94 -44 117 -191 401 -289 560 -51 83 -107 175 -125 205
-18 30 -108 168 -200 305 -226 337 -285 433 -337 545 -25 53 -79 141 -123 200
-43 58 -104 143 -136 190 -31 47 -82 114 -114 150 -31 36 -70 89 -86 118 -17
28 -59 91 -93 140 -35 48 -96 144 -136 214 -152 263 -191 291 -359 262 -47 -8
-117 -27 -156 -41 -105 -38 -421 -130 -580 -167 -206 -49 -557 -142 -660 -176
-49 -16 -143 -41 -209 -54 -132 -28 -166 -44 -166 -81 0 -30 30 -51 85 -60 34
-6 641 -158 1080 -271 72 -19 171 -41 220 -49 50 -9 137 -29 195 -45 58 -16
193 -47 300 -70 107 -23 265 -60 350 -82 85 -22 209 -54 275 -70 123 -31 161
-51 149 -82 -9 -23 -44 -40 -170 -81 -102 -34 -150 -57 -469 -227 -116 -63
-294 -157 -520 -277 -22 -12 -87 -42 -144 -67 -57 -25 -178 -85 -270 -133 -91
-49 -218 -114 -281 -146 -63 -32 -171 -90 -240 -129 -69 -40 -230 -128 -359
-195 -128 -67 -279 -151 -335 -185 -55 -35 -146 -89 -201 -122 -155 -91 -192
-133 -166 -182 23 -42 45 -43 732 -32 360 6 845 13 1079 16 234 2 598 8 810
12 212 5 638 8 947 8 554 -1 562 -1 590 -22 34 -25 41 -66 17 -102 -10 -15
-61 -80 -113 -145 -53 -66 -129 -165 -170 -220 -219 -301 -418 -582 -538 -762
-198 -296 -282 -408 -326 -432 -53 -30 -114 -10 -258 83 -39 26 -140 86 -223
134 -83 48 -211 123 -283 166 -403 240 -530 304 -605 304 -42 0 -46 -3 -143
-106 -55 -59 -181 -187 -281 -285 -100 -98 -217 -222 -260 -275 -43 -54 -128
-152 -188 -218 -508 -563 -513 -569 -501 -606 15 -48 130 -39 286 23 122 48
273 92 539 156 91 22 221 56 290 76 69 20 267 73 440 116 332 84 536 141 685
190 146 49 306 90 326 84 45 -15 29 -68 -48 -160 -20 -24 -59 -80 -87 -124
-28 -44 -81 -124 -117 -178 -36 -54 -99 -150 -139 -213 -73 -113 -179 -269
-346 -505 -139 -197 -214 -312 -241 -373 -14 -31 -40 -75 -58 -97 -18 -22 -50
-71 -72 -110 -60 -104 -222 -369 -282 -459 -55 -84 -60 -109 -23 -114 32 -5
60 15 224 159 78 69 170 144 203 166 33 22 98 75 145 118 47 42 159 137 250
211 91 73 212 172 270 220 58 47 137 108 175 135 75 53 175 131 264 208 31 26
85 69 121 96 36 27 93 73 127 102 34 29 82 62 105 74 62 31 156 99 290 211 65
54 142 114 172 133 30 19 87 65 128 102 85 79 360 293 521 407 62 43 144 103
182 132 39 30 148 113 242 185 95 72 176 135 179 140 3 5 58 46 122 91 64 46
158 121 207 169 153 146 208 175 250 129 19 -21 19 -92 -2 -666 l-6 -182 26
-26 c32 -32 51 -33 82 -1 l25 24 2 298 c1 164 1 429 -1 588 -1 160 2 535 9
835 16 807 14 1819 -5 1939 -9 51 -13 108 -9 125 3 18 1 85 -5 149 -9 96 -9
123 3 151 28 67 105 88 151 42 42 -42 43 -84 15 -676 -5 -118 -12 -678 -15
-1245 -4 -943 -12 -1352 -34 -1929 -9 -223 -4 -271 30 -298 27 -23 35 -22 57
0 16 16 20 42 26 143 4 68 11 171 16 229 5 58 12 713 14 1455 6 1733 14 2281
33 2317 28 56 92 45 115 -19 25 -72 12 -1630 -28 -3248 -19 -744 -19 -789 -3
-826 17 -43 58 -48 75 -11 4 9 9 209 10 444 2 235 10 715 19 1065 8 351 18
1077 21 1613 l6 975 -31 120 c-18 66 -48 172 -67 236 -32 104 -34 121 -24 158
12 44 83 154 185 286 34 44 106 145 160 225 54 80 117 170 140 200 23 30 99
141 170 245 70 105 149 217 175 250 25 33 109 152 185 265 76 113 170 248 209
300 40 52 107 148 149 212 42 64 122 179 178 254 55 76 118 167 140 203 22 36
56 88 75 115 38 54 43 90 18 138 -14 27 -101 161 -201 308 -159 235 -199 302
-409 674 -144 254 -191 334 -212 359 -23 26 -59 21 -79 -10z"/>
<path d="M9375 13925 c-14 -13 -25 -34 -25 -46 0 -12 -15 -50 -34 -83 -40 -73
-84 -187 -170 -448 -35 -106 -108 -319 -161 -473 -53 -154 -108 -316 -121
-360 -60 -194 -202 -622 -247 -745 -27 -74 -115 -331 -194 -570 -135 -407
-282 -838 -358 -1045 -77 -211 -160 -474 -185 -587 -22 -103 -38 -136 -80
-172 -40 -33 -81 -34 -225 -2 -111 25 -327 46 -468 46 -94 0 -137 16 -166 63
-25 41 -51 53 -80 38 -40 -22 -40 -27 -47 -946 -3 -445 -7 -855 -8 -910 -1
-55 -7 -530 -14 -1055 -6 -525 -14 -1011 -17 -1080 -6 -152 -23 -233 -70 -348
-20 -48 -59 -151 -86 -230 -54 -158 -77 -208 -106 -235 -11 -9 -58 -30 -104
-46 -46 -16 -115 -43 -154 -61 -38 -17 -144 -58 -235 -90 -91 -31 -226 -82
-300 -112 -74 -31 -178 -68 -230 -83 -52 -15 -151 -49 -220 -76 -300 -116
-464 -181 -590 -234 -134 -56 -373 -148 -605 -231 -131 -47 -270 -100 -500
-191 -82 -33 -221 -84 -307 -112 -86 -29 -172 -62 -190 -74 -54 -36 -69 -80
-79 -235 -5 -75 -17 -204 -25 -287 -27 -266 -58 -1170 -42 -1232 10 -37 39
-57 68 -48 21 7 115 116 216 250 33 44 107 142 165 217 57 76 135 184 172 240
37 57 96 137 130 179 77 94 277 366 377 513 42 61 118 167 170 236 52 69 107
144 121 165 39 60 127 195 224 345 48 74 96 145 108 158 27 29 62 28 83 -3 18
-28 17 -122 -6 -495 -18 -293 -21 -1214 -5 -1440 8 -107 19 -280 25 -385 6
-104 15 -241 20 -302 6 -62 15 -166 20 -230 23 -262 42 -449 49 -462 4 -8 15
-19 25 -25 31 -20 69 38 111 169 21 66 58 164 83 220 66 148 122 296 272 720
85 238 173 453 238 581 85 165 142 294 177 400 18 55 49 132 68 170 19 39 50
119 67 180 18 60 53 154 80 209 26 55 55 125 65 155 10 30 29 82 43 115 13 33
42 117 63 188 25 81 66 181 113 275 45 89 92 203 119 289 26 78 53 156 62 173
21 40 58 64 90 56 37 -9 167 -186 453 -616 141 -212 276 -412 300 -445 124
-170 116 -202 -108 -425 -81 -80 -173 -179 -205 -220 -33 -41 -94 -113 -136
-160 -116 -128 -310 -371 -325 -407 -8 -18 -14 -47 -14 -65 0 -42 74 -196 171
-358 42 -69 91 -152 109 -185 19 -33 98 -157 176 -275 77 -118 175 -273 217
-343 42 -70 101 -161 131 -201 30 -41 79 -114 110 -162 71 -115 141 -194 170
-194 51 0 55 35 32 253 -8 73 -20 186 -26 252 -6 66 -16 154 -22 195 -10 74
-18 197 -38 560 -5 102 -17 253 -25 335 -33 308 -55 938 -36 998 13 40 40 54
70 38 11 -6 51 -53 90 -103 39 -51 109 -140 156 -198 185 -231 207 -260 528
-713 61 -86 251 -341 334 -448 24 -30 85 -116 137 -191 52 -76 146 -202 209
-280 114 -143 141 -178 317 -414 146 -195 214 -278 243 -294 23 -13 28 -13 47
5 17 16 20 26 15 55 -12 62 -135 420 -166 482 -17 33 -57 137 -90 231 -34 95
-72 192 -86 215 -14 24 -40 87 -58 140 -243 703 -327 939 -382 1077 -22 55
-55 147 -73 205 -18 58 -45 134 -62 170 -16 36 -40 108 -52 160 -13 52 -53
194 -88 315 -36 121 -76 258 -88 305 -13 47 -38 126 -56 175 -18 50 -51 155
-74 235 -23 80 -59 199 -80 265 -46 143 -139 494 -162 610 -6 28 -32 126 -59
219 -56 194 -61 250 -25 293 13 15 67 52 120 82 165 93 288 204 501 451 47 54
96 108 111 119 47 37 73 29 234 -81 83 -57 190 -126 238 -155 146 -87 160 -98
170 -140 17 -67 44 -409 37 -457 -4 -26 -2 -104 4 -174 6 -70 13 -469 16 -887
7 -1055 15 -1565 26 -1601 5 -17 20 -40 32 -52 25 -23 263 -124 432 -182 61
-21 207 -75 325 -120 118 -44 271 -99 339 -121 68 -23 167 -61 221 -85 107
-49 121 -51 144 -28 40 39 24 64 -406 635 -152 201 -292 390 -311 420 -36 54
-92 135 -424 607 -100 142 -187 271 -193 286 -15 41 -12 74 10 96 29 29 129
26 314 -10 84 -17 198 -34 252 -40 55 -5 196 -27 314 -50 118 -22 278 -52 355
-66 77 -14 190 -37 252 -50 61 -13 192 -38 290 -54 98 -17 248 -44 333 -59 85
-16 202 -37 260 -46 58 -9 155 -25 215 -36 139 -24 139 -24 171 5 26 22 27 25
14 55 -13 33 -47 58 -310 236 -122 83 -368 259 -605 435 -49 37 -144 103 -210
148 -66 44 -155 110 -198 146 -43 36 -110 86 -150 112 -135 88 -252 168 -322
219 -38 28 -91 64 -117 79 -26 15 -80 57 -120 93 -40 36 -122 95 -183 130 -60
36 -150 96 -200 133 -49 37 -135 97 -190 134 -137 90 -220 160 -236 197 -11
28 -10 36 7 68 25 47 89 81 229 122 60 17 151 50 200 71 50 22 149 63 220 93
72 29 157 65 190 80 33 15 128 55 210 90 83 34 205 88 272 119 80 37 135 56
160 56 83 0 131 -58 228 -272 31 -70 82 -169 112 -220 30 -51 66 -120 80 -153
41 -97 183 -377 209 -412 13 -17 43 -39 69 -48 43 -17 48 -17 177 9 73 14 178
33 233 41 55 8 190 33 300 55 200 41 492 92 594 104 74 10 119 30 133 60 18
42 -3 73 -70 103 -114 51 -350 157 -462 208 -117 54 -203 90 -415 175 -113 45
-359 150 -525 224 -145 65 -246 104 -310 122 -36 9 -76 27 -89 40 -23 22 -24
24 -7 48 9 14 47 41 85 60 82 42 330 148 386 166 22 7 96 39 165 72 69 33 199
91 290 128 209 86 396 167 531 230 58 28 109 50 112 50 14 0 446 184 484 206
23 13 92 44 154 69 109 44 159 75 159 101 0 23 -48 51 -109 64 -44 9 -118 11
-263 7 -265 -7 -753 -32 -998 -52 -266 -21 -781 -49 -858 -47 -62 2 -90 11
-171 57 -42 24 -51 25 -216 25 -130 0 -183 4 -216 16 -24 8 -90 26 -147 39
-57 14 -113 30 -125 36 -12 6 -56 47 -97 91 -58 61 -94 90 -155 121 -64 34
-88 53 -123 100 -50 66 -102 97 -164 97 -34 0 -56 -9 -102 -40 -32 -22 -75
-44 -95 -49 -30 -8 -535 -26 -723 -26 -71 0 -106 24 -132 91 -11 27 -36 87
-57 134 -46 103 -53 132 -44 167 8 33 163 194 295 306 52 45 118 103 147 129
79 73 53 77 608 -88 338 -100 744 -210 827 -224 83 -15 128 -2 163 45 14 18
70 118 124 221 103 198 207 392 220 409 11 14 202 371 441 825 112 212 238
444 280 515 43 72 88 153 102 180 13 28 57 112 97 188 74 140 83 176 45 191
-24 9 -66 -17 -197 -127 -117 -99 -213 -175 -356 -282 -147 -110 -291 -223
-376 -295 -50 -42 -146 -116 -214 -164 -68 -48 -163 -119 -211 -156 -48 -38
-110 -80 -136 -93 -27 -14 -58 -35 -69 -47 -30 -33 -189 -166 -250 -209 -59
-41 -188 -146 -364 -294 -64 -55 -165 -134 -226 -177 -60 -44 -141 -103 -178
-132 -111 -86 -149 -108 -184 -108 -62 0 -60 -26 -54 730 7 767 3 730 79 769
55 28 310 108 400 125 271 53 785 158 829 170 29 8 65 23 82 35 37 27 71 96
71 145 0 20 7 69 15 109 28 140 47 263 60 397 7 74 25 189 40 255 14 66 33
156 42 200 8 44 30 148 49 230 18 83 38 177 44 210 5 33 21 105 35 160 14 55
25 117 25 137 0 35 -20 68 -42 68 -27 0 -220 -235 -485 -589 -100 -133 -175
-229 -376 -484 -43 -53 -107 -139 -142 -190 -36 -50 -107 -146 -159 -212 -53
-66 -124 -159 -158 -207 -263 -364 -299 -408 -340 -408 -57 0 -57 -4 -58 465
-3 682 -7 1111 -15 1525 -6 356 -5 401 15 597 27 263 25 450 -4 482 -24 27
-32 26 -61 -4z m-1928 -4675 c170 -22 461 -92 555 -133 70 -31 228 -123 338
-198 189 -127 428 -431 490 -623 10 -33 10 -40 -4 -54 -14 -15 -18 -15 -48 0
-18 9 -64 44 -103 78 -150 132 -495 328 -650 369 -38 10 -109 30 -157 44 -145
43 -459 77 -710 77 -166 0 -169 0 -193 25 -25 24 -25 27 -25 187 0 144 2 167
20 195 22 36 37 42 130 46 159 8 209 6 357 -13z m-27 -635 c91 -8 203 -23 250
-34 247 -56 376 -94 470 -136 57 -25 133 -58 169 -73 36 -14 118 -61 183 -104
174 -118 295 -252 380 -423 55 -110 63 -141 44 -170 -28 -43 -51 -36 -186 55
-108 73 -139 88 -280 139 -162 57 -345 100 -483 111 -65 6 -128 12 -140 15
-51 11 -448 35 -637 39 -132 2 -214 7 -228 15 -41 22 -45 44 -43 259 3 276 11
293 146 311 103 13 172 12 355 -4z m2652 -466 c43 -23 46 -54 64 -562 9 -267
13 -498 10 -513 -4 -15 -20 -39 -36 -55 -46 -47 -110 -35 -135 24 -20 50 -20
1028 0 1067 24 46 58 60 97 39z m-277 -63 c65 -27 71 -96 13 -139 -22 -17 -50
-21 -165 -28 -76 -4 -192 -12 -258 -18 -150 -12 -275 -3 -304 23 -40 36 -22
118 32 148 26 15 151 22 439 26 165 2 215 -1 243 -12z m542 -87 c34 -12 90
-64 109 -101 30 -57 45 -364 23 -466 -20 -98 -130 -239 -177 -230 -8 2 -24 15
-35 31 -20 26 -21 41 -23 355 -1 189 2 341 8 359 8 29 41 63 60 63 3 0 19 -5
35 -11z m-2972 -160 c66 -5 184 -13 261 -18 78 -5 175 -14 215 -20 41 -6 130
-18 199 -26 245 -31 419 -81 579 -165 101 -54 151 -97 151 -131 0 -33 -69 -96
-181 -162 -107 -64 -131 -75 -364 -168 -238 -95 -314 -118 -518 -158 -268 -53
-399 -69 -596 -73 l-164 -3 -19 26 c-18 24 -19 45 -19 421 0 218 5 406 10 419
9 26 37 53 61 62 24 9 254 7 385 -4z m2432 -75 c26 -17 40 -60 26 -83 -28 -44
-57 -53 -199 -61 -76 -5 -217 -14 -312 -21 -188 -14 -213 -11 -245 33 -18 24
-19 32 -8 68 13 43 43 69 94 79 17 4 165 5 327 3 231 -3 300 -7 317 -18z m11
-289 c17 -14 33 -39 37 -55 8 -34 -15 -84 -48 -102 -13 -7 -108 -17 -237 -24
-118 -7 -267 -16 -330 -19 -108 -7 -117 -6 -142 14 -54 43 -41 133 24 167 39
21 268 40 510 42 154 2 157 2 186 -23z m-998 -270 c18 -21 4 -62 -50 -156 -69
-118 -311 -354 -479 -468 -85 -58 -367 -194 -566 -273 -138 -55 -494 -146
-658 -168 -77 -11 -90 -10 -112 4 -46 30 -49 48 -47 246 3 196 10 242 42 283
31 39 87 54 325 87 426 59 787 131 911 183 151 64 428 188 509 230 101 52 107
53 125 32z m1025 -60 c39 -38 27 -97 -25 -125 -51 -28 -672 -46 -718 -21 -46
24 -40 97 11 135 33 24 133 31 500 34 l208 2 24 -25z m-965 -310 c18 -22 2
-86 -49 -206 -47 -108 -84 -164 -177 -269 -37 -41 -102 -117 -146 -169 -170
-202 -404 -373 -627 -460 -183 -71 -284 -98 -430 -117 -69 -8 -203 -26 -298
-40 -180 -25 -202 -24 -237 15 -17 18 -18 34 -14 169 6 220 13 227 238 248
205 18 517 79 639 125 251 93 585 273 706 380 28 24 77 66 110 93 33 28 103
94 155 148 52 54 100 98 106 98 6 0 17 -7 24 -15z"/>
<path d="M12690 9602 c-450 -224 -789 -390 -870 -425 -30 -13 -167 -82 -305
-153 -137 -72 -277 -141 -310 -154 -71 -29 -140 -88 -155 -135 -12 -37 -6 -58
27 -87 31 -28 351 -123 853 -252 74 -19 187 -49 250 -65 130 -35 166 -38 198
-15 27 19 111 141 168 244 22 41 72 127 111 190 77 128 234 416 259 476 9 22
42 82 74 134 95 158 200 355 200 376 0 29 -41 64 -76 64 -17 0 -184 -78 -424
-198z"/>
</g>

</g>
</svg>
